M48
; DRILL file KiCad 10.0.4 date 2026-08-26T16:06:26
; FORMAT={-:-/ absolute / metric / decimal}
; #@! TF.CreationDate,2026-08-26T16:06:26-04:00
; #@! TF.GenerationSoftware,Kicad,Pcbnew,10.0.4
; #@! TF.FileFunction,Plated,1,2,PTH
FMAT,2
METRIC
; #@! TA.AperFunction,Plated,PTH,ViaDrill
T1C0.300
; #@! TA.AperFunction,Plated,PTH,ComponentDrill
T2C0.950
; #@! TA.AperFunction,Plated,PTH,ComponentDrill
T3C1.000
%
G90
G05
T1
X106.0Y-80.5
X106.326Y-75.674
X106.5Y-78.5
X107.5Y-115.6
X107.5Y-121.9
X109.0Y-72.0
X111.5Y-78.5
X113.0Y-80.5
X113.0Y-110.0
X114.5Y-129.0
X115.0Y-92.5
X116.5Y-110.0
X116.5Y-123.1
X117.5Y-94.5
X120.0Y-97.0
X121.0Y-91.9
X136.5Y-91.9
X140.0Y-95.5
X142.725Y-94.74
X142.725Y-97.28
X143.0Y-101.5
X144.0Y-99.0
X145.962Y-92.233
X147.675Y-96.5
X147.675Y-98.55
X150.5Y-95.0
X150.5Y-97.5
X151.0Y-101.5
X151.0Y-104.0
X178.346Y-93.154
X178.45Y-96.5
X178.45Y-98.5
X180.0Y-103.5
X180.5Y-91.5
X180.5Y-96.0
X182.5Y-98.5
T2
X104.5Y-73.0
X104.5Y-75.5
X104.5Y-78.0
X104.5Y-80.5
X105.5Y-115.0
X105.5Y-117.5
X105.5Y-120.0
X105.5Y-122.5
T3
X109.5Y-94.46
X109.5Y-97.0
X109.5Y-99.54
X143.0Y-75.0
X145.5Y-75.0
X177.5Y-91.46
X177.5Y-94.0
X177.5Y-96.54
X177.5Y-99.08
X177.5Y-101.62
M30
