%TF.GenerationSoftware,KiCad,Pcbnew,10.0.4*%
%TF.CreationDate,2026-08-26T16:03:07-04:00*%
%TF.ProjectId,RS-422 Quad Receiver AM26C32,52532d34-3232-4205-9175-616420526563,rev?*%
%TF.SameCoordinates,Original*%
%TF.FileFunction,Copper,L1,Top*%
%TF.FilePolarity,Positive*%
%FSLAX46Y46*%
G04 Gerber Fmt 4.6, Leading zero omitted, Abs format (unit mm)*
G04 Created by KiCad (PCBNEW 10.0.4) date 2026-08-26 16:03:07*
%MOMM*%
%LPD*%
G01*
G04 APERTURE LIST*
G04 Aperture macros list*
%AMRoundRect*
0 Rectangle with rounded corners*
0 $1 Rounding radius*
0 $2 $3 $4 $5 $6 $7 $8 $9 X,Y pos of 4 corners*
0 Add a 4 corners polygon primitive as box body*
4,1,4,$2,$3,$4,$5,$6,$7,$8,$9,$2,$3,0*
0 Add four circle primitives for the rounded corners*
1,1,$1+$1,$2,$3*
1,1,$1+$1,$4,$5*
1,1,$1+$1,$6,$7*
1,1,$1+$1,$8,$9*
0 Add four rect primitives between the rounded corners*
20,1,$1+$1,$2,$3,$4,$5,0*
20,1,$1+$1,$4,$5,$6,$7,0*
20,1,$1+$1,$6,$7,$8,$9,0*
20,1,$1+$1,$8,$9,$2,$3,0*%
G04 Aperture macros list end*
%TA.AperFunction,ComponentPad*%
%ADD10O,1.700000X2.000000*%
%TD*%
%TA.AperFunction,ComponentPad*%
%ADD11RoundRect,0.250000X-0.600000X-0.750000X0.600000X-0.750000X0.600000X0.750000X-0.600000X0.750000X0*%
%TD*%
%TA.AperFunction,SMDPad,CuDef*%
%ADD12C,2.000000*%
%TD*%
%TA.AperFunction,SMDPad,CuDef*%
%ADD13RoundRect,0.150000X-0.825000X-0.150000X0.825000X-0.150000X0.825000X0.150000X-0.825000X0.150000X0*%
%TD*%
%TA.AperFunction,SMDPad,CuDef*%
%ADD14RoundRect,0.150000X-0.587500X-0.150000X0.587500X-0.150000X0.587500X0.150000X-0.587500X0.150000X0*%
%TD*%
%TA.AperFunction,SMDPad,CuDef*%
%ADD15RoundRect,0.250000X-0.450000X0.262500X-0.450000X-0.262500X0.450000X-0.262500X0.450000X0.262500X0*%
%TD*%
%TA.AperFunction,SMDPad,CuDef*%
%ADD16RoundRect,0.250000X-0.262500X-0.450000X0.262500X-0.450000X0.262500X0.450000X-0.262500X0.450000X0*%
%TD*%
%TA.AperFunction,SMDPad,CuDef*%
%ADD17R,1.000000X1.500000*%
%TD*%
%TA.AperFunction,ComponentPad*%
%ADD18R,1.700000X1.700000*%
%TD*%
%TA.AperFunction,ComponentPad*%
%ADD19C,1.700000*%
%TD*%
%TA.AperFunction,ComponentPad*%
%ADD20RoundRect,0.250000X0.725000X-0.600000X0.725000X0.600000X-0.725000X0.600000X-0.725000X-0.600000X0*%
%TD*%
%TA.AperFunction,ComponentPad*%
%ADD21O,1.950000X1.700000*%
%TD*%
%TA.AperFunction,SMDPad,CuDef*%
%ADD22RoundRect,0.250000X-0.375000X-0.625000X0.375000X-0.625000X0.375000X0.625000X-0.375000X0.625000X0*%
%TD*%
%TA.AperFunction,SMDPad,CuDef*%
%ADD23RoundRect,0.250000X-0.250000X-0.475000X0.250000X-0.475000X0.250000X0.475000X-0.250000X0.475000X0*%
%TD*%
%TA.AperFunction,ViaPad*%
%ADD24C,0.600000*%
%TD*%
%TA.AperFunction,Conductor*%
%ADD25C,0.200000*%
%TD*%
G04 APERTURE END LIST*
D10*
%TO.P,J4,2,Pin_2_2*%
%TO.N,+5V*%
X145500000Y-75000000D03*
D11*
%TO.P,J4,1,Pin_1_1*%
%TO.N,GND*%
X143000000Y-75000000D03*
%TD*%
D12*
%TO.P,TP1,1,1_1*%
%TO.N,+5V*%
X152000000Y-87500000D03*
%TD*%
D13*
%TO.P,U1,1,1B_1*%
%TO.N,/1B*%
X142050000Y-91730000D03*
%TO.P,U1,2,1A_2*%
%TO.N,/1A*%
X142050000Y-93000000D03*
%TO.P,U1,3,1Y_3*%
%TO.N,/Y1*%
X142050000Y-94270000D03*
%TO.P,U1,4,G_4*%
%TO.N,/G*%
X142050000Y-95540000D03*
%TO.P,U1,5,2Y_5*%
%TO.N,/Y2*%
X142050000Y-96810000D03*
%TO.P,U1,6,2A_6*%
%TO.N,/2A*%
X142050000Y-98080000D03*
%TO.P,U1,7,2B_7*%
%TO.N,/2B*%
X142050000Y-99350000D03*
%TO.P,U1,8,GND_8*%
%TO.N,GND*%
X142050000Y-100620000D03*
%TO.P,U1,9,3B_9*%
%TO.N,/3B*%
X147000000Y-100620000D03*
%TO.P,U1,10,3A_10*%
%TO.N,/3A*%
X147000000Y-99350000D03*
%TO.P,U1,11,3Y_11*%
%TO.N,/Y3*%
X147000000Y-98080000D03*
%TO.P,U1,12,~{G}_12*%
%TO.N,/\u1E20*%
X147000000Y-96810000D03*
%TO.P,U1,13,4Y_13*%
%TO.N,/Y4*%
X147000000Y-95540000D03*
%TO.P,U1,14,4A_14*%
%TO.N,/4A*%
X147000000Y-94270000D03*
%TO.P,U1,15,4B_15*%
%TO.N,/4B*%
X147000000Y-93000000D03*
%TO.P,U1,16,VDD_16*%
%TO.N,+5V*%
X147000000Y-91730000D03*
%TD*%
D14*
%TO.P,D4,3,common_3*%
%TO.N,GND*%
X116437500Y-109000000D03*
%TO.P,D4,2,A2_2*%
%TO.N,/3B*%
X114562500Y-109950000D03*
%TO.P,D4,1,A1_1*%
%TO.N,/3A*%
X114562500Y-108050000D03*
%TD*%
%TO.P,D5,3,common_3*%
%TO.N,GND*%
X116375000Y-130950000D03*
%TO.P,D5,2,A2_2*%
%TO.N,/4B*%
X114500000Y-131900000D03*
%TO.P,D5,1,A1_1*%
%TO.N,/4A*%
X114500000Y-130000000D03*
%TD*%
%TO.P,D2,3,common_3*%
%TO.N,GND*%
X122000000Y-63000000D03*
%TO.P,D2,2,A2_2*%
%TO.N,/1B*%
X120125000Y-63950000D03*
%TO.P,D2,1,A1_1*%
%TO.N,/1A*%
X120125000Y-62050000D03*
%TD*%
D12*
%TO.P,TP2,1,1_1*%
%TO.N,GND*%
X185000000Y-80000000D03*
%TD*%
%TO.P,TP3,1,1_1*%
%TO.N,/Y1*%
X185000000Y-107000000D03*
%TD*%
%TO.P,TP6,1,1_1*%
%TO.N,/Y4*%
X185000000Y-87000000D03*
%TD*%
%TO.P,TP4,1,1_1*%
%TO.N,/Y2*%
X185000000Y-100750000D03*
%TD*%
%TO.P,TP5,1,1_1*%
%TO.N,/Y3*%
X185000000Y-94000000D03*
%TD*%
D15*
%TO.P,R7,1*%
%TO.N,/\u1E20*%
X100000000Y-100087500D03*
%TO.P,R7,2*%
%TO.N,GND*%
X100000000Y-101912500D03*
%TD*%
%TO.P,R6,1*%
%TO.N,+5V*%
X100000000Y-92587500D03*
%TO.P,R6,2*%
%TO.N,/G*%
X100000000Y-94412500D03*
%TD*%
D16*
%TO.P,R5,1*%
%TO.N,Net-(D1-A)*%
X148675000Y-66500000D03*
%TO.P,R5,2*%
%TO.N,+5V*%
X150500000Y-66500000D03*
%TD*%
%TO.P,R4,1*%
%TO.N,/4A*%
X82675000Y-125500000D03*
%TO.P,R4,2*%
%TO.N,Net-(JP4-A)*%
X84500000Y-125500000D03*
%TD*%
%TO.P,R3,1*%
%TO.N,/3A*%
X82175000Y-105000000D03*
%TO.P,R3,2*%
%TO.N,Net-(JP3-A)*%
X84000000Y-105000000D03*
%TD*%
%TO.P,R2,1*%
%TO.N,/2A*%
X83175000Y-83000000D03*
%TO.P,R2,2*%
%TO.N,Net-(JP2-A)*%
X85000000Y-83000000D03*
%TD*%
%TO.P,R1,1*%
%TO.N,/1A*%
X82625000Y-61000000D03*
%TO.P,R1,2*%
%TO.N,Net-(JP1-A)*%
X84450000Y-61000000D03*
%TD*%
D17*
%TO.P,JP4,1,A_1*%
%TO.N,Net-(JP4-A)*%
X86500000Y-133000000D03*
%TO.P,JP4,2,B_2*%
%TO.N,/4B*%
X87800000Y-133000000D03*
%TD*%
%TO.P,JP3,1,A_1*%
%TO.N,Net-(JP3-A)*%
X87200000Y-112000000D03*
%TO.P,JP3,2,B_2*%
%TO.N,/3B*%
X88500000Y-112000000D03*
%TD*%
%TO.P,JP2,1,A_1*%
%TO.N,Net-(JP2-A)*%
X87200000Y-90500000D03*
%TO.P,JP2,2,B_2*%
%TO.N,/2B*%
X88500000Y-90500000D03*
%TD*%
%TO.P,JP1,1,A_1*%
%TO.N,Net-(JP1-A)*%
X87150000Y-67500000D03*
%TO.P,JP1,2,B_2*%
%TO.N,/1B*%
X88450000Y-67500000D03*
%TD*%
D18*
%TO.P,J5,1,Pin_1_1*%
%TO.N,/G*%
X109500000Y-94460000D03*
D19*
%TO.P,J5,2,Pin_2_2*%
%TO.N,/\u1E20*%
X109500000Y-97000000D03*
%TO.P,J5,3,Pin_3_3*%
%TO.N,GND*%
X109500000Y-99540000D03*
%TD*%
D18*
%TO.P,J3,1,Pin_1_1*%
%TO.N,GND*%
X177500000Y-91460000D03*
D19*
%TO.P,J3,2,Pin_2_2*%
%TO.N,/Y4*%
X177500000Y-94000000D03*
%TO.P,J3,3,Pin_3_3*%
%TO.N,/Y3*%
X177500000Y-96540000D03*
%TO.P,J3,4,Pin_4_4*%
%TO.N,/Y2*%
X177500000Y-99080000D03*
%TO.P,J3,5,Pin_5_5*%
%TO.N,/Y1*%
X177500000Y-101620000D03*
%TD*%
D20*
%TO.P,J1,1,Pin_1_1*%
%TO.N,/2B*%
X104500000Y-80500000D03*
D21*
%TO.P,J1,2,Pin_2_2*%
%TO.N,/2A*%
X104500000Y-78000000D03*
%TO.P,J1,3,Pin_3_3*%
%TO.N,/1B*%
X104500000Y-75500000D03*
%TO.P,J1,4,Pin_4_4*%
%TO.N,/1A*%
X104500000Y-73000000D03*
%TD*%
D22*
%TO.P,D1,1,K_1*%
%TO.N,GND*%
X137200000Y-66500000D03*
%TO.P,D1,2,A_2*%
%TO.N,Net-(D1-A)*%
X140000000Y-66500000D03*
%TD*%
D23*
%TO.P,C5,1*%
%TO.N,Net-(JP4-A)*%
X89600000Y-125500000D03*
%TO.P,C5,2*%
%TO.N,/4B*%
X91500000Y-125500000D03*
%TD*%
%TO.P,C4,1*%
%TO.N,Net-(JP3-A)*%
X90600000Y-105000000D03*
%TO.P,C4,2*%
%TO.N,/3B*%
X92500000Y-105000000D03*
%TD*%
%TO.P,C3,1*%
%TO.N,Net-(JP2-A)*%
X90600000Y-83000000D03*
%TO.P,C3,2*%
%TO.N,/2B*%
X92500000Y-83000000D03*
%TD*%
%TO.P,C2,1*%
%TO.N,Net-(JP1-A)*%
X90050000Y-61000000D03*
%TO.P,C2,2*%
%TO.N,/1B*%
X91950000Y-61000000D03*
%TD*%
%TO.P,C1,1*%
%TO.N,GND*%
X143100000Y-86000000D03*
%TO.P,C1,2*%
%TO.N,+5V*%
X145000000Y-86000000D03*
%TD*%
D20*
%TO.P,J2,1,Pin_1_1*%
%TO.N,/4B*%
X105500000Y-122500000D03*
D21*
%TO.P,J2,2,Pin_2_2*%
%TO.N,/4A*%
X105500000Y-120000000D03*
%TO.P,J2,3,Pin_3_3*%
%TO.N,/3B*%
X105500000Y-117500000D03*
%TO.P,J2,4,Pin_4_4*%
%TO.N,/3A*%
X105500000Y-115000000D03*
%TD*%
D14*
%TO.P,D3,3,common_3*%
%TO.N,GND*%
X121875000Y-79450000D03*
%TO.P,D3,2,A2_2*%
%TO.N,/2B*%
X120000000Y-80400000D03*
%TO.P,D3,1,A1_1*%
%TO.N,/2A*%
X120000000Y-78500000D03*
%TD*%
D24*
%TO.N,/Y1*%
X180000000Y-103500000D03*
%TO.N,/Y2*%
X178450000Y-98500000D03*
X182500000Y-98500000D03*
%TO.N,/Y4*%
X178345735Y-93154265D03*
X180500000Y-91500000D03*
%TO.N,/2B*%
X113000000Y-80500000D03*
X106000000Y-80500000D03*
%TO.N,/2A*%
X106500000Y-78500000D03*
X111500000Y-78500000D03*
%TO.N,/1B*%
X106325735Y-75674265D03*
X109000000Y-72000000D03*
%TO.N,GND*%
X116500000Y-110000000D03*
X116500000Y-123100000D03*
%TO.N,/4A*%
X114500000Y-129000000D03*
X107500000Y-121900000D03*
%TO.N,/3B*%
X113000000Y-110000000D03*
X107500000Y-115600000D03*
%TO.N,+5V*%
X145961536Y-92233314D03*
%TO.N,GND*%
X143000000Y-101500000D03*
%TO.N,/\u1E20*%
X147675000Y-96500000D03*
%TO.N,/Y4*%
X144000000Y-99000000D03*
X151000000Y-101500000D03*
%TO.N,/Y3*%
X147675000Y-98550000D03*
%TO.N,/Y2*%
X142725000Y-97280000D03*
X150500000Y-97500000D03*
%TO.N,/Y1*%
X142725000Y-94740000D03*
X150500000Y-95000000D03*
%TO.N,/1B*%
X136500000Y-91900000D03*
X121000000Y-91900000D03*
%TO.N,/Y3*%
X180500000Y-96000000D03*
%TO.N,+5V*%
X115000000Y-92500000D03*
%TO.N,/\u1E20*%
X120000000Y-97000000D03*
%TO.N,/G*%
X140000000Y-95500000D03*
X117500000Y-94500000D03*
%TO.N,GND*%
X151000000Y-104000000D03*
%TO.N,/Y3*%
X178450000Y-96500000D03*
%TD*%
%TO.N,/1A*%
D25*
X104500000Y-73000000D02*
X124500000Y-93000000D01*
%TO.N,/Y1*%
X178050000Y-101070000D02*
X177500000Y-101620000D01*
X183500000Y-107000000D02*
X180000000Y-103500000D01*
X185000000Y-107000000D02*
X183500000Y-107000000D01*
%TO.N,/Y2*%
X178080000Y-98500000D02*
X177500000Y-99080000D01*
X182750000Y-98500000D02*
X182500000Y-98500000D01*
X178450000Y-98500000D02*
X178080000Y-98500000D01*
X185000000Y-100750000D02*
X182750000Y-98500000D01*
%TO.N,GND*%
X177500000Y-88000000D02*
X177500000Y-91460000D01*
X185000000Y-80500000D02*
X177500000Y-88000000D01*
X185000000Y-80000000D02*
X185000000Y-80500000D01*
%TO.N,/Y4*%
X178345735Y-93154265D02*
X177500000Y-94000000D01*
X185000000Y-87000000D02*
X180500000Y-91500000D01*
%TO.N,+5V*%
X151230000Y-87500000D02*
X152000000Y-87500000D01*
%TO.N,/Y1*%
X177120000Y-102000000D02*
X177500000Y-101620000D01*
%TO.N,/Y2*%
X177032730Y-99547270D02*
X177500000Y-99080000D01*
X185000000Y-100750000D02*
X184500000Y-101250000D01*
%TO.N,/2B*%
X106000000Y-80500000D02*
X104500000Y-80500000D01*
X113100000Y-80400000D02*
X113000000Y-80500000D01*
X120000000Y-80400000D02*
X113100000Y-80400000D01*
%TO.N,/2A*%
X106500000Y-78500000D02*
X105000000Y-78500000D01*
X105000000Y-78500000D02*
X104500000Y-78000000D01*
X120000000Y-78500000D02*
X111500000Y-78500000D01*
%TO.N,/1B*%
X104674265Y-75674265D02*
X104500000Y-75500000D01*
X106325735Y-75674265D02*
X104674265Y-75674265D01*
X117050000Y-63950000D02*
X109000000Y-72000000D01*
X120125000Y-63950000D02*
X117050000Y-63950000D01*
%TO.N,/1A*%
X115450000Y-62050000D02*
X104500000Y-73000000D01*
X120125000Y-62050000D02*
X115450000Y-62050000D01*
%TO.N,GND*%
X122000000Y-63000000D02*
X133700000Y-63000000D01*
X133700000Y-63000000D02*
X137200000Y-66500000D01*
X116437500Y-106477500D02*
X109500000Y-99540000D01*
X116437500Y-109000000D02*
X116437500Y-106477500D01*
X122000000Y-79325000D02*
X121875000Y-79450000D01*
X122000000Y-63000000D02*
X122000000Y-79325000D01*
X116500000Y-109062500D02*
X116437500Y-109000000D01*
X116500000Y-110000000D02*
X116500000Y-109062500D01*
X116375000Y-123225000D02*
X116500000Y-123100000D01*
X116375000Y-130950000D02*
X116375000Y-123225000D01*
%TO.N,/4A*%
X114500000Y-129000000D02*
X114500000Y-130000000D01*
X107400000Y-121900000D02*
X107500000Y-121900000D01*
X105500000Y-120000000D02*
X107400000Y-121900000D01*
%TO.N,/4B*%
X105500000Y-122900000D02*
X114500000Y-131900000D01*
X105500000Y-122500000D02*
X105500000Y-122900000D01*
%TO.N,/3B*%
X114512500Y-110000000D02*
X114562500Y-109950000D01*
X113000000Y-110000000D02*
X114512500Y-110000000D01*
X107400000Y-115600000D02*
X107500000Y-115600000D01*
X105500000Y-117500000D02*
X107400000Y-115600000D01*
%TO.N,/3A*%
X112950000Y-108050000D02*
X114562500Y-108050000D01*
X105500000Y-115000000D02*
X106000000Y-115000000D01*
X106000000Y-115000000D02*
X112950000Y-108050000D01*
%TO.N,+5V*%
X146496686Y-92233314D02*
X147000000Y-91730000D01*
X145961536Y-92233314D02*
X146496686Y-92233314D01*
%TO.N,GND*%
X142930000Y-101500000D02*
X142050000Y-100620000D01*
X143000000Y-101500000D02*
X142930000Y-101500000D01*
%TO.N,/\u1E20*%
X147310000Y-96500000D02*
X147000000Y-96810000D01*
X147675000Y-96500000D02*
X147310000Y-96500000D01*
%TO.N,/Y4*%
X144000000Y-97565001D02*
X146025001Y-95540000D01*
X146025001Y-95540000D02*
X147000000Y-95540000D01*
X144000000Y-99000000D02*
X144000000Y-97565001D01*
%TO.N,/Y3*%
X147675000Y-98550000D02*
X147470000Y-98550000D01*
X147470000Y-98550000D02*
X147000000Y-98080000D01*
X177540000Y-96500000D02*
X177500000Y-96540000D01*
%TO.N,/Y2*%
X142725000Y-97280000D02*
X142520000Y-97280000D01*
X155770000Y-102770000D02*
X150500000Y-97500000D01*
X178650000Y-102096346D02*
X177976346Y-102770000D01*
X177976346Y-102770000D02*
X155770000Y-102770000D01*
X177500000Y-99080000D02*
X178650000Y-100230000D01*
X178650000Y-100230000D02*
X178650000Y-102096346D01*
X142520000Y-97280000D02*
X142050000Y-96810000D01*
%TO.N,/Y1*%
X142520000Y-94740000D02*
X142050000Y-94270000D01*
X142725000Y-94740000D02*
X142520000Y-94740000D01*
X170875037Y-94995037D02*
X150504963Y-94995037D01*
X177500000Y-101620000D02*
X170875037Y-94995037D01*
X150504963Y-94995037D02*
X150500000Y-95000000D01*
%TO.N,+5V*%
X147000000Y-91730000D02*
X145000000Y-89730000D01*
X145000000Y-89730000D02*
X145000000Y-86000000D01*
%TO.N,/1A*%
X104500000Y-72040256D02*
X104500000Y-73000000D01*
X92434744Y-59975000D02*
X104500000Y-72040256D01*
X83650000Y-59975000D02*
X92434744Y-59975000D01*
X82625000Y-61000000D02*
X83650000Y-59975000D01*
%TO.N,Net-(JP1-A)*%
X84450000Y-64800000D02*
X87150000Y-67500000D01*
X84450000Y-61000000D02*
X84450000Y-64800000D01*
%TO.N,/1B*%
X91950000Y-64000000D02*
X88450000Y-67500000D01*
X91950000Y-61000000D02*
X91950000Y-64000000D01*
%TO.N,Net-(JP2-A)*%
X85000000Y-88300000D02*
X87200000Y-90500000D01*
X85000000Y-83000000D02*
X85000000Y-88300000D01*
%TO.N,/4A*%
X88175000Y-120000000D02*
X105500000Y-120000000D01*
X82675000Y-125500000D02*
X88175000Y-120000000D01*
%TO.N,/4B*%
X94500000Y-122500000D02*
X105500000Y-122500000D01*
X91500000Y-125500000D02*
X94500000Y-122500000D01*
%TO.N,/3B*%
X105000000Y-117500000D02*
X105500000Y-117500000D01*
X92500000Y-105000000D02*
X105000000Y-117500000D01*
%TO.N,/3A*%
X83200000Y-103975000D02*
X94475000Y-103975000D01*
X82175000Y-105000000D02*
X83200000Y-103975000D01*
X94475000Y-103975000D02*
X105500000Y-115000000D01*
%TO.N,/4B*%
X148675000Y-101126237D02*
X148675000Y-93700001D01*
X148675000Y-93700001D02*
X147974999Y-93000000D01*
X147974999Y-93000000D02*
X147000000Y-93000000D01*
X105500000Y-122500000D02*
X127301237Y-122500000D01*
X127301237Y-122500000D02*
X148675000Y-101126237D01*
%TO.N,/4A*%
X147345552Y-94270000D02*
X147000000Y-94270000D01*
X148275000Y-95199448D02*
X147345552Y-94270000D01*
X129235552Y-120000000D02*
X148275000Y-100960552D01*
X105500000Y-120000000D02*
X129235552Y-120000000D01*
X148275000Y-100960552D02*
X148275000Y-95199448D01*
%TO.N,/3B*%
X130120000Y-117500000D02*
X147000000Y-100620000D01*
X105500000Y-117500000D02*
X130120000Y-117500000D01*
%TO.N,/3A*%
X146650000Y-99350000D02*
X147000000Y-99350000D01*
X131000000Y-115000000D02*
X146650000Y-99350000D01*
X105500000Y-115000000D02*
X131000000Y-115000000D01*
%TO.N,/1B*%
X136670000Y-91730000D02*
X142050000Y-91730000D01*
X136500000Y-91900000D02*
X136670000Y-91730000D01*
X120900000Y-91900000D02*
X121000000Y-91900000D01*
X104500000Y-75500000D02*
X120900000Y-91900000D01*
%TO.N,/3A*%
X146850000Y-99500000D02*
X147000000Y-99350000D01*
%TO.N,/2B*%
X123350000Y-99350000D02*
X142050000Y-99350000D01*
X104500000Y-80500000D02*
X123350000Y-99350000D01*
%TO.N,/2A*%
X124580000Y-98080000D02*
X142050000Y-98080000D01*
X104500000Y-78000000D02*
X124580000Y-98080000D01*
%TO.N,/1A*%
X124500000Y-93000000D02*
X142050000Y-93000000D01*
%TO.N,/Y3*%
X183000000Y-96000000D02*
X180500000Y-96000000D01*
X185000000Y-94000000D02*
X183000000Y-96000000D01*
%TO.N,/3B*%
X88500000Y-112550000D02*
X88500000Y-112000000D01*
%TO.N,/4B*%
X91500000Y-129300000D02*
X87800000Y-133000000D01*
X91500000Y-125500000D02*
X91500000Y-129300000D01*
%TO.N,Net-(JP4-A)*%
X84500000Y-125500000D02*
X84500000Y-131000000D01*
X84500000Y-131000000D02*
X86500000Y-133000000D01*
%TO.N,/3B*%
X92500000Y-105000000D02*
X92500000Y-108000000D01*
X92500000Y-108000000D02*
X88500000Y-112000000D01*
%TO.N,Net-(JP3-A)*%
X84000000Y-108800000D02*
X87200000Y-112000000D01*
X84000000Y-105000000D02*
X84000000Y-108800000D01*
%TO.N,/2B*%
X95500000Y-80500000D02*
X104500000Y-80500000D01*
X93000000Y-83000000D02*
X95500000Y-80500000D01*
X92500000Y-83000000D02*
X93000000Y-83000000D01*
%TO.N,/2A*%
X83175000Y-83000000D02*
X88175000Y-78000000D01*
X88175000Y-78000000D02*
X104500000Y-78000000D01*
%TO.N,/2B*%
X92500000Y-86500000D02*
X88500000Y-90500000D01*
X92500000Y-83000000D02*
X92500000Y-86500000D01*
%TO.N,/1B*%
X96500000Y-67500000D02*
X104500000Y-75500000D01*
X88450000Y-67500000D02*
X96500000Y-67500000D01*
%TO.N,Net-(JP4-A)*%
X84500000Y-125500000D02*
X89600000Y-125500000D01*
%TO.N,Net-(JP3-A)*%
X84000000Y-105000000D02*
X90600000Y-105000000D01*
%TO.N,Net-(JP2-A)*%
X85000000Y-83000000D02*
X90600000Y-83000000D01*
%TO.N,Net-(JP1-A)*%
X84450000Y-61000000D02*
X90050000Y-61000000D01*
%TO.N,+5V*%
X114912500Y-92587500D02*
X115000000Y-92500000D01*
X100000000Y-92587500D02*
X114912500Y-92587500D01*
%TO.N,/G*%
X109452500Y-94412500D02*
X109500000Y-94460000D01*
X100000000Y-94412500D02*
X109452500Y-94412500D01*
%TO.N,GND*%
X107127500Y-101912500D02*
X109500000Y-99540000D01*
X100000000Y-101912500D02*
X107127500Y-101912500D01*
%TO.N,/\u1E20*%
X106412500Y-100087500D02*
X109500000Y-97000000D01*
X100000000Y-100087500D02*
X106412500Y-100087500D01*
%TO.N,Net-(D1-A)*%
X140000000Y-66500000D02*
X148675000Y-66500000D01*
%TO.N,+5V*%
X150500000Y-70000000D02*
X145500000Y-75000000D01*
X150500000Y-66500000D02*
X150500000Y-70000000D01*
%TO.N,GND*%
X137200000Y-69200000D02*
X143000000Y-75000000D01*
X137200000Y-66500000D02*
X137200000Y-69200000D01*
X110580000Y-100620000D02*
X142050000Y-100620000D01*
X109500000Y-99540000D02*
X110580000Y-100620000D01*
%TO.N,/\u1E20*%
X109500000Y-97000000D02*
X120000000Y-97000000D01*
%TO.N,/G*%
X140040000Y-95540000D02*
X142050000Y-95540000D01*
X140000000Y-95500000D02*
X140040000Y-95540000D01*
X117460000Y-94460000D02*
X117500000Y-94500000D01*
X109500000Y-94460000D02*
X117460000Y-94460000D01*
%TO.N,GND*%
X177877718Y-104000000D02*
X151000000Y-104000000D01*
X179450000Y-102427718D02*
X177877718Y-104000000D01*
X179450000Y-93410000D02*
X179450000Y-102427718D01*
X177500000Y-91460000D02*
X179450000Y-93410000D01*
%TO.N,/Y4*%
X152670000Y-103170000D02*
X151000000Y-101500000D01*
X178142031Y-103170000D02*
X152670000Y-103170000D01*
X179050000Y-102262032D02*
X178142031Y-103170000D01*
X179050000Y-95550000D02*
X179050000Y-102262032D01*
X177500000Y-94000000D02*
X179050000Y-95550000D01*
%TO.N,GND*%
X143024999Y-100620000D02*
X142050000Y-100620000D01*
X143325000Y-100319999D02*
X143024999Y-100620000D01*
X143325000Y-86225000D02*
X143325000Y-100319999D01*
X143100000Y-86000000D02*
X143325000Y-86225000D01*
%TO.N,+5V*%
X145500000Y-85500000D02*
X145000000Y-86000000D01*
X145500000Y-75000000D02*
X145500000Y-85500000D01*
%TO.N,GND*%
X143100000Y-75100000D02*
X143000000Y-75000000D01*
X143100000Y-86000000D02*
X143100000Y-75100000D01*
%TO.N,+5V*%
X147000000Y-91730000D02*
X151230000Y-87500000D01*
%TO.N,/Y3*%
X178450000Y-96500000D02*
X177540000Y-96500000D01*
%TD*%
M02*
