%TF.GenerationSoftware,KiCad,Pcbnew,10.0.4*%
%TF.CreationDate,2026-08-26T16:03:07-04:00*%
%TF.ProjectId,RS-422 Quad Receiver AM26C32,52532d34-3232-4205-9175-616420526563,rev?*%
%TF.SameCoordinates,Original*%
%TF.FileFunction,Soldermask,Top*%
%TF.FilePolarity,Negative*%
%FSLAX46Y46*%
G04 Gerber Fmt 4.6, Leading zero omitted, Abs format (unit mm)*
G04 Created by KiCad (PCBNEW 10.0.4) date 2026-08-26 16:03:07*
%MOMM*%
%LPD*%
G01*
G04 APERTURE LIST*
G04 Aperture macros list*
%AMRoundRect*
0 Rectangle with rounded corners*
0 $1 Rounding radius*
0 $2 $3 $4 $5 $6 $7 $8 $9 X,Y pos of 4 corners*
0 Add a 4 corners polygon primitive as box body*
4,1,4,$2,$3,$4,$5,$6,$7,$8,$9,$2,$3,0*
0 Add four circle primitives for the rounded corners*
1,1,$1+$1,$2,$3*
1,1,$1+$1,$4,$5*
1,1,$1+$1,$6,$7*
1,1,$1+$1,$8,$9*
0 Add four rect primitives between the rounded corners*
20,1,$1+$1,$2,$3,$4,$5,0*
20,1,$1+$1,$4,$5,$6,$7,0*
20,1,$1+$1,$6,$7,$8,$9,0*
20,1,$1+$1,$8,$9,$2,$3,0*%
G04 Aperture macros list end*
%ADD10O,1.700000X2.000000*%
%ADD11RoundRect,0.250000X-0.600000X-0.750000X0.600000X-0.750000X0.600000X0.750000X-0.600000X0.750000X0*%
%ADD12C,2.000000*%
%ADD13C,4.300000*%
%ADD14RoundRect,0.150000X-0.825000X-0.150000X0.825000X-0.150000X0.825000X0.150000X-0.825000X0.150000X0*%
%ADD15RoundRect,0.150000X-0.587500X-0.150000X0.587500X-0.150000X0.587500X0.150000X-0.587500X0.150000X0*%
%ADD16RoundRect,0.250000X-0.450000X0.262500X-0.450000X-0.262500X0.450000X-0.262500X0.450000X0.262500X0*%
%ADD17RoundRect,0.250000X-0.262500X-0.450000X0.262500X-0.450000X0.262500X0.450000X-0.262500X0.450000X0*%
%ADD18R,1.000000X1.500000*%
%ADD19R,1.700000X1.700000*%
%ADD20C,1.700000*%
%ADD21RoundRect,0.250000X0.725000X-0.600000X0.725000X0.600000X-0.725000X0.600000X-0.725000X-0.600000X0*%
%ADD22O,1.950000X1.700000*%
%ADD23RoundRect,0.250000X-0.375000X-0.625000X0.375000X-0.625000X0.375000X0.625000X-0.375000X0.625000X0*%
%ADD24RoundRect,0.250000X-0.250000X-0.475000X0.250000X-0.475000X0.250000X0.475000X-0.250000X0.475000X0*%
G04 APERTURE END LIST*
%TO.C,JP4*%
G36*
X87000000Y-132250000D02*
G01*
X87300000Y-132250000D01*
X87300000Y-133750000D01*
X87000000Y-133750000D01*
X87000000Y-132250000D01*
G37*
%TO.C,JP3*%
G36*
X87700000Y-111250000D02*
G01*
X88000000Y-111250000D01*
X88000000Y-112750000D01*
X87700000Y-112750000D01*
X87700000Y-111250000D01*
G37*
%TO.C,JP2*%
G36*
X87700000Y-89750000D02*
G01*
X88000000Y-89750000D01*
X88000000Y-91250000D01*
X87700000Y-91250000D01*
X87700000Y-89750000D01*
G37*
%TO.C,JP1*%
G36*
X87650000Y-66750000D02*
G01*
X87950000Y-66750000D01*
X87950000Y-68250000D01*
X87650000Y-68250000D01*
X87650000Y-66750000D01*
G37*
%TD*%
D10*
%TO.C,J4*%
X145500000Y-75000000D03*
D11*
X143000000Y-75000000D03*
%TD*%
D12*
%TO.C,TP1*%
X152000000Y-87500000D03*
%TD*%
D13*
%TO.C,H1*%
X71000000Y-52000000D03*
%TD*%
D14*
%TO.C,U1*%
X142050000Y-91730000D03*
X142050000Y-93000000D03*
X142050000Y-94270000D03*
X142050000Y-95540000D03*
X142050000Y-96810000D03*
X142050000Y-98080000D03*
X142050000Y-99350000D03*
X142050000Y-100620000D03*
X147000000Y-100620000D03*
X147000000Y-99350000D03*
X147000000Y-98080000D03*
X147000000Y-96810000D03*
X147000000Y-95540000D03*
X147000000Y-94270000D03*
X147000000Y-93000000D03*
X147000000Y-91730000D03*
%TD*%
D15*
%TO.C,D4*%
X116437500Y-109000000D03*
X114562500Y-109950000D03*
X114562500Y-108050000D03*
%TD*%
%TO.C,D5*%
X116375000Y-130950000D03*
X114500000Y-131900000D03*
X114500000Y-130000000D03*
%TD*%
%TO.C,D2*%
X122000000Y-63000000D03*
X120125000Y-63950000D03*
X120125000Y-62050000D03*
%TD*%
D13*
%TO.C,H2*%
X197000000Y-52000000D03*
%TD*%
%TO.C,H4*%
X197000000Y-145000000D03*
%TD*%
%TO.C,H3*%
X71000000Y-145000000D03*
%TD*%
D12*
%TO.C,TP2*%
X185000000Y-80000000D03*
%TD*%
%TO.C,TP3*%
X185000000Y-107000000D03*
%TD*%
%TO.C,TP6*%
X185000000Y-87000000D03*
%TD*%
%TO.C,TP4*%
X185000000Y-100750000D03*
%TD*%
%TO.C,TP5*%
X185000000Y-94000000D03*
%TD*%
D16*
%TO.C,R7*%
X100000000Y-100087500D03*
X100000000Y-101912500D03*
%TD*%
%TO.C,R6*%
X100000000Y-92587500D03*
X100000000Y-94412500D03*
%TD*%
D17*
%TO.C,R5*%
X148675000Y-66500000D03*
X150500000Y-66500000D03*
%TD*%
%TO.C,R4*%
X82675000Y-125500000D03*
X84500000Y-125500000D03*
%TD*%
%TO.C,R3*%
X82175000Y-105000000D03*
X84000000Y-105000000D03*
%TD*%
%TO.C,R2*%
X83175000Y-83000000D03*
X85000000Y-83000000D03*
%TD*%
%TO.C,R1*%
X82625000Y-61000000D03*
X84450000Y-61000000D03*
%TD*%
D18*
%TO.C,JP4*%
X86500000Y-133000000D03*
X87800000Y-133000000D03*
%TD*%
%TO.C,JP3*%
X87200000Y-112000000D03*
X88500000Y-112000000D03*
%TD*%
%TO.C,JP2*%
X87200000Y-90500000D03*
X88500000Y-90500000D03*
%TD*%
%TO.C,JP1*%
X87150000Y-67500000D03*
X88450000Y-67500000D03*
%TD*%
D19*
%TO.C,J5*%
X109500000Y-94460000D03*
D20*
X109500000Y-97000000D03*
X109500000Y-99540000D03*
%TD*%
D19*
%TO.C,J3*%
X177500000Y-91460000D03*
D20*
X177500000Y-94000000D03*
X177500000Y-96540000D03*
X177500000Y-99080000D03*
X177500000Y-101620000D03*
%TD*%
D21*
%TO.C,J1*%
X104500000Y-80500000D03*
D22*
X104500000Y-78000000D03*
X104500000Y-75500000D03*
X104500000Y-73000000D03*
%TD*%
D23*
%TO.C,D1*%
X137200000Y-66500000D03*
X140000000Y-66500000D03*
%TD*%
D24*
%TO.C,C5*%
X89600000Y-125500000D03*
X91500000Y-125500000D03*
%TD*%
%TO.C,C4*%
X90600000Y-105000000D03*
X92500000Y-105000000D03*
%TD*%
%TO.C,C3*%
X90600000Y-83000000D03*
X92500000Y-83000000D03*
%TD*%
%TO.C,C2*%
X90050000Y-61000000D03*
X91950000Y-61000000D03*
%TD*%
%TO.C,C1*%
X143100000Y-86000000D03*
X145000000Y-86000000D03*
%TD*%
D21*
%TO.C,J2*%
X105500000Y-122500000D03*
D22*
X105500000Y-120000000D03*
X105500000Y-117500000D03*
X105500000Y-115000000D03*
%TD*%
D15*
%TO.C,D3*%
X121875000Y-79450000D03*
X120000000Y-80400000D03*
X120000000Y-78500000D03*
%TD*%
M02*
