%TF.GenerationSoftware,KiCad,Pcbnew,10.0.4*%
%TF.CreationDate,2026-08-26T16:03:07-04:00*%
%TF.ProjectId,RS-422 Quad Receiver AM26C32,52532d34-3232-4205-9175-616420526563,rev?*%
%TF.SameCoordinates,Original*%
%TF.FileFunction,Legend,Top*%
%TF.FilePolarity,Positive*%
%FSLAX46Y46*%
G04 Gerber Fmt 4.6, Leading zero omitted, Abs format (unit mm)*
G04 Created by KiCad (PCBNEW 10.0.4) date 2026-08-26 16:03:07*
%MOMM*%
%LPD*%
G01*
G04 APERTURE LIST*
%ADD10C,0.150000*%
%ADD11C,0.120000*%
G04 APERTURE END LIST*
D10*
X82908207Y-47369819D02*
X82574874Y-46893628D01*
X82336779Y-47369819D02*
X82336779Y-46369819D01*
X82336779Y-46369819D02*
X82717731Y-46369819D01*
X82717731Y-46369819D02*
X82812969Y-46417438D01*
X82812969Y-46417438D02*
X82860588Y-46465057D01*
X82860588Y-46465057D02*
X82908207Y-46560295D01*
X82908207Y-46560295D02*
X82908207Y-46703152D01*
X82908207Y-46703152D02*
X82860588Y-46798390D01*
X82860588Y-46798390D02*
X82812969Y-46846009D01*
X82812969Y-46846009D02*
X82717731Y-46893628D01*
X82717731Y-46893628D02*
X82336779Y-46893628D01*
X83336779Y-46846009D02*
X83670112Y-46846009D01*
X83812969Y-47369819D02*
X83336779Y-47369819D01*
X83336779Y-47369819D02*
X83336779Y-46369819D01*
X83336779Y-46369819D02*
X83812969Y-46369819D01*
X84098684Y-46369819D02*
X84432017Y-47369819D01*
X84432017Y-47369819D02*
X84765350Y-46369819D01*
X85812970Y-47084104D02*
X86289160Y-47084104D01*
X85717732Y-47369819D02*
X86051065Y-46369819D01*
X86051065Y-46369819D02*
X86384398Y-47369819D01*
X82765350Y-44203152D02*
X82765350Y-44869819D01*
X82527255Y-43822200D02*
X82289160Y-44536485D01*
X82289160Y-44536485D02*
X82908207Y-44536485D01*
X84622493Y-44774580D02*
X84574874Y-44822200D01*
X84574874Y-44822200D02*
X84432017Y-44869819D01*
X84432017Y-44869819D02*
X84336779Y-44869819D01*
X84336779Y-44869819D02*
X84193922Y-44822200D01*
X84193922Y-44822200D02*
X84098684Y-44726961D01*
X84098684Y-44726961D02*
X84051065Y-44631723D01*
X84051065Y-44631723D02*
X84003446Y-44441247D01*
X84003446Y-44441247D02*
X84003446Y-44298390D01*
X84003446Y-44298390D02*
X84051065Y-44107914D01*
X84051065Y-44107914D02*
X84098684Y-44012676D01*
X84098684Y-44012676D02*
X84193922Y-43917438D01*
X84193922Y-43917438D02*
X84336779Y-43869819D01*
X84336779Y-43869819D02*
X84432017Y-43869819D01*
X84432017Y-43869819D02*
X84574874Y-43917438D01*
X84574874Y-43917438D02*
X84622493Y-43965057D01*
X85051065Y-44869819D02*
X85051065Y-43869819D01*
X85051065Y-44346009D02*
X85622493Y-44346009D01*
X85622493Y-44869819D02*
X85622493Y-43869819D01*
X86051065Y-44584104D02*
X86527255Y-44584104D01*
X85955827Y-44869819D02*
X86289160Y-43869819D01*
X86289160Y-43869819D02*
X86622493Y-44869819D01*
X86955827Y-44869819D02*
X86955827Y-43869819D01*
X86955827Y-43869819D02*
X87527255Y-44869819D01*
X87527255Y-44869819D02*
X87527255Y-43869819D01*
X88003446Y-44869819D02*
X88003446Y-43869819D01*
X88003446Y-43869819D02*
X88574874Y-44869819D01*
X88574874Y-44869819D02*
X88574874Y-43869819D01*
X89051065Y-44346009D02*
X89384398Y-44346009D01*
X89527255Y-44869819D02*
X89051065Y-44869819D01*
X89051065Y-44869819D02*
X89051065Y-43869819D01*
X89051065Y-43869819D02*
X89527255Y-43869819D01*
X90432017Y-44869819D02*
X89955827Y-44869819D01*
X89955827Y-44869819D02*
X89955827Y-43869819D01*
X92098684Y-44869819D02*
X91765351Y-44393628D01*
X91527256Y-44869819D02*
X91527256Y-43869819D01*
X91527256Y-43869819D02*
X91908208Y-43869819D01*
X91908208Y-43869819D02*
X92003446Y-43917438D01*
X92003446Y-43917438D02*
X92051065Y-43965057D01*
X92051065Y-43965057D02*
X92098684Y-44060295D01*
X92098684Y-44060295D02*
X92098684Y-44203152D01*
X92098684Y-44203152D02*
X92051065Y-44298390D01*
X92051065Y-44298390D02*
X92003446Y-44346009D01*
X92003446Y-44346009D02*
X91908208Y-44393628D01*
X91908208Y-44393628D02*
X91527256Y-44393628D01*
X92479637Y-44822200D02*
X92622494Y-44869819D01*
X92622494Y-44869819D02*
X92860589Y-44869819D01*
X92860589Y-44869819D02*
X92955827Y-44822200D01*
X92955827Y-44822200D02*
X93003446Y-44774580D01*
X93003446Y-44774580D02*
X93051065Y-44679342D01*
X93051065Y-44679342D02*
X93051065Y-44584104D01*
X93051065Y-44584104D02*
X93003446Y-44488866D01*
X93003446Y-44488866D02*
X92955827Y-44441247D01*
X92955827Y-44441247D02*
X92860589Y-44393628D01*
X92860589Y-44393628D02*
X92670113Y-44346009D01*
X92670113Y-44346009D02*
X92574875Y-44298390D01*
X92574875Y-44298390D02*
X92527256Y-44250771D01*
X92527256Y-44250771D02*
X92479637Y-44155533D01*
X92479637Y-44155533D02*
X92479637Y-44060295D01*
X92479637Y-44060295D02*
X92527256Y-43965057D01*
X92527256Y-43965057D02*
X92574875Y-43917438D01*
X92574875Y-43917438D02*
X92670113Y-43869819D01*
X92670113Y-43869819D02*
X92908208Y-43869819D01*
X92908208Y-43869819D02*
X93051065Y-43917438D01*
X93479637Y-44488866D02*
X94241542Y-44488866D01*
X95146303Y-44203152D02*
X95146303Y-44869819D01*
X94908208Y-43822200D02*
X94670113Y-44536485D01*
X94670113Y-44536485D02*
X95289160Y-44536485D01*
X95622494Y-43965057D02*
X95670113Y-43917438D01*
X95670113Y-43917438D02*
X95765351Y-43869819D01*
X95765351Y-43869819D02*
X96003446Y-43869819D01*
X96003446Y-43869819D02*
X96098684Y-43917438D01*
X96098684Y-43917438D02*
X96146303Y-43965057D01*
X96146303Y-43965057D02*
X96193922Y-44060295D01*
X96193922Y-44060295D02*
X96193922Y-44155533D01*
X96193922Y-44155533D02*
X96146303Y-44298390D01*
X96146303Y-44298390D02*
X95574875Y-44869819D01*
X95574875Y-44869819D02*
X96193922Y-44869819D01*
X96574875Y-43965057D02*
X96622494Y-43917438D01*
X96622494Y-43917438D02*
X96717732Y-43869819D01*
X96717732Y-43869819D02*
X96955827Y-43869819D01*
X96955827Y-43869819D02*
X97051065Y-43917438D01*
X97051065Y-43917438D02*
X97098684Y-43965057D01*
X97098684Y-43965057D02*
X97146303Y-44060295D01*
X97146303Y-44060295D02*
X97146303Y-44155533D01*
X97146303Y-44155533D02*
X97098684Y-44298390D01*
X97098684Y-44298390D02*
X96527256Y-44869819D01*
X96527256Y-44869819D02*
X97146303Y-44869819D01*
X98908208Y-44869819D02*
X98574875Y-44393628D01*
X98336780Y-44869819D02*
X98336780Y-43869819D01*
X98336780Y-43869819D02*
X98717732Y-43869819D01*
X98717732Y-43869819D02*
X98812970Y-43917438D01*
X98812970Y-43917438D02*
X98860589Y-43965057D01*
X98860589Y-43965057D02*
X98908208Y-44060295D01*
X98908208Y-44060295D02*
X98908208Y-44203152D01*
X98908208Y-44203152D02*
X98860589Y-44298390D01*
X98860589Y-44298390D02*
X98812970Y-44346009D01*
X98812970Y-44346009D02*
X98717732Y-44393628D01*
X98717732Y-44393628D02*
X98336780Y-44393628D01*
X99336780Y-44346009D02*
X99670113Y-44346009D01*
X99812970Y-44869819D02*
X99336780Y-44869819D01*
X99336780Y-44869819D02*
X99336780Y-43869819D01*
X99336780Y-43869819D02*
X99812970Y-43869819D01*
X100812970Y-44774580D02*
X100765351Y-44822200D01*
X100765351Y-44822200D02*
X100622494Y-44869819D01*
X100622494Y-44869819D02*
X100527256Y-44869819D01*
X100527256Y-44869819D02*
X100384399Y-44822200D01*
X100384399Y-44822200D02*
X100289161Y-44726961D01*
X100289161Y-44726961D02*
X100241542Y-44631723D01*
X100241542Y-44631723D02*
X100193923Y-44441247D01*
X100193923Y-44441247D02*
X100193923Y-44298390D01*
X100193923Y-44298390D02*
X100241542Y-44107914D01*
X100241542Y-44107914D02*
X100289161Y-44012676D01*
X100289161Y-44012676D02*
X100384399Y-43917438D01*
X100384399Y-43917438D02*
X100527256Y-43869819D01*
X100527256Y-43869819D02*
X100622494Y-43869819D01*
X100622494Y-43869819D02*
X100765351Y-43917438D01*
X100765351Y-43917438D02*
X100812970Y-43965057D01*
X101241542Y-44346009D02*
X101574875Y-44346009D01*
X101717732Y-44869819D02*
X101241542Y-44869819D01*
X101241542Y-44869819D02*
X101241542Y-43869819D01*
X101241542Y-43869819D02*
X101717732Y-43869819D01*
X102146304Y-44869819D02*
X102146304Y-43869819D01*
X102479637Y-43869819D02*
X102812970Y-44869819D01*
X102812970Y-44869819D02*
X103146303Y-43869819D01*
X103479637Y-44346009D02*
X103812970Y-44346009D01*
X103955827Y-44869819D02*
X103479637Y-44869819D01*
X103479637Y-44869819D02*
X103479637Y-43869819D01*
X103479637Y-43869819D02*
X103955827Y-43869819D01*
X104955827Y-44869819D02*
X104622494Y-44393628D01*
X104384399Y-44869819D02*
X104384399Y-43869819D01*
X104384399Y-43869819D02*
X104765351Y-43869819D01*
X104765351Y-43869819D02*
X104860589Y-43917438D01*
X104860589Y-43917438D02*
X104908208Y-43965057D01*
X104908208Y-43965057D02*
X104955827Y-44060295D01*
X104955827Y-44060295D02*
X104955827Y-44203152D01*
X104955827Y-44203152D02*
X104908208Y-44298390D01*
X104908208Y-44298390D02*
X104860589Y-44346009D01*
X104860589Y-44346009D02*
X104765351Y-44393628D01*
X104765351Y-44393628D02*
X104384399Y-44393628D01*
X143916666Y-70904819D02*
X143916666Y-71619104D01*
X143916666Y-71619104D02*
X143869047Y-71761961D01*
X143869047Y-71761961D02*
X143773809Y-71857200D01*
X143773809Y-71857200D02*
X143630952Y-71904819D01*
X143630952Y-71904819D02*
X143535714Y-71904819D01*
X144821428Y-71238152D02*
X144821428Y-71904819D01*
X144583333Y-70857200D02*
X144345238Y-71571485D01*
X144345238Y-71571485D02*
X144964285Y-71571485D01*
X146738095Y-79454819D02*
X146261905Y-79454819D01*
X146261905Y-79454819D02*
X146214286Y-79931009D01*
X146214286Y-79931009D02*
X146261905Y-79883390D01*
X146261905Y-79883390D02*
X146357143Y-79835771D01*
X146357143Y-79835771D02*
X146595238Y-79835771D01*
X146595238Y-79835771D02*
X146690476Y-79883390D01*
X146690476Y-79883390D02*
X146738095Y-79931009D01*
X146738095Y-79931009D02*
X146785714Y-80026247D01*
X146785714Y-80026247D02*
X146785714Y-80264342D01*
X146785714Y-80264342D02*
X146738095Y-80359580D01*
X146738095Y-80359580D02*
X146690476Y-80407200D01*
X146690476Y-80407200D02*
X146595238Y-80454819D01*
X146595238Y-80454819D02*
X146357143Y-80454819D01*
X146357143Y-80454819D02*
X146261905Y-80407200D01*
X146261905Y-80407200D02*
X146214286Y-80359580D01*
X147071429Y-79454819D02*
X147404762Y-80454819D01*
X147404762Y-80454819D02*
X147738095Y-79454819D01*
X148833334Y-80454819D02*
X148833334Y-79454819D01*
X148833334Y-79454819D02*
X149214286Y-79454819D01*
X149214286Y-79454819D02*
X149309524Y-79502438D01*
X149309524Y-79502438D02*
X149357143Y-79550057D01*
X149357143Y-79550057D02*
X149404762Y-79645295D01*
X149404762Y-79645295D02*
X149404762Y-79788152D01*
X149404762Y-79788152D02*
X149357143Y-79883390D01*
X149357143Y-79883390D02*
X149309524Y-79931009D01*
X149309524Y-79931009D02*
X149214286Y-79978628D01*
X149214286Y-79978628D02*
X148833334Y-79978628D01*
X150023810Y-79454819D02*
X150214286Y-79454819D01*
X150214286Y-79454819D02*
X150309524Y-79502438D01*
X150309524Y-79502438D02*
X150404762Y-79597676D01*
X150404762Y-79597676D02*
X150452381Y-79788152D01*
X150452381Y-79788152D02*
X150452381Y-80121485D01*
X150452381Y-80121485D02*
X150404762Y-80311961D01*
X150404762Y-80311961D02*
X150309524Y-80407200D01*
X150309524Y-80407200D02*
X150214286Y-80454819D01*
X150214286Y-80454819D02*
X150023810Y-80454819D01*
X150023810Y-80454819D02*
X149928572Y-80407200D01*
X149928572Y-80407200D02*
X149833334Y-80311961D01*
X149833334Y-80311961D02*
X149785715Y-80121485D01*
X149785715Y-80121485D02*
X149785715Y-79788152D01*
X149785715Y-79788152D02*
X149833334Y-79597676D01*
X149833334Y-79597676D02*
X149928572Y-79502438D01*
X149928572Y-79502438D02*
X150023810Y-79454819D01*
X150785715Y-79454819D02*
X151023810Y-80454819D01*
X151023810Y-80454819D02*
X151214286Y-79740533D01*
X151214286Y-79740533D02*
X151404762Y-80454819D01*
X151404762Y-80454819D02*
X151642858Y-79454819D01*
X152023810Y-79931009D02*
X152357143Y-79931009D01*
X152500000Y-80454819D02*
X152023810Y-80454819D01*
X152023810Y-80454819D02*
X152023810Y-79454819D01*
X152023810Y-79454819D02*
X152500000Y-79454819D01*
X153500000Y-80454819D02*
X153166667Y-79978628D01*
X152928572Y-80454819D02*
X152928572Y-79454819D01*
X152928572Y-79454819D02*
X153309524Y-79454819D01*
X153309524Y-79454819D02*
X153404762Y-79502438D01*
X153404762Y-79502438D02*
X153452381Y-79550057D01*
X153452381Y-79550057D02*
X153500000Y-79645295D01*
X153500000Y-79645295D02*
X153500000Y-79788152D01*
X153500000Y-79788152D02*
X153452381Y-79883390D01*
X153452381Y-79883390D02*
X153404762Y-79931009D01*
X153404762Y-79931009D02*
X153309524Y-79978628D01*
X153309524Y-79978628D02*
X152928572Y-79978628D01*
X154690477Y-80454819D02*
X154690477Y-79454819D01*
X155166667Y-80454819D02*
X155166667Y-79454819D01*
X155166667Y-79454819D02*
X155738095Y-80454819D01*
X155738095Y-80454819D02*
X155738095Y-79454819D01*
X150738095Y-84956819D02*
X151309523Y-84956819D01*
X151023809Y-85956819D02*
X151023809Y-84956819D01*
X151642857Y-85956819D02*
X151642857Y-84956819D01*
X151642857Y-84956819D02*
X152023809Y-84956819D01*
X152023809Y-84956819D02*
X152119047Y-85004438D01*
X152119047Y-85004438D02*
X152166666Y-85052057D01*
X152166666Y-85052057D02*
X152214285Y-85147295D01*
X152214285Y-85147295D02*
X152214285Y-85290152D01*
X152214285Y-85290152D02*
X152166666Y-85385390D01*
X152166666Y-85385390D02*
X152119047Y-85433009D01*
X152119047Y-85433009D02*
X152023809Y-85480628D01*
X152023809Y-85480628D02*
X151642857Y-85480628D01*
X153166666Y-85956819D02*
X152595238Y-85956819D01*
X152880952Y-85956819D02*
X152880952Y-84956819D01*
X152880952Y-84956819D02*
X152785714Y-85099676D01*
X152785714Y-85099676D02*
X152690476Y-85194914D01*
X152690476Y-85194914D02*
X152595238Y-85242533D01*
X151809523Y-89454819D02*
X151333333Y-89454819D01*
X151333333Y-89454819D02*
X151285714Y-89931009D01*
X151285714Y-89931009D02*
X151333333Y-89883390D01*
X151333333Y-89883390D02*
X151428571Y-89835771D01*
X151428571Y-89835771D02*
X151666666Y-89835771D01*
X151666666Y-89835771D02*
X151761904Y-89883390D01*
X151761904Y-89883390D02*
X151809523Y-89931009D01*
X151809523Y-89931009D02*
X151857142Y-90026247D01*
X151857142Y-90026247D02*
X151857142Y-90264342D01*
X151857142Y-90264342D02*
X151809523Y-90359580D01*
X151809523Y-90359580D02*
X151761904Y-90407200D01*
X151761904Y-90407200D02*
X151666666Y-90454819D01*
X151666666Y-90454819D02*
X151428571Y-90454819D01*
X151428571Y-90454819D02*
X151333333Y-90407200D01*
X151333333Y-90407200D02*
X151285714Y-90359580D01*
X152142857Y-89454819D02*
X152476190Y-90454819D01*
X152476190Y-90454819D02*
X152809523Y-89454819D01*
X70238095Y-47204819D02*
X70238095Y-46204819D01*
X70238095Y-46681009D02*
X70809523Y-46681009D01*
X70809523Y-47204819D02*
X70809523Y-46204819D01*
X71809523Y-47204819D02*
X71238095Y-47204819D01*
X71523809Y-47204819D02*
X71523809Y-46204819D01*
X71523809Y-46204819D02*
X71428571Y-46347676D01*
X71428571Y-46347676D02*
X71333333Y-46442914D01*
X71333333Y-46442914D02*
X71238095Y-46490533D01*
X141238095Y-89454819D02*
X141238095Y-90264342D01*
X141238095Y-90264342D02*
X141285714Y-90359580D01*
X141285714Y-90359580D02*
X141333333Y-90407200D01*
X141333333Y-90407200D02*
X141428571Y-90454819D01*
X141428571Y-90454819D02*
X141619047Y-90454819D01*
X141619047Y-90454819D02*
X141714285Y-90407200D01*
X141714285Y-90407200D02*
X141761904Y-90359580D01*
X141761904Y-90359580D02*
X141809523Y-90264342D01*
X141809523Y-90264342D02*
X141809523Y-89454819D01*
X142809523Y-90454819D02*
X142238095Y-90454819D01*
X142523809Y-90454819D02*
X142523809Y-89454819D01*
X142523809Y-89454819D02*
X142428571Y-89597676D01*
X142428571Y-89597676D02*
X142333333Y-89692914D01*
X142333333Y-89692914D02*
X142238095Y-89740533D01*
X135785714Y-102244104D02*
X136261904Y-102244104D01*
X135690476Y-102529819D02*
X136023809Y-101529819D01*
X136023809Y-101529819D02*
X136357142Y-102529819D01*
X136690476Y-102529819D02*
X136690476Y-101529819D01*
X136690476Y-101529819D02*
X137023809Y-102244104D01*
X137023809Y-102244104D02*
X137357142Y-101529819D01*
X137357142Y-101529819D02*
X137357142Y-102529819D01*
X137785714Y-101625057D02*
X137833333Y-101577438D01*
X137833333Y-101577438D02*
X137928571Y-101529819D01*
X137928571Y-101529819D02*
X138166666Y-101529819D01*
X138166666Y-101529819D02*
X138261904Y-101577438D01*
X138261904Y-101577438D02*
X138309523Y-101625057D01*
X138309523Y-101625057D02*
X138357142Y-101720295D01*
X138357142Y-101720295D02*
X138357142Y-101815533D01*
X138357142Y-101815533D02*
X138309523Y-101958390D01*
X138309523Y-101958390D02*
X137738095Y-102529819D01*
X137738095Y-102529819D02*
X138357142Y-102529819D01*
X139214285Y-101529819D02*
X139023809Y-101529819D01*
X139023809Y-101529819D02*
X138928571Y-101577438D01*
X138928571Y-101577438D02*
X138880952Y-101625057D01*
X138880952Y-101625057D02*
X138785714Y-101767914D01*
X138785714Y-101767914D02*
X138738095Y-101958390D01*
X138738095Y-101958390D02*
X138738095Y-102339342D01*
X138738095Y-102339342D02*
X138785714Y-102434580D01*
X138785714Y-102434580D02*
X138833333Y-102482200D01*
X138833333Y-102482200D02*
X138928571Y-102529819D01*
X138928571Y-102529819D02*
X139119047Y-102529819D01*
X139119047Y-102529819D02*
X139214285Y-102482200D01*
X139214285Y-102482200D02*
X139261904Y-102434580D01*
X139261904Y-102434580D02*
X139309523Y-102339342D01*
X139309523Y-102339342D02*
X139309523Y-102101247D01*
X139309523Y-102101247D02*
X139261904Y-102006009D01*
X139261904Y-102006009D02*
X139214285Y-101958390D01*
X139214285Y-101958390D02*
X139119047Y-101910771D01*
X139119047Y-101910771D02*
X138928571Y-101910771D01*
X138928571Y-101910771D02*
X138833333Y-101958390D01*
X138833333Y-101958390D02*
X138785714Y-102006009D01*
X138785714Y-102006009D02*
X138738095Y-102101247D01*
X140309523Y-102434580D02*
X140261904Y-102482200D01*
X140261904Y-102482200D02*
X140119047Y-102529819D01*
X140119047Y-102529819D02*
X140023809Y-102529819D01*
X140023809Y-102529819D02*
X139880952Y-102482200D01*
X139880952Y-102482200D02*
X139785714Y-102386961D01*
X139785714Y-102386961D02*
X139738095Y-102291723D01*
X139738095Y-102291723D02*
X139690476Y-102101247D01*
X139690476Y-102101247D02*
X139690476Y-101958390D01*
X139690476Y-101958390D02*
X139738095Y-101767914D01*
X139738095Y-101767914D02*
X139785714Y-101672676D01*
X139785714Y-101672676D02*
X139880952Y-101577438D01*
X139880952Y-101577438D02*
X140023809Y-101529819D01*
X140023809Y-101529819D02*
X140119047Y-101529819D01*
X140119047Y-101529819D02*
X140261904Y-101577438D01*
X140261904Y-101577438D02*
X140309523Y-101625057D01*
X140642857Y-101529819D02*
X141261904Y-101529819D01*
X141261904Y-101529819D02*
X140928571Y-101910771D01*
X140928571Y-101910771D02*
X141071428Y-101910771D01*
X141071428Y-101910771D02*
X141166666Y-101958390D01*
X141166666Y-101958390D02*
X141214285Y-102006009D01*
X141214285Y-102006009D02*
X141261904Y-102101247D01*
X141261904Y-102101247D02*
X141261904Y-102339342D01*
X141261904Y-102339342D02*
X141214285Y-102434580D01*
X141214285Y-102434580D02*
X141166666Y-102482200D01*
X141166666Y-102482200D02*
X141071428Y-102529819D01*
X141071428Y-102529819D02*
X140785714Y-102529819D01*
X140785714Y-102529819D02*
X140690476Y-102482200D01*
X140690476Y-102482200D02*
X140642857Y-102434580D01*
X141642857Y-101625057D02*
X141690476Y-101577438D01*
X141690476Y-101577438D02*
X141785714Y-101529819D01*
X141785714Y-101529819D02*
X142023809Y-101529819D01*
X142023809Y-101529819D02*
X142119047Y-101577438D01*
X142119047Y-101577438D02*
X142166666Y-101625057D01*
X142166666Y-101625057D02*
X142214285Y-101720295D01*
X142214285Y-101720295D02*
X142214285Y-101815533D01*
X142214285Y-101815533D02*
X142166666Y-101958390D01*
X142166666Y-101958390D02*
X141595238Y-102529819D01*
X141595238Y-102529819D02*
X142214285Y-102529819D01*
X114261905Y-107054819D02*
X114261905Y-106054819D01*
X114261905Y-106054819D02*
X114500000Y-106054819D01*
X114500000Y-106054819D02*
X114642857Y-106102438D01*
X114642857Y-106102438D02*
X114738095Y-106197676D01*
X114738095Y-106197676D02*
X114785714Y-106292914D01*
X114785714Y-106292914D02*
X114833333Y-106483390D01*
X114833333Y-106483390D02*
X114833333Y-106626247D01*
X114833333Y-106626247D02*
X114785714Y-106816723D01*
X114785714Y-106816723D02*
X114738095Y-106911961D01*
X114738095Y-106911961D02*
X114642857Y-107007200D01*
X114642857Y-107007200D02*
X114500000Y-107054819D01*
X114500000Y-107054819D02*
X114261905Y-107054819D01*
X115690476Y-106388152D02*
X115690476Y-107054819D01*
X115452381Y-106007200D02*
X115214286Y-106721485D01*
X115214286Y-106721485D02*
X115833333Y-106721485D01*
X117642856Y-111759580D02*
X117595237Y-111807200D01*
X117595237Y-111807200D02*
X117452380Y-111854819D01*
X117452380Y-111854819D02*
X117357142Y-111854819D01*
X117357142Y-111854819D02*
X117214285Y-111807200D01*
X117214285Y-111807200D02*
X117119047Y-111711961D01*
X117119047Y-111711961D02*
X117071428Y-111616723D01*
X117071428Y-111616723D02*
X117023809Y-111426247D01*
X117023809Y-111426247D02*
X117023809Y-111283390D01*
X117023809Y-111283390D02*
X117071428Y-111092914D01*
X117071428Y-111092914D02*
X117119047Y-110997676D01*
X117119047Y-110997676D02*
X117214285Y-110902438D01*
X117214285Y-110902438D02*
X117357142Y-110854819D01*
X117357142Y-110854819D02*
X117452380Y-110854819D01*
X117452380Y-110854819D02*
X117595237Y-110902438D01*
X117595237Y-110902438D02*
X117642856Y-110950057D01*
X118071428Y-111854819D02*
X118071428Y-110854819D01*
X118071428Y-111331009D02*
X118642856Y-111331009D01*
X118642856Y-111854819D02*
X118642856Y-110854819D01*
X119023809Y-110854819D02*
X119642856Y-110854819D01*
X119642856Y-110854819D02*
X119309523Y-111235771D01*
X119309523Y-111235771D02*
X119452380Y-111235771D01*
X119452380Y-111235771D02*
X119547618Y-111283390D01*
X119547618Y-111283390D02*
X119595237Y-111331009D01*
X119595237Y-111331009D02*
X119642856Y-111426247D01*
X119642856Y-111426247D02*
X119642856Y-111664342D01*
X119642856Y-111664342D02*
X119595237Y-111759580D01*
X119595237Y-111759580D02*
X119547618Y-111807200D01*
X119547618Y-111807200D02*
X119452380Y-111854819D01*
X119452380Y-111854819D02*
X119166666Y-111854819D01*
X119166666Y-111854819D02*
X119071428Y-111807200D01*
X119071428Y-111807200D02*
X119023809Y-111759580D01*
X120690476Y-110854819D02*
X121261904Y-110854819D01*
X120976190Y-111854819D02*
X120976190Y-110854819D01*
X121452381Y-110854819D02*
X121785714Y-111854819D01*
X121785714Y-111854819D02*
X122119047Y-110854819D01*
X122404762Y-111807200D02*
X122547619Y-111854819D01*
X122547619Y-111854819D02*
X122785714Y-111854819D01*
X122785714Y-111854819D02*
X122880952Y-111807200D01*
X122880952Y-111807200D02*
X122928571Y-111759580D01*
X122928571Y-111759580D02*
X122976190Y-111664342D01*
X122976190Y-111664342D02*
X122976190Y-111569104D01*
X122976190Y-111569104D02*
X122928571Y-111473866D01*
X122928571Y-111473866D02*
X122880952Y-111426247D01*
X122880952Y-111426247D02*
X122785714Y-111378628D01*
X122785714Y-111378628D02*
X122595238Y-111331009D01*
X122595238Y-111331009D02*
X122500000Y-111283390D01*
X122500000Y-111283390D02*
X122452381Y-111235771D01*
X122452381Y-111235771D02*
X122404762Y-111140533D01*
X122404762Y-111140533D02*
X122404762Y-111045295D01*
X122404762Y-111045295D02*
X122452381Y-110950057D01*
X122452381Y-110950057D02*
X122500000Y-110902438D01*
X122500000Y-110902438D02*
X122595238Y-110854819D01*
X122595238Y-110854819D02*
X122833333Y-110854819D01*
X122833333Y-110854819D02*
X122976190Y-110902438D01*
X116761905Y-128954819D02*
X116761905Y-127954819D01*
X116761905Y-127954819D02*
X117000000Y-127954819D01*
X117000000Y-127954819D02*
X117142857Y-128002438D01*
X117142857Y-128002438D02*
X117238095Y-128097676D01*
X117238095Y-128097676D02*
X117285714Y-128192914D01*
X117285714Y-128192914D02*
X117333333Y-128383390D01*
X117333333Y-128383390D02*
X117333333Y-128526247D01*
X117333333Y-128526247D02*
X117285714Y-128716723D01*
X117285714Y-128716723D02*
X117238095Y-128811961D01*
X117238095Y-128811961D02*
X117142857Y-128907200D01*
X117142857Y-128907200D02*
X117000000Y-128954819D01*
X117000000Y-128954819D02*
X116761905Y-128954819D01*
X118238095Y-127954819D02*
X117761905Y-127954819D01*
X117761905Y-127954819D02*
X117714286Y-128431009D01*
X117714286Y-128431009D02*
X117761905Y-128383390D01*
X117761905Y-128383390D02*
X117857143Y-128335771D01*
X117857143Y-128335771D02*
X118095238Y-128335771D01*
X118095238Y-128335771D02*
X118190476Y-128383390D01*
X118190476Y-128383390D02*
X118238095Y-128431009D01*
X118238095Y-128431009D02*
X118285714Y-128526247D01*
X118285714Y-128526247D02*
X118285714Y-128764342D01*
X118285714Y-128764342D02*
X118238095Y-128859580D01*
X118238095Y-128859580D02*
X118190476Y-128907200D01*
X118190476Y-128907200D02*
X118095238Y-128954819D01*
X118095238Y-128954819D02*
X117857143Y-128954819D01*
X117857143Y-128954819D02*
X117761905Y-128907200D01*
X117761905Y-128907200D02*
X117714286Y-128859580D01*
X113080356Y-133709580D02*
X113032737Y-133757200D01*
X113032737Y-133757200D02*
X112889880Y-133804819D01*
X112889880Y-133804819D02*
X112794642Y-133804819D01*
X112794642Y-133804819D02*
X112651785Y-133757200D01*
X112651785Y-133757200D02*
X112556547Y-133661961D01*
X112556547Y-133661961D02*
X112508928Y-133566723D01*
X112508928Y-133566723D02*
X112461309Y-133376247D01*
X112461309Y-133376247D02*
X112461309Y-133233390D01*
X112461309Y-133233390D02*
X112508928Y-133042914D01*
X112508928Y-133042914D02*
X112556547Y-132947676D01*
X112556547Y-132947676D02*
X112651785Y-132852438D01*
X112651785Y-132852438D02*
X112794642Y-132804819D01*
X112794642Y-132804819D02*
X112889880Y-132804819D01*
X112889880Y-132804819D02*
X113032737Y-132852438D01*
X113032737Y-132852438D02*
X113080356Y-132900057D01*
X113508928Y-133804819D02*
X113508928Y-132804819D01*
X113508928Y-133281009D02*
X114080356Y-133281009D01*
X114080356Y-133804819D02*
X114080356Y-132804819D01*
X114985118Y-133138152D02*
X114985118Y-133804819D01*
X114747023Y-132757200D02*
X114508928Y-133471485D01*
X114508928Y-133471485D02*
X115127975Y-133471485D01*
X116127976Y-132804819D02*
X116699404Y-132804819D01*
X116413690Y-133804819D02*
X116413690Y-132804819D01*
X116889881Y-132804819D02*
X117223214Y-133804819D01*
X117223214Y-133804819D02*
X117556547Y-132804819D01*
X117842262Y-133757200D02*
X117985119Y-133804819D01*
X117985119Y-133804819D02*
X118223214Y-133804819D01*
X118223214Y-133804819D02*
X118318452Y-133757200D01*
X118318452Y-133757200D02*
X118366071Y-133709580D01*
X118366071Y-133709580D02*
X118413690Y-133614342D01*
X118413690Y-133614342D02*
X118413690Y-133519104D01*
X118413690Y-133519104D02*
X118366071Y-133423866D01*
X118366071Y-133423866D02*
X118318452Y-133376247D01*
X118318452Y-133376247D02*
X118223214Y-133328628D01*
X118223214Y-133328628D02*
X118032738Y-133281009D01*
X118032738Y-133281009D02*
X117937500Y-133233390D01*
X117937500Y-133233390D02*
X117889881Y-133185771D01*
X117889881Y-133185771D02*
X117842262Y-133090533D01*
X117842262Y-133090533D02*
X117842262Y-132995295D01*
X117842262Y-132995295D02*
X117889881Y-132900057D01*
X117889881Y-132900057D02*
X117937500Y-132852438D01*
X117937500Y-132852438D02*
X118032738Y-132804819D01*
X118032738Y-132804819D02*
X118270833Y-132804819D01*
X118270833Y-132804819D02*
X118413690Y-132852438D01*
X120324405Y-61054819D02*
X120324405Y-60054819D01*
X120324405Y-60054819D02*
X120562500Y-60054819D01*
X120562500Y-60054819D02*
X120705357Y-60102438D01*
X120705357Y-60102438D02*
X120800595Y-60197676D01*
X120800595Y-60197676D02*
X120848214Y-60292914D01*
X120848214Y-60292914D02*
X120895833Y-60483390D01*
X120895833Y-60483390D02*
X120895833Y-60626247D01*
X120895833Y-60626247D02*
X120848214Y-60816723D01*
X120848214Y-60816723D02*
X120800595Y-60911961D01*
X120800595Y-60911961D02*
X120705357Y-61007200D01*
X120705357Y-61007200D02*
X120562500Y-61054819D01*
X120562500Y-61054819D02*
X120324405Y-61054819D01*
X121276786Y-60150057D02*
X121324405Y-60102438D01*
X121324405Y-60102438D02*
X121419643Y-60054819D01*
X121419643Y-60054819D02*
X121657738Y-60054819D01*
X121657738Y-60054819D02*
X121752976Y-60102438D01*
X121752976Y-60102438D02*
X121800595Y-60150057D01*
X121800595Y-60150057D02*
X121848214Y-60245295D01*
X121848214Y-60245295D02*
X121848214Y-60340533D01*
X121848214Y-60340533D02*
X121800595Y-60483390D01*
X121800595Y-60483390D02*
X121229167Y-61054819D01*
X121229167Y-61054819D02*
X121848214Y-61054819D01*
X116142856Y-66859580D02*
X116095237Y-66907200D01*
X116095237Y-66907200D02*
X115952380Y-66954819D01*
X115952380Y-66954819D02*
X115857142Y-66954819D01*
X115857142Y-66954819D02*
X115714285Y-66907200D01*
X115714285Y-66907200D02*
X115619047Y-66811961D01*
X115619047Y-66811961D02*
X115571428Y-66716723D01*
X115571428Y-66716723D02*
X115523809Y-66526247D01*
X115523809Y-66526247D02*
X115523809Y-66383390D01*
X115523809Y-66383390D02*
X115571428Y-66192914D01*
X115571428Y-66192914D02*
X115619047Y-66097676D01*
X115619047Y-66097676D02*
X115714285Y-66002438D01*
X115714285Y-66002438D02*
X115857142Y-65954819D01*
X115857142Y-65954819D02*
X115952380Y-65954819D01*
X115952380Y-65954819D02*
X116095237Y-66002438D01*
X116095237Y-66002438D02*
X116142856Y-66050057D01*
X116571428Y-66954819D02*
X116571428Y-65954819D01*
X116571428Y-66431009D02*
X117142856Y-66431009D01*
X117142856Y-66954819D02*
X117142856Y-65954819D01*
X118142856Y-66954819D02*
X117571428Y-66954819D01*
X117857142Y-66954819D02*
X117857142Y-65954819D01*
X117857142Y-65954819D02*
X117761904Y-66097676D01*
X117761904Y-66097676D02*
X117666666Y-66192914D01*
X117666666Y-66192914D02*
X117571428Y-66240533D01*
X119190476Y-65954819D02*
X119761904Y-65954819D01*
X119476190Y-66954819D02*
X119476190Y-65954819D01*
X119952381Y-65954819D02*
X120285714Y-66954819D01*
X120285714Y-66954819D02*
X120619047Y-65954819D01*
X120904762Y-66907200D02*
X121047619Y-66954819D01*
X121047619Y-66954819D02*
X121285714Y-66954819D01*
X121285714Y-66954819D02*
X121380952Y-66907200D01*
X121380952Y-66907200D02*
X121428571Y-66859580D01*
X121428571Y-66859580D02*
X121476190Y-66764342D01*
X121476190Y-66764342D02*
X121476190Y-66669104D01*
X121476190Y-66669104D02*
X121428571Y-66573866D01*
X121428571Y-66573866D02*
X121380952Y-66526247D01*
X121380952Y-66526247D02*
X121285714Y-66478628D01*
X121285714Y-66478628D02*
X121095238Y-66431009D01*
X121095238Y-66431009D02*
X121000000Y-66383390D01*
X121000000Y-66383390D02*
X120952381Y-66335771D01*
X120952381Y-66335771D02*
X120904762Y-66240533D01*
X120904762Y-66240533D02*
X120904762Y-66145295D01*
X120904762Y-66145295D02*
X120952381Y-66050057D01*
X120952381Y-66050057D02*
X121000000Y-66002438D01*
X121000000Y-66002438D02*
X121095238Y-65954819D01*
X121095238Y-65954819D02*
X121333333Y-65954819D01*
X121333333Y-65954819D02*
X121476190Y-66002438D01*
X196238095Y-47204819D02*
X196238095Y-46204819D01*
X196238095Y-46681009D02*
X196809523Y-46681009D01*
X196809523Y-47204819D02*
X196809523Y-46204819D01*
X197238095Y-46300057D02*
X197285714Y-46252438D01*
X197285714Y-46252438D02*
X197380952Y-46204819D01*
X197380952Y-46204819D02*
X197619047Y-46204819D01*
X197619047Y-46204819D02*
X197714285Y-46252438D01*
X197714285Y-46252438D02*
X197761904Y-46300057D01*
X197761904Y-46300057D02*
X197809523Y-46395295D01*
X197809523Y-46395295D02*
X197809523Y-46490533D01*
X197809523Y-46490533D02*
X197761904Y-46633390D01*
X197761904Y-46633390D02*
X197190476Y-47204819D01*
X197190476Y-47204819D02*
X197809523Y-47204819D01*
X196238095Y-140204819D02*
X196238095Y-139204819D01*
X196238095Y-139681009D02*
X196809523Y-139681009D01*
X196809523Y-140204819D02*
X196809523Y-139204819D01*
X197714285Y-139538152D02*
X197714285Y-140204819D01*
X197476190Y-139157200D02*
X197238095Y-139871485D01*
X197238095Y-139871485D02*
X197857142Y-139871485D01*
X70238095Y-140204819D02*
X70238095Y-139204819D01*
X70238095Y-139681009D02*
X70809523Y-139681009D01*
X70809523Y-140204819D02*
X70809523Y-139204819D01*
X71190476Y-139204819D02*
X71809523Y-139204819D01*
X71809523Y-139204819D02*
X71476190Y-139585771D01*
X71476190Y-139585771D02*
X71619047Y-139585771D01*
X71619047Y-139585771D02*
X71714285Y-139633390D01*
X71714285Y-139633390D02*
X71761904Y-139681009D01*
X71761904Y-139681009D02*
X71809523Y-139776247D01*
X71809523Y-139776247D02*
X71809523Y-140014342D01*
X71809523Y-140014342D02*
X71761904Y-140109580D01*
X71761904Y-140109580D02*
X71714285Y-140157200D01*
X71714285Y-140157200D02*
X71619047Y-140204819D01*
X71619047Y-140204819D02*
X71333333Y-140204819D01*
X71333333Y-140204819D02*
X71238095Y-140157200D01*
X71238095Y-140157200D02*
X71190476Y-140109580D01*
X183738095Y-77456819D02*
X184309523Y-77456819D01*
X184023809Y-78456819D02*
X184023809Y-77456819D01*
X184642857Y-78456819D02*
X184642857Y-77456819D01*
X184642857Y-77456819D02*
X185023809Y-77456819D01*
X185023809Y-77456819D02*
X185119047Y-77504438D01*
X185119047Y-77504438D02*
X185166666Y-77552057D01*
X185166666Y-77552057D02*
X185214285Y-77647295D01*
X185214285Y-77647295D02*
X185214285Y-77790152D01*
X185214285Y-77790152D02*
X185166666Y-77885390D01*
X185166666Y-77885390D02*
X185119047Y-77933009D01*
X185119047Y-77933009D02*
X185023809Y-77980628D01*
X185023809Y-77980628D02*
X184642857Y-77980628D01*
X185595238Y-77552057D02*
X185642857Y-77504438D01*
X185642857Y-77504438D02*
X185738095Y-77456819D01*
X185738095Y-77456819D02*
X185976190Y-77456819D01*
X185976190Y-77456819D02*
X186071428Y-77504438D01*
X186071428Y-77504438D02*
X186119047Y-77552057D01*
X186119047Y-77552057D02*
X186166666Y-77647295D01*
X186166666Y-77647295D02*
X186166666Y-77742533D01*
X186166666Y-77742533D02*
X186119047Y-77885390D01*
X186119047Y-77885390D02*
X185547619Y-78456819D01*
X185547619Y-78456819D02*
X186166666Y-78456819D01*
X184238095Y-82002438D02*
X184142857Y-81954819D01*
X184142857Y-81954819D02*
X184000000Y-81954819D01*
X184000000Y-81954819D02*
X183857143Y-82002438D01*
X183857143Y-82002438D02*
X183761905Y-82097676D01*
X183761905Y-82097676D02*
X183714286Y-82192914D01*
X183714286Y-82192914D02*
X183666667Y-82383390D01*
X183666667Y-82383390D02*
X183666667Y-82526247D01*
X183666667Y-82526247D02*
X183714286Y-82716723D01*
X183714286Y-82716723D02*
X183761905Y-82811961D01*
X183761905Y-82811961D02*
X183857143Y-82907200D01*
X183857143Y-82907200D02*
X184000000Y-82954819D01*
X184000000Y-82954819D02*
X184095238Y-82954819D01*
X184095238Y-82954819D02*
X184238095Y-82907200D01*
X184238095Y-82907200D02*
X184285714Y-82859580D01*
X184285714Y-82859580D02*
X184285714Y-82526247D01*
X184285714Y-82526247D02*
X184095238Y-82526247D01*
X184714286Y-82954819D02*
X184714286Y-81954819D01*
X184714286Y-81954819D02*
X185285714Y-82954819D01*
X185285714Y-82954819D02*
X185285714Y-81954819D01*
X185761905Y-82954819D02*
X185761905Y-81954819D01*
X185761905Y-81954819D02*
X186000000Y-81954819D01*
X186000000Y-81954819D02*
X186142857Y-82002438D01*
X186142857Y-82002438D02*
X186238095Y-82097676D01*
X186238095Y-82097676D02*
X186285714Y-82192914D01*
X186285714Y-82192914D02*
X186333333Y-82383390D01*
X186333333Y-82383390D02*
X186333333Y-82526247D01*
X186333333Y-82526247D02*
X186285714Y-82716723D01*
X186285714Y-82716723D02*
X186238095Y-82811961D01*
X186238095Y-82811961D02*
X186142857Y-82907200D01*
X186142857Y-82907200D02*
X186000000Y-82954819D01*
X186000000Y-82954819D02*
X185761905Y-82954819D01*
X183738095Y-104456819D02*
X184309523Y-104456819D01*
X184023809Y-105456819D02*
X184023809Y-104456819D01*
X184642857Y-105456819D02*
X184642857Y-104456819D01*
X184642857Y-104456819D02*
X185023809Y-104456819D01*
X185023809Y-104456819D02*
X185119047Y-104504438D01*
X185119047Y-104504438D02*
X185166666Y-104552057D01*
X185166666Y-104552057D02*
X185214285Y-104647295D01*
X185214285Y-104647295D02*
X185214285Y-104790152D01*
X185214285Y-104790152D02*
X185166666Y-104885390D01*
X185166666Y-104885390D02*
X185119047Y-104933009D01*
X185119047Y-104933009D02*
X185023809Y-104980628D01*
X185023809Y-104980628D02*
X184642857Y-104980628D01*
X185547619Y-104456819D02*
X186166666Y-104456819D01*
X186166666Y-104456819D02*
X185833333Y-104837771D01*
X185833333Y-104837771D02*
X185976190Y-104837771D01*
X185976190Y-104837771D02*
X186071428Y-104885390D01*
X186071428Y-104885390D02*
X186119047Y-104933009D01*
X186119047Y-104933009D02*
X186166666Y-105028247D01*
X186166666Y-105028247D02*
X186166666Y-105266342D01*
X186166666Y-105266342D02*
X186119047Y-105361580D01*
X186119047Y-105361580D02*
X186071428Y-105409200D01*
X186071428Y-105409200D02*
X185976190Y-105456819D01*
X185976190Y-105456819D02*
X185690476Y-105456819D01*
X185690476Y-105456819D02*
X185595238Y-105409200D01*
X185595238Y-105409200D02*
X185547619Y-105361580D01*
X184523809Y-109478628D02*
X184523809Y-109954819D01*
X184190476Y-108954819D02*
X184523809Y-109478628D01*
X184523809Y-109478628D02*
X184857142Y-108954819D01*
X185714285Y-109954819D02*
X185142857Y-109954819D01*
X185428571Y-109954819D02*
X185428571Y-108954819D01*
X185428571Y-108954819D02*
X185333333Y-109097676D01*
X185333333Y-109097676D02*
X185238095Y-109192914D01*
X185238095Y-109192914D02*
X185142857Y-109240533D01*
X183738095Y-84456819D02*
X184309523Y-84456819D01*
X184023809Y-85456819D02*
X184023809Y-84456819D01*
X184642857Y-85456819D02*
X184642857Y-84456819D01*
X184642857Y-84456819D02*
X185023809Y-84456819D01*
X185023809Y-84456819D02*
X185119047Y-84504438D01*
X185119047Y-84504438D02*
X185166666Y-84552057D01*
X185166666Y-84552057D02*
X185214285Y-84647295D01*
X185214285Y-84647295D02*
X185214285Y-84790152D01*
X185214285Y-84790152D02*
X185166666Y-84885390D01*
X185166666Y-84885390D02*
X185119047Y-84933009D01*
X185119047Y-84933009D02*
X185023809Y-84980628D01*
X185023809Y-84980628D02*
X184642857Y-84980628D01*
X186071428Y-84456819D02*
X185880952Y-84456819D01*
X185880952Y-84456819D02*
X185785714Y-84504438D01*
X185785714Y-84504438D02*
X185738095Y-84552057D01*
X185738095Y-84552057D02*
X185642857Y-84694914D01*
X185642857Y-84694914D02*
X185595238Y-84885390D01*
X185595238Y-84885390D02*
X185595238Y-85266342D01*
X185595238Y-85266342D02*
X185642857Y-85361580D01*
X185642857Y-85361580D02*
X185690476Y-85409200D01*
X185690476Y-85409200D02*
X185785714Y-85456819D01*
X185785714Y-85456819D02*
X185976190Y-85456819D01*
X185976190Y-85456819D02*
X186071428Y-85409200D01*
X186071428Y-85409200D02*
X186119047Y-85361580D01*
X186119047Y-85361580D02*
X186166666Y-85266342D01*
X186166666Y-85266342D02*
X186166666Y-85028247D01*
X186166666Y-85028247D02*
X186119047Y-84933009D01*
X186119047Y-84933009D02*
X186071428Y-84885390D01*
X186071428Y-84885390D02*
X185976190Y-84837771D01*
X185976190Y-84837771D02*
X185785714Y-84837771D01*
X185785714Y-84837771D02*
X185690476Y-84885390D01*
X185690476Y-84885390D02*
X185642857Y-84933009D01*
X185642857Y-84933009D02*
X185595238Y-85028247D01*
X184523809Y-89478628D02*
X184523809Y-89954819D01*
X184190476Y-88954819D02*
X184523809Y-89478628D01*
X184523809Y-89478628D02*
X184857142Y-88954819D01*
X185619047Y-89288152D02*
X185619047Y-89954819D01*
X185380952Y-88907200D02*
X185142857Y-89621485D01*
X185142857Y-89621485D02*
X185761904Y-89621485D01*
X183738095Y-98206819D02*
X184309523Y-98206819D01*
X184023809Y-99206819D02*
X184023809Y-98206819D01*
X184642857Y-99206819D02*
X184642857Y-98206819D01*
X184642857Y-98206819D02*
X185023809Y-98206819D01*
X185023809Y-98206819D02*
X185119047Y-98254438D01*
X185119047Y-98254438D02*
X185166666Y-98302057D01*
X185166666Y-98302057D02*
X185214285Y-98397295D01*
X185214285Y-98397295D02*
X185214285Y-98540152D01*
X185214285Y-98540152D02*
X185166666Y-98635390D01*
X185166666Y-98635390D02*
X185119047Y-98683009D01*
X185119047Y-98683009D02*
X185023809Y-98730628D01*
X185023809Y-98730628D02*
X184642857Y-98730628D01*
X186071428Y-98540152D02*
X186071428Y-99206819D01*
X185833333Y-98159200D02*
X185595238Y-98873485D01*
X185595238Y-98873485D02*
X186214285Y-98873485D01*
X184523809Y-102978628D02*
X184523809Y-103454819D01*
X184190476Y-102454819D02*
X184523809Y-102978628D01*
X184523809Y-102978628D02*
X184857142Y-102454819D01*
X185142857Y-102550057D02*
X185190476Y-102502438D01*
X185190476Y-102502438D02*
X185285714Y-102454819D01*
X185285714Y-102454819D02*
X185523809Y-102454819D01*
X185523809Y-102454819D02*
X185619047Y-102502438D01*
X185619047Y-102502438D02*
X185666666Y-102550057D01*
X185666666Y-102550057D02*
X185714285Y-102645295D01*
X185714285Y-102645295D02*
X185714285Y-102740533D01*
X185714285Y-102740533D02*
X185666666Y-102883390D01*
X185666666Y-102883390D02*
X185095238Y-103454819D01*
X185095238Y-103454819D02*
X185714285Y-103454819D01*
X183738095Y-91456819D02*
X184309523Y-91456819D01*
X184023809Y-92456819D02*
X184023809Y-91456819D01*
X184642857Y-92456819D02*
X184642857Y-91456819D01*
X184642857Y-91456819D02*
X185023809Y-91456819D01*
X185023809Y-91456819D02*
X185119047Y-91504438D01*
X185119047Y-91504438D02*
X185166666Y-91552057D01*
X185166666Y-91552057D02*
X185214285Y-91647295D01*
X185214285Y-91647295D02*
X185214285Y-91790152D01*
X185214285Y-91790152D02*
X185166666Y-91885390D01*
X185166666Y-91885390D02*
X185119047Y-91933009D01*
X185119047Y-91933009D02*
X185023809Y-91980628D01*
X185023809Y-91980628D02*
X184642857Y-91980628D01*
X186119047Y-91456819D02*
X185642857Y-91456819D01*
X185642857Y-91456819D02*
X185595238Y-91933009D01*
X185595238Y-91933009D02*
X185642857Y-91885390D01*
X185642857Y-91885390D02*
X185738095Y-91837771D01*
X185738095Y-91837771D02*
X185976190Y-91837771D01*
X185976190Y-91837771D02*
X186071428Y-91885390D01*
X186071428Y-91885390D02*
X186119047Y-91933009D01*
X186119047Y-91933009D02*
X186166666Y-92028247D01*
X186166666Y-92028247D02*
X186166666Y-92266342D01*
X186166666Y-92266342D02*
X186119047Y-92361580D01*
X186119047Y-92361580D02*
X186071428Y-92409200D01*
X186071428Y-92409200D02*
X185976190Y-92456819D01*
X185976190Y-92456819D02*
X185738095Y-92456819D01*
X185738095Y-92456819D02*
X185642857Y-92409200D01*
X185642857Y-92409200D02*
X185595238Y-92361580D01*
X184523809Y-96478628D02*
X184523809Y-96954819D01*
X184190476Y-95954819D02*
X184523809Y-96478628D01*
X184523809Y-96478628D02*
X184857142Y-95954819D01*
X185095238Y-95954819D02*
X185714285Y-95954819D01*
X185714285Y-95954819D02*
X185380952Y-96335771D01*
X185380952Y-96335771D02*
X185523809Y-96335771D01*
X185523809Y-96335771D02*
X185619047Y-96383390D01*
X185619047Y-96383390D02*
X185666666Y-96431009D01*
X185666666Y-96431009D02*
X185714285Y-96526247D01*
X185714285Y-96526247D02*
X185714285Y-96764342D01*
X185714285Y-96764342D02*
X185666666Y-96859580D01*
X185666666Y-96859580D02*
X185619047Y-96907200D01*
X185619047Y-96907200D02*
X185523809Y-96954819D01*
X185523809Y-96954819D02*
X185238095Y-96954819D01*
X185238095Y-96954819D02*
X185142857Y-96907200D01*
X185142857Y-96907200D02*
X185095238Y-96859580D01*
X99745833Y-98954819D02*
X99412500Y-98478628D01*
X99174405Y-98954819D02*
X99174405Y-97954819D01*
X99174405Y-97954819D02*
X99555357Y-97954819D01*
X99555357Y-97954819D02*
X99650595Y-98002438D01*
X99650595Y-98002438D02*
X99698214Y-98050057D01*
X99698214Y-98050057D02*
X99745833Y-98145295D01*
X99745833Y-98145295D02*
X99745833Y-98288152D01*
X99745833Y-98288152D02*
X99698214Y-98383390D01*
X99698214Y-98383390D02*
X99650595Y-98431009D01*
X99650595Y-98431009D02*
X99555357Y-98478628D01*
X99555357Y-98478628D02*
X99174405Y-98478628D01*
X100079167Y-97954819D02*
X100745833Y-97954819D01*
X100745833Y-97954819D02*
X100317262Y-98954819D01*
X98745833Y-103954819D02*
X98174405Y-103954819D01*
X98460119Y-103954819D02*
X98460119Y-102954819D01*
X98460119Y-102954819D02*
X98364881Y-103097676D01*
X98364881Y-103097676D02*
X98269643Y-103192914D01*
X98269643Y-103192914D02*
X98174405Y-103240533D01*
X99364881Y-102954819D02*
X99460119Y-102954819D01*
X99460119Y-102954819D02*
X99555357Y-103002438D01*
X99555357Y-103002438D02*
X99602976Y-103050057D01*
X99602976Y-103050057D02*
X99650595Y-103145295D01*
X99650595Y-103145295D02*
X99698214Y-103335771D01*
X99698214Y-103335771D02*
X99698214Y-103573866D01*
X99698214Y-103573866D02*
X99650595Y-103764342D01*
X99650595Y-103764342D02*
X99602976Y-103859580D01*
X99602976Y-103859580D02*
X99555357Y-103907200D01*
X99555357Y-103907200D02*
X99460119Y-103954819D01*
X99460119Y-103954819D02*
X99364881Y-103954819D01*
X99364881Y-103954819D02*
X99269643Y-103907200D01*
X99269643Y-103907200D02*
X99222024Y-103859580D01*
X99222024Y-103859580D02*
X99174405Y-103764342D01*
X99174405Y-103764342D02*
X99126786Y-103573866D01*
X99126786Y-103573866D02*
X99126786Y-103335771D01*
X99126786Y-103335771D02*
X99174405Y-103145295D01*
X99174405Y-103145295D02*
X99222024Y-103050057D01*
X99222024Y-103050057D02*
X99269643Y-103002438D01*
X99269643Y-103002438D02*
X99364881Y-102954819D01*
X100126786Y-103954819D02*
X100126786Y-102954819D01*
X100222024Y-103573866D02*
X100507738Y-103954819D01*
X100507738Y-103288152D02*
X100126786Y-103669104D01*
X100888691Y-103954819D02*
X101126786Y-103954819D01*
X101126786Y-103954819D02*
X101126786Y-103764342D01*
X101126786Y-103764342D02*
X101031548Y-103716723D01*
X101031548Y-103716723D02*
X100936310Y-103621485D01*
X100936310Y-103621485D02*
X100888691Y-103478628D01*
X100888691Y-103478628D02*
X100888691Y-103240533D01*
X100888691Y-103240533D02*
X100936310Y-103097676D01*
X100936310Y-103097676D02*
X101031548Y-103002438D01*
X101031548Y-103002438D02*
X101174405Y-102954819D01*
X101174405Y-102954819D02*
X101364881Y-102954819D01*
X101364881Y-102954819D02*
X101507738Y-103002438D01*
X101507738Y-103002438D02*
X101602976Y-103097676D01*
X101602976Y-103097676D02*
X101650595Y-103240533D01*
X101650595Y-103240533D02*
X101650595Y-103478628D01*
X101650595Y-103478628D02*
X101602976Y-103621485D01*
X101602976Y-103621485D02*
X101507738Y-103716723D01*
X101507738Y-103716723D02*
X101412500Y-103764342D01*
X101412500Y-103764342D02*
X101412500Y-103954819D01*
X101412500Y-103954819D02*
X101650595Y-103954819D01*
X99833333Y-91454819D02*
X99500000Y-90978628D01*
X99261905Y-91454819D02*
X99261905Y-90454819D01*
X99261905Y-90454819D02*
X99642857Y-90454819D01*
X99642857Y-90454819D02*
X99738095Y-90502438D01*
X99738095Y-90502438D02*
X99785714Y-90550057D01*
X99785714Y-90550057D02*
X99833333Y-90645295D01*
X99833333Y-90645295D02*
X99833333Y-90788152D01*
X99833333Y-90788152D02*
X99785714Y-90883390D01*
X99785714Y-90883390D02*
X99738095Y-90931009D01*
X99738095Y-90931009D02*
X99642857Y-90978628D01*
X99642857Y-90978628D02*
X99261905Y-90978628D01*
X100690476Y-90454819D02*
X100500000Y-90454819D01*
X100500000Y-90454819D02*
X100404762Y-90502438D01*
X100404762Y-90502438D02*
X100357143Y-90550057D01*
X100357143Y-90550057D02*
X100261905Y-90692914D01*
X100261905Y-90692914D02*
X100214286Y-90883390D01*
X100214286Y-90883390D02*
X100214286Y-91264342D01*
X100214286Y-91264342D02*
X100261905Y-91359580D01*
X100261905Y-91359580D02*
X100309524Y-91407200D01*
X100309524Y-91407200D02*
X100404762Y-91454819D01*
X100404762Y-91454819D02*
X100595238Y-91454819D01*
X100595238Y-91454819D02*
X100690476Y-91407200D01*
X100690476Y-91407200D02*
X100738095Y-91359580D01*
X100738095Y-91359580D02*
X100785714Y-91264342D01*
X100785714Y-91264342D02*
X100785714Y-91026247D01*
X100785714Y-91026247D02*
X100738095Y-90931009D01*
X100738095Y-90931009D02*
X100690476Y-90883390D01*
X100690476Y-90883390D02*
X100595238Y-90835771D01*
X100595238Y-90835771D02*
X100404762Y-90835771D01*
X100404762Y-90835771D02*
X100309524Y-90883390D01*
X100309524Y-90883390D02*
X100261905Y-90931009D01*
X100261905Y-90931009D02*
X100214286Y-91026247D01*
X98833333Y-96454819D02*
X98261905Y-96454819D01*
X98547619Y-96454819D02*
X98547619Y-95454819D01*
X98547619Y-95454819D02*
X98452381Y-95597676D01*
X98452381Y-95597676D02*
X98357143Y-95692914D01*
X98357143Y-95692914D02*
X98261905Y-95740533D01*
X99452381Y-95454819D02*
X99547619Y-95454819D01*
X99547619Y-95454819D02*
X99642857Y-95502438D01*
X99642857Y-95502438D02*
X99690476Y-95550057D01*
X99690476Y-95550057D02*
X99738095Y-95645295D01*
X99738095Y-95645295D02*
X99785714Y-95835771D01*
X99785714Y-95835771D02*
X99785714Y-96073866D01*
X99785714Y-96073866D02*
X99738095Y-96264342D01*
X99738095Y-96264342D02*
X99690476Y-96359580D01*
X99690476Y-96359580D02*
X99642857Y-96407200D01*
X99642857Y-96407200D02*
X99547619Y-96454819D01*
X99547619Y-96454819D02*
X99452381Y-96454819D01*
X99452381Y-96454819D02*
X99357143Y-96407200D01*
X99357143Y-96407200D02*
X99309524Y-96359580D01*
X99309524Y-96359580D02*
X99261905Y-96264342D01*
X99261905Y-96264342D02*
X99214286Y-96073866D01*
X99214286Y-96073866D02*
X99214286Y-95835771D01*
X99214286Y-95835771D02*
X99261905Y-95645295D01*
X99261905Y-95645295D02*
X99309524Y-95550057D01*
X99309524Y-95550057D02*
X99357143Y-95502438D01*
X99357143Y-95502438D02*
X99452381Y-95454819D01*
X100214286Y-96454819D02*
X100214286Y-95454819D01*
X100309524Y-96073866D02*
X100595238Y-96454819D01*
X100595238Y-95788152D02*
X100214286Y-96169104D01*
X100976191Y-96454819D02*
X101214286Y-96454819D01*
X101214286Y-96454819D02*
X101214286Y-96264342D01*
X101214286Y-96264342D02*
X101119048Y-96216723D01*
X101119048Y-96216723D02*
X101023810Y-96121485D01*
X101023810Y-96121485D02*
X100976191Y-95978628D01*
X100976191Y-95978628D02*
X100976191Y-95740533D01*
X100976191Y-95740533D02*
X101023810Y-95597676D01*
X101023810Y-95597676D02*
X101119048Y-95502438D01*
X101119048Y-95502438D02*
X101261905Y-95454819D01*
X101261905Y-95454819D02*
X101452381Y-95454819D01*
X101452381Y-95454819D02*
X101595238Y-95502438D01*
X101595238Y-95502438D02*
X101690476Y-95597676D01*
X101690476Y-95597676D02*
X101738095Y-95740533D01*
X101738095Y-95740533D02*
X101738095Y-95978628D01*
X101738095Y-95978628D02*
X101690476Y-96121485D01*
X101690476Y-96121485D02*
X101595238Y-96216723D01*
X101595238Y-96216723D02*
X101500000Y-96264342D01*
X101500000Y-96264342D02*
X101500000Y-96454819D01*
X101500000Y-96454819D02*
X101738095Y-96454819D01*
X149420833Y-65304819D02*
X149087500Y-64828628D01*
X148849405Y-65304819D02*
X148849405Y-64304819D01*
X148849405Y-64304819D02*
X149230357Y-64304819D01*
X149230357Y-64304819D02*
X149325595Y-64352438D01*
X149325595Y-64352438D02*
X149373214Y-64400057D01*
X149373214Y-64400057D02*
X149420833Y-64495295D01*
X149420833Y-64495295D02*
X149420833Y-64638152D01*
X149420833Y-64638152D02*
X149373214Y-64733390D01*
X149373214Y-64733390D02*
X149325595Y-64781009D01*
X149325595Y-64781009D02*
X149230357Y-64828628D01*
X149230357Y-64828628D02*
X148849405Y-64828628D01*
X150325595Y-64304819D02*
X149849405Y-64304819D01*
X149849405Y-64304819D02*
X149801786Y-64781009D01*
X149801786Y-64781009D02*
X149849405Y-64733390D01*
X149849405Y-64733390D02*
X149944643Y-64685771D01*
X149944643Y-64685771D02*
X150182738Y-64685771D01*
X150182738Y-64685771D02*
X150277976Y-64733390D01*
X150277976Y-64733390D02*
X150325595Y-64781009D01*
X150325595Y-64781009D02*
X150373214Y-64876247D01*
X150373214Y-64876247D02*
X150373214Y-65114342D01*
X150373214Y-65114342D02*
X150325595Y-65209580D01*
X150325595Y-65209580D02*
X150277976Y-65257200D01*
X150277976Y-65257200D02*
X150182738Y-65304819D01*
X150182738Y-65304819D02*
X149944643Y-65304819D01*
X149944643Y-65304819D02*
X149849405Y-65257200D01*
X149849405Y-65257200D02*
X149801786Y-65209580D01*
X148309523Y-68604819D02*
X147738095Y-68604819D01*
X148023809Y-68604819D02*
X148023809Y-67604819D01*
X148023809Y-67604819D02*
X147928571Y-67747676D01*
X147928571Y-67747676D02*
X147833333Y-67842914D01*
X147833333Y-67842914D02*
X147738095Y-67890533D01*
X148738095Y-68604819D02*
X148738095Y-67604819D01*
X148833333Y-68223866D02*
X149119047Y-68604819D01*
X149119047Y-67938152D02*
X148738095Y-68319104D01*
X149500000Y-68604819D02*
X149738095Y-68604819D01*
X149738095Y-68604819D02*
X149738095Y-68414342D01*
X149738095Y-68414342D02*
X149642857Y-68366723D01*
X149642857Y-68366723D02*
X149547619Y-68271485D01*
X149547619Y-68271485D02*
X149500000Y-68128628D01*
X149500000Y-68128628D02*
X149500000Y-67890533D01*
X149500000Y-67890533D02*
X149547619Y-67747676D01*
X149547619Y-67747676D02*
X149642857Y-67652438D01*
X149642857Y-67652438D02*
X149785714Y-67604819D01*
X149785714Y-67604819D02*
X149976190Y-67604819D01*
X149976190Y-67604819D02*
X150119047Y-67652438D01*
X150119047Y-67652438D02*
X150214285Y-67747676D01*
X150214285Y-67747676D02*
X150261904Y-67890533D01*
X150261904Y-67890533D02*
X150261904Y-68128628D01*
X150261904Y-68128628D02*
X150214285Y-68271485D01*
X150214285Y-68271485D02*
X150119047Y-68366723D01*
X150119047Y-68366723D02*
X150023809Y-68414342D01*
X150023809Y-68414342D02*
X150023809Y-68604819D01*
X150023809Y-68604819D02*
X150261904Y-68604819D01*
X82333333Y-123954819D02*
X82000000Y-123478628D01*
X81761905Y-123954819D02*
X81761905Y-122954819D01*
X81761905Y-122954819D02*
X82142857Y-122954819D01*
X82142857Y-122954819D02*
X82238095Y-123002438D01*
X82238095Y-123002438D02*
X82285714Y-123050057D01*
X82285714Y-123050057D02*
X82333333Y-123145295D01*
X82333333Y-123145295D02*
X82333333Y-123288152D01*
X82333333Y-123288152D02*
X82285714Y-123383390D01*
X82285714Y-123383390D02*
X82238095Y-123431009D01*
X82238095Y-123431009D02*
X82142857Y-123478628D01*
X82142857Y-123478628D02*
X81761905Y-123478628D01*
X83190476Y-123288152D02*
X83190476Y-123954819D01*
X82952381Y-122907200D02*
X82714286Y-123621485D01*
X82714286Y-123621485D02*
X83333333Y-123621485D01*
X80761904Y-127604819D02*
X80190476Y-127604819D01*
X80476190Y-127604819D02*
X80476190Y-126604819D01*
X80476190Y-126604819D02*
X80380952Y-126747676D01*
X80380952Y-126747676D02*
X80285714Y-126842914D01*
X80285714Y-126842914D02*
X80190476Y-126890533D01*
X81142857Y-126700057D02*
X81190476Y-126652438D01*
X81190476Y-126652438D02*
X81285714Y-126604819D01*
X81285714Y-126604819D02*
X81523809Y-126604819D01*
X81523809Y-126604819D02*
X81619047Y-126652438D01*
X81619047Y-126652438D02*
X81666666Y-126700057D01*
X81666666Y-126700057D02*
X81714285Y-126795295D01*
X81714285Y-126795295D02*
X81714285Y-126890533D01*
X81714285Y-126890533D02*
X81666666Y-127033390D01*
X81666666Y-127033390D02*
X81095238Y-127604819D01*
X81095238Y-127604819D02*
X81714285Y-127604819D01*
X82333333Y-126604819D02*
X82428571Y-126604819D01*
X82428571Y-126604819D02*
X82523809Y-126652438D01*
X82523809Y-126652438D02*
X82571428Y-126700057D01*
X82571428Y-126700057D02*
X82619047Y-126795295D01*
X82619047Y-126795295D02*
X82666666Y-126985771D01*
X82666666Y-126985771D02*
X82666666Y-127223866D01*
X82666666Y-127223866D02*
X82619047Y-127414342D01*
X82619047Y-127414342D02*
X82571428Y-127509580D01*
X82571428Y-127509580D02*
X82523809Y-127557200D01*
X82523809Y-127557200D02*
X82428571Y-127604819D01*
X82428571Y-127604819D02*
X82333333Y-127604819D01*
X82333333Y-127604819D02*
X82238095Y-127557200D01*
X82238095Y-127557200D02*
X82190476Y-127509580D01*
X82190476Y-127509580D02*
X82142857Y-127414342D01*
X82142857Y-127414342D02*
X82095238Y-127223866D01*
X82095238Y-127223866D02*
X82095238Y-126985771D01*
X82095238Y-126985771D02*
X82142857Y-126795295D01*
X82142857Y-126795295D02*
X82190476Y-126700057D01*
X82190476Y-126700057D02*
X82238095Y-126652438D01*
X82238095Y-126652438D02*
X82333333Y-126604819D01*
X83047619Y-127604819D02*
X83285714Y-127604819D01*
X83285714Y-127604819D02*
X83285714Y-127414342D01*
X83285714Y-127414342D02*
X83190476Y-127366723D01*
X83190476Y-127366723D02*
X83095238Y-127271485D01*
X83095238Y-127271485D02*
X83047619Y-127128628D01*
X83047619Y-127128628D02*
X83047619Y-126890533D01*
X83047619Y-126890533D02*
X83095238Y-126747676D01*
X83095238Y-126747676D02*
X83190476Y-126652438D01*
X83190476Y-126652438D02*
X83333333Y-126604819D01*
X83333333Y-126604819D02*
X83523809Y-126604819D01*
X83523809Y-126604819D02*
X83666666Y-126652438D01*
X83666666Y-126652438D02*
X83761904Y-126747676D01*
X83761904Y-126747676D02*
X83809523Y-126890533D01*
X83809523Y-126890533D02*
X83809523Y-127128628D01*
X83809523Y-127128628D02*
X83761904Y-127271485D01*
X83761904Y-127271485D02*
X83666666Y-127366723D01*
X83666666Y-127366723D02*
X83571428Y-127414342D01*
X83571428Y-127414342D02*
X83571428Y-127604819D01*
X83571428Y-127604819D02*
X83809523Y-127604819D01*
X82920833Y-103804819D02*
X82587500Y-103328628D01*
X82349405Y-103804819D02*
X82349405Y-102804819D01*
X82349405Y-102804819D02*
X82730357Y-102804819D01*
X82730357Y-102804819D02*
X82825595Y-102852438D01*
X82825595Y-102852438D02*
X82873214Y-102900057D01*
X82873214Y-102900057D02*
X82920833Y-102995295D01*
X82920833Y-102995295D02*
X82920833Y-103138152D01*
X82920833Y-103138152D02*
X82873214Y-103233390D01*
X82873214Y-103233390D02*
X82825595Y-103281009D01*
X82825595Y-103281009D02*
X82730357Y-103328628D01*
X82730357Y-103328628D02*
X82349405Y-103328628D01*
X83254167Y-102804819D02*
X83873214Y-102804819D01*
X83873214Y-102804819D02*
X83539881Y-103185771D01*
X83539881Y-103185771D02*
X83682738Y-103185771D01*
X83682738Y-103185771D02*
X83777976Y-103233390D01*
X83777976Y-103233390D02*
X83825595Y-103281009D01*
X83825595Y-103281009D02*
X83873214Y-103376247D01*
X83873214Y-103376247D02*
X83873214Y-103614342D01*
X83873214Y-103614342D02*
X83825595Y-103709580D01*
X83825595Y-103709580D02*
X83777976Y-103757200D01*
X83777976Y-103757200D02*
X83682738Y-103804819D01*
X83682738Y-103804819D02*
X83397024Y-103804819D01*
X83397024Y-103804819D02*
X83301786Y-103757200D01*
X83301786Y-103757200D02*
X83254167Y-103709580D01*
X80261904Y-107104819D02*
X79690476Y-107104819D01*
X79976190Y-107104819D02*
X79976190Y-106104819D01*
X79976190Y-106104819D02*
X79880952Y-106247676D01*
X79880952Y-106247676D02*
X79785714Y-106342914D01*
X79785714Y-106342914D02*
X79690476Y-106390533D01*
X80642857Y-106200057D02*
X80690476Y-106152438D01*
X80690476Y-106152438D02*
X80785714Y-106104819D01*
X80785714Y-106104819D02*
X81023809Y-106104819D01*
X81023809Y-106104819D02*
X81119047Y-106152438D01*
X81119047Y-106152438D02*
X81166666Y-106200057D01*
X81166666Y-106200057D02*
X81214285Y-106295295D01*
X81214285Y-106295295D02*
X81214285Y-106390533D01*
X81214285Y-106390533D02*
X81166666Y-106533390D01*
X81166666Y-106533390D02*
X80595238Y-107104819D01*
X80595238Y-107104819D02*
X81214285Y-107104819D01*
X81833333Y-106104819D02*
X81928571Y-106104819D01*
X81928571Y-106104819D02*
X82023809Y-106152438D01*
X82023809Y-106152438D02*
X82071428Y-106200057D01*
X82071428Y-106200057D02*
X82119047Y-106295295D01*
X82119047Y-106295295D02*
X82166666Y-106485771D01*
X82166666Y-106485771D02*
X82166666Y-106723866D01*
X82166666Y-106723866D02*
X82119047Y-106914342D01*
X82119047Y-106914342D02*
X82071428Y-107009580D01*
X82071428Y-107009580D02*
X82023809Y-107057200D01*
X82023809Y-107057200D02*
X81928571Y-107104819D01*
X81928571Y-107104819D02*
X81833333Y-107104819D01*
X81833333Y-107104819D02*
X81738095Y-107057200D01*
X81738095Y-107057200D02*
X81690476Y-107009580D01*
X81690476Y-107009580D02*
X81642857Y-106914342D01*
X81642857Y-106914342D02*
X81595238Y-106723866D01*
X81595238Y-106723866D02*
X81595238Y-106485771D01*
X81595238Y-106485771D02*
X81642857Y-106295295D01*
X81642857Y-106295295D02*
X81690476Y-106200057D01*
X81690476Y-106200057D02*
X81738095Y-106152438D01*
X81738095Y-106152438D02*
X81833333Y-106104819D01*
X82547619Y-107104819D02*
X82785714Y-107104819D01*
X82785714Y-107104819D02*
X82785714Y-106914342D01*
X82785714Y-106914342D02*
X82690476Y-106866723D01*
X82690476Y-106866723D02*
X82595238Y-106771485D01*
X82595238Y-106771485D02*
X82547619Y-106628628D01*
X82547619Y-106628628D02*
X82547619Y-106390533D01*
X82547619Y-106390533D02*
X82595238Y-106247676D01*
X82595238Y-106247676D02*
X82690476Y-106152438D01*
X82690476Y-106152438D02*
X82833333Y-106104819D01*
X82833333Y-106104819D02*
X83023809Y-106104819D01*
X83023809Y-106104819D02*
X83166666Y-106152438D01*
X83166666Y-106152438D02*
X83261904Y-106247676D01*
X83261904Y-106247676D02*
X83309523Y-106390533D01*
X83309523Y-106390533D02*
X83309523Y-106628628D01*
X83309523Y-106628628D02*
X83261904Y-106771485D01*
X83261904Y-106771485D02*
X83166666Y-106866723D01*
X83166666Y-106866723D02*
X83071428Y-106914342D01*
X83071428Y-106914342D02*
X83071428Y-107104819D01*
X83071428Y-107104819D02*
X83309523Y-107104819D01*
X83920833Y-81804819D02*
X83587500Y-81328628D01*
X83349405Y-81804819D02*
X83349405Y-80804819D01*
X83349405Y-80804819D02*
X83730357Y-80804819D01*
X83730357Y-80804819D02*
X83825595Y-80852438D01*
X83825595Y-80852438D02*
X83873214Y-80900057D01*
X83873214Y-80900057D02*
X83920833Y-80995295D01*
X83920833Y-80995295D02*
X83920833Y-81138152D01*
X83920833Y-81138152D02*
X83873214Y-81233390D01*
X83873214Y-81233390D02*
X83825595Y-81281009D01*
X83825595Y-81281009D02*
X83730357Y-81328628D01*
X83730357Y-81328628D02*
X83349405Y-81328628D01*
X84301786Y-80900057D02*
X84349405Y-80852438D01*
X84349405Y-80852438D02*
X84444643Y-80804819D01*
X84444643Y-80804819D02*
X84682738Y-80804819D01*
X84682738Y-80804819D02*
X84777976Y-80852438D01*
X84777976Y-80852438D02*
X84825595Y-80900057D01*
X84825595Y-80900057D02*
X84873214Y-80995295D01*
X84873214Y-80995295D02*
X84873214Y-81090533D01*
X84873214Y-81090533D02*
X84825595Y-81233390D01*
X84825595Y-81233390D02*
X84254167Y-81804819D01*
X84254167Y-81804819D02*
X84873214Y-81804819D01*
X81261904Y-85104819D02*
X80690476Y-85104819D01*
X80976190Y-85104819D02*
X80976190Y-84104819D01*
X80976190Y-84104819D02*
X80880952Y-84247676D01*
X80880952Y-84247676D02*
X80785714Y-84342914D01*
X80785714Y-84342914D02*
X80690476Y-84390533D01*
X81642857Y-84200057D02*
X81690476Y-84152438D01*
X81690476Y-84152438D02*
X81785714Y-84104819D01*
X81785714Y-84104819D02*
X82023809Y-84104819D01*
X82023809Y-84104819D02*
X82119047Y-84152438D01*
X82119047Y-84152438D02*
X82166666Y-84200057D01*
X82166666Y-84200057D02*
X82214285Y-84295295D01*
X82214285Y-84295295D02*
X82214285Y-84390533D01*
X82214285Y-84390533D02*
X82166666Y-84533390D01*
X82166666Y-84533390D02*
X81595238Y-85104819D01*
X81595238Y-85104819D02*
X82214285Y-85104819D01*
X82833333Y-84104819D02*
X82928571Y-84104819D01*
X82928571Y-84104819D02*
X83023809Y-84152438D01*
X83023809Y-84152438D02*
X83071428Y-84200057D01*
X83071428Y-84200057D02*
X83119047Y-84295295D01*
X83119047Y-84295295D02*
X83166666Y-84485771D01*
X83166666Y-84485771D02*
X83166666Y-84723866D01*
X83166666Y-84723866D02*
X83119047Y-84914342D01*
X83119047Y-84914342D02*
X83071428Y-85009580D01*
X83071428Y-85009580D02*
X83023809Y-85057200D01*
X83023809Y-85057200D02*
X82928571Y-85104819D01*
X82928571Y-85104819D02*
X82833333Y-85104819D01*
X82833333Y-85104819D02*
X82738095Y-85057200D01*
X82738095Y-85057200D02*
X82690476Y-85009580D01*
X82690476Y-85009580D02*
X82642857Y-84914342D01*
X82642857Y-84914342D02*
X82595238Y-84723866D01*
X82595238Y-84723866D02*
X82595238Y-84485771D01*
X82595238Y-84485771D02*
X82642857Y-84295295D01*
X82642857Y-84295295D02*
X82690476Y-84200057D01*
X82690476Y-84200057D02*
X82738095Y-84152438D01*
X82738095Y-84152438D02*
X82833333Y-84104819D01*
X83547619Y-85104819D02*
X83785714Y-85104819D01*
X83785714Y-85104819D02*
X83785714Y-84914342D01*
X83785714Y-84914342D02*
X83690476Y-84866723D01*
X83690476Y-84866723D02*
X83595238Y-84771485D01*
X83595238Y-84771485D02*
X83547619Y-84628628D01*
X83547619Y-84628628D02*
X83547619Y-84390533D01*
X83547619Y-84390533D02*
X83595238Y-84247676D01*
X83595238Y-84247676D02*
X83690476Y-84152438D01*
X83690476Y-84152438D02*
X83833333Y-84104819D01*
X83833333Y-84104819D02*
X84023809Y-84104819D01*
X84023809Y-84104819D02*
X84166666Y-84152438D01*
X84166666Y-84152438D02*
X84261904Y-84247676D01*
X84261904Y-84247676D02*
X84309523Y-84390533D01*
X84309523Y-84390533D02*
X84309523Y-84628628D01*
X84309523Y-84628628D02*
X84261904Y-84771485D01*
X84261904Y-84771485D02*
X84166666Y-84866723D01*
X84166666Y-84866723D02*
X84071428Y-84914342D01*
X84071428Y-84914342D02*
X84071428Y-85104819D01*
X84071428Y-85104819D02*
X84309523Y-85104819D01*
X83370833Y-59804819D02*
X83037500Y-59328628D01*
X82799405Y-59804819D02*
X82799405Y-58804819D01*
X82799405Y-58804819D02*
X83180357Y-58804819D01*
X83180357Y-58804819D02*
X83275595Y-58852438D01*
X83275595Y-58852438D02*
X83323214Y-58900057D01*
X83323214Y-58900057D02*
X83370833Y-58995295D01*
X83370833Y-58995295D02*
X83370833Y-59138152D01*
X83370833Y-59138152D02*
X83323214Y-59233390D01*
X83323214Y-59233390D02*
X83275595Y-59281009D01*
X83275595Y-59281009D02*
X83180357Y-59328628D01*
X83180357Y-59328628D02*
X82799405Y-59328628D01*
X84323214Y-59804819D02*
X83751786Y-59804819D01*
X84037500Y-59804819D02*
X84037500Y-58804819D01*
X84037500Y-58804819D02*
X83942262Y-58947676D01*
X83942262Y-58947676D02*
X83847024Y-59042914D01*
X83847024Y-59042914D02*
X83751786Y-59090533D01*
X81261904Y-63104819D02*
X80690476Y-63104819D01*
X80976190Y-63104819D02*
X80976190Y-62104819D01*
X80976190Y-62104819D02*
X80880952Y-62247676D01*
X80880952Y-62247676D02*
X80785714Y-62342914D01*
X80785714Y-62342914D02*
X80690476Y-62390533D01*
X81642857Y-62200057D02*
X81690476Y-62152438D01*
X81690476Y-62152438D02*
X81785714Y-62104819D01*
X81785714Y-62104819D02*
X82023809Y-62104819D01*
X82023809Y-62104819D02*
X82119047Y-62152438D01*
X82119047Y-62152438D02*
X82166666Y-62200057D01*
X82166666Y-62200057D02*
X82214285Y-62295295D01*
X82214285Y-62295295D02*
X82214285Y-62390533D01*
X82214285Y-62390533D02*
X82166666Y-62533390D01*
X82166666Y-62533390D02*
X81595238Y-63104819D01*
X81595238Y-63104819D02*
X82214285Y-63104819D01*
X82833333Y-62104819D02*
X82928571Y-62104819D01*
X82928571Y-62104819D02*
X83023809Y-62152438D01*
X83023809Y-62152438D02*
X83071428Y-62200057D01*
X83071428Y-62200057D02*
X83119047Y-62295295D01*
X83119047Y-62295295D02*
X83166666Y-62485771D01*
X83166666Y-62485771D02*
X83166666Y-62723866D01*
X83166666Y-62723866D02*
X83119047Y-62914342D01*
X83119047Y-62914342D02*
X83071428Y-63009580D01*
X83071428Y-63009580D02*
X83023809Y-63057200D01*
X83023809Y-63057200D02*
X82928571Y-63104819D01*
X82928571Y-63104819D02*
X82833333Y-63104819D01*
X82833333Y-63104819D02*
X82738095Y-63057200D01*
X82738095Y-63057200D02*
X82690476Y-63009580D01*
X82690476Y-63009580D02*
X82642857Y-62914342D01*
X82642857Y-62914342D02*
X82595238Y-62723866D01*
X82595238Y-62723866D02*
X82595238Y-62485771D01*
X82595238Y-62485771D02*
X82642857Y-62295295D01*
X82642857Y-62295295D02*
X82690476Y-62200057D01*
X82690476Y-62200057D02*
X82738095Y-62152438D01*
X82738095Y-62152438D02*
X82833333Y-62104819D01*
X83547619Y-63104819D02*
X83785714Y-63104819D01*
X83785714Y-63104819D02*
X83785714Y-62914342D01*
X83785714Y-62914342D02*
X83690476Y-62866723D01*
X83690476Y-62866723D02*
X83595238Y-62771485D01*
X83595238Y-62771485D02*
X83547619Y-62628628D01*
X83547619Y-62628628D02*
X83547619Y-62390533D01*
X83547619Y-62390533D02*
X83595238Y-62247676D01*
X83595238Y-62247676D02*
X83690476Y-62152438D01*
X83690476Y-62152438D02*
X83833333Y-62104819D01*
X83833333Y-62104819D02*
X84023809Y-62104819D01*
X84023809Y-62104819D02*
X84166666Y-62152438D01*
X84166666Y-62152438D02*
X84261904Y-62247676D01*
X84261904Y-62247676D02*
X84309523Y-62390533D01*
X84309523Y-62390533D02*
X84309523Y-62628628D01*
X84309523Y-62628628D02*
X84261904Y-62771485D01*
X84261904Y-62771485D02*
X84166666Y-62866723D01*
X84166666Y-62866723D02*
X84071428Y-62914342D01*
X84071428Y-62914342D02*
X84071428Y-63104819D01*
X84071428Y-63104819D02*
X84309523Y-63104819D01*
X86316666Y-130654819D02*
X86316666Y-131369104D01*
X86316666Y-131369104D02*
X86269047Y-131511961D01*
X86269047Y-131511961D02*
X86173809Y-131607200D01*
X86173809Y-131607200D02*
X86030952Y-131654819D01*
X86030952Y-131654819D02*
X85935714Y-131654819D01*
X86792857Y-131654819D02*
X86792857Y-130654819D01*
X86792857Y-130654819D02*
X87173809Y-130654819D01*
X87173809Y-130654819D02*
X87269047Y-130702438D01*
X87269047Y-130702438D02*
X87316666Y-130750057D01*
X87316666Y-130750057D02*
X87364285Y-130845295D01*
X87364285Y-130845295D02*
X87364285Y-130988152D01*
X87364285Y-130988152D02*
X87316666Y-131083390D01*
X87316666Y-131083390D02*
X87269047Y-131131009D01*
X87269047Y-131131009D02*
X87173809Y-131178628D01*
X87173809Y-131178628D02*
X86792857Y-131178628D01*
X88221428Y-130988152D02*
X88221428Y-131654819D01*
X87983333Y-130607200D02*
X87745238Y-131321485D01*
X87745238Y-131321485D02*
X88364285Y-131321485D01*
X80388094Y-135307200D02*
X80530951Y-135354819D01*
X80530951Y-135354819D02*
X80769046Y-135354819D01*
X80769046Y-135354819D02*
X80864284Y-135307200D01*
X80864284Y-135307200D02*
X80911903Y-135259580D01*
X80911903Y-135259580D02*
X80959522Y-135164342D01*
X80959522Y-135164342D02*
X80959522Y-135069104D01*
X80959522Y-135069104D02*
X80911903Y-134973866D01*
X80911903Y-134973866D02*
X80864284Y-134926247D01*
X80864284Y-134926247D02*
X80769046Y-134878628D01*
X80769046Y-134878628D02*
X80578570Y-134831009D01*
X80578570Y-134831009D02*
X80483332Y-134783390D01*
X80483332Y-134783390D02*
X80435713Y-134735771D01*
X80435713Y-134735771D02*
X80388094Y-134640533D01*
X80388094Y-134640533D02*
X80388094Y-134545295D01*
X80388094Y-134545295D02*
X80435713Y-134450057D01*
X80435713Y-134450057D02*
X80483332Y-134402438D01*
X80483332Y-134402438D02*
X80578570Y-134354819D01*
X80578570Y-134354819D02*
X80816665Y-134354819D01*
X80816665Y-134354819D02*
X80959522Y-134402438D01*
X81530951Y-135354819D02*
X81435713Y-135307200D01*
X81435713Y-135307200D02*
X81388094Y-135259580D01*
X81388094Y-135259580D02*
X81340475Y-135164342D01*
X81340475Y-135164342D02*
X81340475Y-134878628D01*
X81340475Y-134878628D02*
X81388094Y-134783390D01*
X81388094Y-134783390D02*
X81435713Y-134735771D01*
X81435713Y-134735771D02*
X81530951Y-134688152D01*
X81530951Y-134688152D02*
X81673808Y-134688152D01*
X81673808Y-134688152D02*
X81769046Y-134735771D01*
X81769046Y-134735771D02*
X81816665Y-134783390D01*
X81816665Y-134783390D02*
X81864284Y-134878628D01*
X81864284Y-134878628D02*
X81864284Y-135164342D01*
X81864284Y-135164342D02*
X81816665Y-135259580D01*
X81816665Y-135259580D02*
X81769046Y-135307200D01*
X81769046Y-135307200D02*
X81673808Y-135354819D01*
X81673808Y-135354819D02*
X81530951Y-135354819D01*
X82435713Y-135354819D02*
X82340475Y-135307200D01*
X82340475Y-135307200D02*
X82292856Y-135211961D01*
X82292856Y-135211961D02*
X82292856Y-134354819D01*
X83245237Y-135354819D02*
X83245237Y-134354819D01*
X83245237Y-135307200D02*
X83149999Y-135354819D01*
X83149999Y-135354819D02*
X82959523Y-135354819D01*
X82959523Y-135354819D02*
X82864285Y-135307200D01*
X82864285Y-135307200D02*
X82816666Y-135259580D01*
X82816666Y-135259580D02*
X82769047Y-135164342D01*
X82769047Y-135164342D02*
X82769047Y-134878628D01*
X82769047Y-134878628D02*
X82816666Y-134783390D01*
X82816666Y-134783390D02*
X82864285Y-134735771D01*
X82864285Y-134735771D02*
X82959523Y-134688152D01*
X82959523Y-134688152D02*
X83149999Y-134688152D01*
X83149999Y-134688152D02*
X83245237Y-134735771D01*
X84102380Y-135307200D02*
X84007142Y-135354819D01*
X84007142Y-135354819D02*
X83816666Y-135354819D01*
X83816666Y-135354819D02*
X83721428Y-135307200D01*
X83721428Y-135307200D02*
X83673809Y-135211961D01*
X83673809Y-135211961D02*
X83673809Y-134831009D01*
X83673809Y-134831009D02*
X83721428Y-134735771D01*
X83721428Y-134735771D02*
X83816666Y-134688152D01*
X83816666Y-134688152D02*
X84007142Y-134688152D01*
X84007142Y-134688152D02*
X84102380Y-134735771D01*
X84102380Y-134735771D02*
X84149999Y-134831009D01*
X84149999Y-134831009D02*
X84149999Y-134926247D01*
X84149999Y-134926247D02*
X83673809Y-135021485D01*
X84578571Y-135354819D02*
X84578571Y-134688152D01*
X84578571Y-134878628D02*
X84626190Y-134783390D01*
X84626190Y-134783390D02*
X84673809Y-134735771D01*
X84673809Y-134735771D02*
X84769047Y-134688152D01*
X84769047Y-134688152D02*
X84864285Y-134688152D01*
X85483333Y-134354819D02*
X85483333Y-135069104D01*
X85483333Y-135069104D02*
X85435714Y-135211961D01*
X85435714Y-135211961D02*
X85340476Y-135307200D01*
X85340476Y-135307200D02*
X85197619Y-135354819D01*
X85197619Y-135354819D02*
X85102381Y-135354819D01*
X86388095Y-134688152D02*
X86388095Y-135354819D01*
X85959524Y-134688152D02*
X85959524Y-135211961D01*
X85959524Y-135211961D02*
X86007143Y-135307200D01*
X86007143Y-135307200D02*
X86102381Y-135354819D01*
X86102381Y-135354819D02*
X86245238Y-135354819D01*
X86245238Y-135354819D02*
X86340476Y-135307200D01*
X86340476Y-135307200D02*
X86388095Y-135259580D01*
X86864286Y-135354819D02*
X86864286Y-134688152D01*
X86864286Y-134783390D02*
X86911905Y-134735771D01*
X86911905Y-134735771D02*
X87007143Y-134688152D01*
X87007143Y-134688152D02*
X87150000Y-134688152D01*
X87150000Y-134688152D02*
X87245238Y-134735771D01*
X87245238Y-134735771D02*
X87292857Y-134831009D01*
X87292857Y-134831009D02*
X87292857Y-135354819D01*
X87292857Y-134831009D02*
X87340476Y-134735771D01*
X87340476Y-134735771D02*
X87435714Y-134688152D01*
X87435714Y-134688152D02*
X87578571Y-134688152D01*
X87578571Y-134688152D02*
X87673810Y-134735771D01*
X87673810Y-134735771D02*
X87721429Y-134831009D01*
X87721429Y-134831009D02*
X87721429Y-135354819D01*
X88197619Y-134688152D02*
X88197619Y-135688152D01*
X88197619Y-134735771D02*
X88292857Y-134688152D01*
X88292857Y-134688152D02*
X88483333Y-134688152D01*
X88483333Y-134688152D02*
X88578571Y-134735771D01*
X88578571Y-134735771D02*
X88626190Y-134783390D01*
X88626190Y-134783390D02*
X88673809Y-134878628D01*
X88673809Y-134878628D02*
X88673809Y-135164342D01*
X88673809Y-135164342D02*
X88626190Y-135259580D01*
X88626190Y-135259580D02*
X88578571Y-135307200D01*
X88578571Y-135307200D02*
X88483333Y-135354819D01*
X88483333Y-135354819D02*
X88292857Y-135354819D01*
X88292857Y-135354819D02*
X88197619Y-135307200D01*
X89483333Y-135307200D02*
X89388095Y-135354819D01*
X89388095Y-135354819D02*
X89197619Y-135354819D01*
X89197619Y-135354819D02*
X89102381Y-135307200D01*
X89102381Y-135307200D02*
X89054762Y-135211961D01*
X89054762Y-135211961D02*
X89054762Y-134831009D01*
X89054762Y-134831009D02*
X89102381Y-134735771D01*
X89102381Y-134735771D02*
X89197619Y-134688152D01*
X89197619Y-134688152D02*
X89388095Y-134688152D01*
X89388095Y-134688152D02*
X89483333Y-134735771D01*
X89483333Y-134735771D02*
X89530952Y-134831009D01*
X89530952Y-134831009D02*
X89530952Y-134926247D01*
X89530952Y-134926247D02*
X89054762Y-135021485D01*
X89959524Y-135354819D02*
X89959524Y-134688152D01*
X89959524Y-134878628D02*
X90007143Y-134783390D01*
X90007143Y-134783390D02*
X90054762Y-134735771D01*
X90054762Y-134735771D02*
X90150000Y-134688152D01*
X90150000Y-134688152D02*
X90245238Y-134688152D01*
X91911905Y-135259580D02*
X91864286Y-135307200D01*
X91864286Y-135307200D02*
X91721429Y-135354819D01*
X91721429Y-135354819D02*
X91626191Y-135354819D01*
X91626191Y-135354819D02*
X91483334Y-135307200D01*
X91483334Y-135307200D02*
X91388096Y-135211961D01*
X91388096Y-135211961D02*
X91340477Y-135116723D01*
X91340477Y-135116723D02*
X91292858Y-134926247D01*
X91292858Y-134926247D02*
X91292858Y-134783390D01*
X91292858Y-134783390D02*
X91340477Y-134592914D01*
X91340477Y-134592914D02*
X91388096Y-134497676D01*
X91388096Y-134497676D02*
X91483334Y-134402438D01*
X91483334Y-134402438D02*
X91626191Y-134354819D01*
X91626191Y-134354819D02*
X91721429Y-134354819D01*
X91721429Y-134354819D02*
X91864286Y-134402438D01*
X91864286Y-134402438D02*
X91911905Y-134450057D01*
X92340477Y-135354819D02*
X92340477Y-134354819D01*
X92340477Y-134831009D02*
X92911905Y-134831009D01*
X92911905Y-135354819D02*
X92911905Y-134354819D01*
X93816667Y-134688152D02*
X93816667Y-135354819D01*
X93578572Y-134307200D02*
X93340477Y-135021485D01*
X93340477Y-135021485D02*
X93959524Y-135021485D01*
X87016666Y-109654819D02*
X87016666Y-110369104D01*
X87016666Y-110369104D02*
X86969047Y-110511961D01*
X86969047Y-110511961D02*
X86873809Y-110607200D01*
X86873809Y-110607200D02*
X86730952Y-110654819D01*
X86730952Y-110654819D02*
X86635714Y-110654819D01*
X87492857Y-110654819D02*
X87492857Y-109654819D01*
X87492857Y-109654819D02*
X87873809Y-109654819D01*
X87873809Y-109654819D02*
X87969047Y-109702438D01*
X87969047Y-109702438D02*
X88016666Y-109750057D01*
X88016666Y-109750057D02*
X88064285Y-109845295D01*
X88064285Y-109845295D02*
X88064285Y-109988152D01*
X88064285Y-109988152D02*
X88016666Y-110083390D01*
X88016666Y-110083390D02*
X87969047Y-110131009D01*
X87969047Y-110131009D02*
X87873809Y-110178628D01*
X87873809Y-110178628D02*
X87492857Y-110178628D01*
X88397619Y-109654819D02*
X89016666Y-109654819D01*
X89016666Y-109654819D02*
X88683333Y-110035771D01*
X88683333Y-110035771D02*
X88826190Y-110035771D01*
X88826190Y-110035771D02*
X88921428Y-110083390D01*
X88921428Y-110083390D02*
X88969047Y-110131009D01*
X88969047Y-110131009D02*
X89016666Y-110226247D01*
X89016666Y-110226247D02*
X89016666Y-110464342D01*
X89016666Y-110464342D02*
X88969047Y-110559580D01*
X88969047Y-110559580D02*
X88921428Y-110607200D01*
X88921428Y-110607200D02*
X88826190Y-110654819D01*
X88826190Y-110654819D02*
X88540476Y-110654819D01*
X88540476Y-110654819D02*
X88445238Y-110607200D01*
X88445238Y-110607200D02*
X88397619Y-110559580D01*
X81088094Y-114307200D02*
X81230951Y-114354819D01*
X81230951Y-114354819D02*
X81469046Y-114354819D01*
X81469046Y-114354819D02*
X81564284Y-114307200D01*
X81564284Y-114307200D02*
X81611903Y-114259580D01*
X81611903Y-114259580D02*
X81659522Y-114164342D01*
X81659522Y-114164342D02*
X81659522Y-114069104D01*
X81659522Y-114069104D02*
X81611903Y-113973866D01*
X81611903Y-113973866D02*
X81564284Y-113926247D01*
X81564284Y-113926247D02*
X81469046Y-113878628D01*
X81469046Y-113878628D02*
X81278570Y-113831009D01*
X81278570Y-113831009D02*
X81183332Y-113783390D01*
X81183332Y-113783390D02*
X81135713Y-113735771D01*
X81135713Y-113735771D02*
X81088094Y-113640533D01*
X81088094Y-113640533D02*
X81088094Y-113545295D01*
X81088094Y-113545295D02*
X81135713Y-113450057D01*
X81135713Y-113450057D02*
X81183332Y-113402438D01*
X81183332Y-113402438D02*
X81278570Y-113354819D01*
X81278570Y-113354819D02*
X81516665Y-113354819D01*
X81516665Y-113354819D02*
X81659522Y-113402438D01*
X82230951Y-114354819D02*
X82135713Y-114307200D01*
X82135713Y-114307200D02*
X82088094Y-114259580D01*
X82088094Y-114259580D02*
X82040475Y-114164342D01*
X82040475Y-114164342D02*
X82040475Y-113878628D01*
X82040475Y-113878628D02*
X82088094Y-113783390D01*
X82088094Y-113783390D02*
X82135713Y-113735771D01*
X82135713Y-113735771D02*
X82230951Y-113688152D01*
X82230951Y-113688152D02*
X82373808Y-113688152D01*
X82373808Y-113688152D02*
X82469046Y-113735771D01*
X82469046Y-113735771D02*
X82516665Y-113783390D01*
X82516665Y-113783390D02*
X82564284Y-113878628D01*
X82564284Y-113878628D02*
X82564284Y-114164342D01*
X82564284Y-114164342D02*
X82516665Y-114259580D01*
X82516665Y-114259580D02*
X82469046Y-114307200D01*
X82469046Y-114307200D02*
X82373808Y-114354819D01*
X82373808Y-114354819D02*
X82230951Y-114354819D01*
X83135713Y-114354819D02*
X83040475Y-114307200D01*
X83040475Y-114307200D02*
X82992856Y-114211961D01*
X82992856Y-114211961D02*
X82992856Y-113354819D01*
X83945237Y-114354819D02*
X83945237Y-113354819D01*
X83945237Y-114307200D02*
X83849999Y-114354819D01*
X83849999Y-114354819D02*
X83659523Y-114354819D01*
X83659523Y-114354819D02*
X83564285Y-114307200D01*
X83564285Y-114307200D02*
X83516666Y-114259580D01*
X83516666Y-114259580D02*
X83469047Y-114164342D01*
X83469047Y-114164342D02*
X83469047Y-113878628D01*
X83469047Y-113878628D02*
X83516666Y-113783390D01*
X83516666Y-113783390D02*
X83564285Y-113735771D01*
X83564285Y-113735771D02*
X83659523Y-113688152D01*
X83659523Y-113688152D02*
X83849999Y-113688152D01*
X83849999Y-113688152D02*
X83945237Y-113735771D01*
X84802380Y-114307200D02*
X84707142Y-114354819D01*
X84707142Y-114354819D02*
X84516666Y-114354819D01*
X84516666Y-114354819D02*
X84421428Y-114307200D01*
X84421428Y-114307200D02*
X84373809Y-114211961D01*
X84373809Y-114211961D02*
X84373809Y-113831009D01*
X84373809Y-113831009D02*
X84421428Y-113735771D01*
X84421428Y-113735771D02*
X84516666Y-113688152D01*
X84516666Y-113688152D02*
X84707142Y-113688152D01*
X84707142Y-113688152D02*
X84802380Y-113735771D01*
X84802380Y-113735771D02*
X84849999Y-113831009D01*
X84849999Y-113831009D02*
X84849999Y-113926247D01*
X84849999Y-113926247D02*
X84373809Y-114021485D01*
X85278571Y-114354819D02*
X85278571Y-113688152D01*
X85278571Y-113878628D02*
X85326190Y-113783390D01*
X85326190Y-113783390D02*
X85373809Y-113735771D01*
X85373809Y-113735771D02*
X85469047Y-113688152D01*
X85469047Y-113688152D02*
X85564285Y-113688152D01*
X86183333Y-113354819D02*
X86183333Y-114069104D01*
X86183333Y-114069104D02*
X86135714Y-114211961D01*
X86135714Y-114211961D02*
X86040476Y-114307200D01*
X86040476Y-114307200D02*
X85897619Y-114354819D01*
X85897619Y-114354819D02*
X85802381Y-114354819D01*
X87088095Y-113688152D02*
X87088095Y-114354819D01*
X86659524Y-113688152D02*
X86659524Y-114211961D01*
X86659524Y-114211961D02*
X86707143Y-114307200D01*
X86707143Y-114307200D02*
X86802381Y-114354819D01*
X86802381Y-114354819D02*
X86945238Y-114354819D01*
X86945238Y-114354819D02*
X87040476Y-114307200D01*
X87040476Y-114307200D02*
X87088095Y-114259580D01*
X87564286Y-114354819D02*
X87564286Y-113688152D01*
X87564286Y-113783390D02*
X87611905Y-113735771D01*
X87611905Y-113735771D02*
X87707143Y-113688152D01*
X87707143Y-113688152D02*
X87850000Y-113688152D01*
X87850000Y-113688152D02*
X87945238Y-113735771D01*
X87945238Y-113735771D02*
X87992857Y-113831009D01*
X87992857Y-113831009D02*
X87992857Y-114354819D01*
X87992857Y-113831009D02*
X88040476Y-113735771D01*
X88040476Y-113735771D02*
X88135714Y-113688152D01*
X88135714Y-113688152D02*
X88278571Y-113688152D01*
X88278571Y-113688152D02*
X88373810Y-113735771D01*
X88373810Y-113735771D02*
X88421429Y-113831009D01*
X88421429Y-113831009D02*
X88421429Y-114354819D01*
X88897619Y-113688152D02*
X88897619Y-114688152D01*
X88897619Y-113735771D02*
X88992857Y-113688152D01*
X88992857Y-113688152D02*
X89183333Y-113688152D01*
X89183333Y-113688152D02*
X89278571Y-113735771D01*
X89278571Y-113735771D02*
X89326190Y-113783390D01*
X89326190Y-113783390D02*
X89373809Y-113878628D01*
X89373809Y-113878628D02*
X89373809Y-114164342D01*
X89373809Y-114164342D02*
X89326190Y-114259580D01*
X89326190Y-114259580D02*
X89278571Y-114307200D01*
X89278571Y-114307200D02*
X89183333Y-114354819D01*
X89183333Y-114354819D02*
X88992857Y-114354819D01*
X88992857Y-114354819D02*
X88897619Y-114307200D01*
X90183333Y-114307200D02*
X90088095Y-114354819D01*
X90088095Y-114354819D02*
X89897619Y-114354819D01*
X89897619Y-114354819D02*
X89802381Y-114307200D01*
X89802381Y-114307200D02*
X89754762Y-114211961D01*
X89754762Y-114211961D02*
X89754762Y-113831009D01*
X89754762Y-113831009D02*
X89802381Y-113735771D01*
X89802381Y-113735771D02*
X89897619Y-113688152D01*
X89897619Y-113688152D02*
X90088095Y-113688152D01*
X90088095Y-113688152D02*
X90183333Y-113735771D01*
X90183333Y-113735771D02*
X90230952Y-113831009D01*
X90230952Y-113831009D02*
X90230952Y-113926247D01*
X90230952Y-113926247D02*
X89754762Y-114021485D01*
X90659524Y-114354819D02*
X90659524Y-113688152D01*
X90659524Y-113878628D02*
X90707143Y-113783390D01*
X90707143Y-113783390D02*
X90754762Y-113735771D01*
X90754762Y-113735771D02*
X90850000Y-113688152D01*
X90850000Y-113688152D02*
X90945238Y-113688152D01*
X92611905Y-114259580D02*
X92564286Y-114307200D01*
X92564286Y-114307200D02*
X92421429Y-114354819D01*
X92421429Y-114354819D02*
X92326191Y-114354819D01*
X92326191Y-114354819D02*
X92183334Y-114307200D01*
X92183334Y-114307200D02*
X92088096Y-114211961D01*
X92088096Y-114211961D02*
X92040477Y-114116723D01*
X92040477Y-114116723D02*
X91992858Y-113926247D01*
X91992858Y-113926247D02*
X91992858Y-113783390D01*
X91992858Y-113783390D02*
X92040477Y-113592914D01*
X92040477Y-113592914D02*
X92088096Y-113497676D01*
X92088096Y-113497676D02*
X92183334Y-113402438D01*
X92183334Y-113402438D02*
X92326191Y-113354819D01*
X92326191Y-113354819D02*
X92421429Y-113354819D01*
X92421429Y-113354819D02*
X92564286Y-113402438D01*
X92564286Y-113402438D02*
X92611905Y-113450057D01*
X93040477Y-114354819D02*
X93040477Y-113354819D01*
X93040477Y-113831009D02*
X93611905Y-113831009D01*
X93611905Y-114354819D02*
X93611905Y-113354819D01*
X93992858Y-113354819D02*
X94611905Y-113354819D01*
X94611905Y-113354819D02*
X94278572Y-113735771D01*
X94278572Y-113735771D02*
X94421429Y-113735771D01*
X94421429Y-113735771D02*
X94516667Y-113783390D01*
X94516667Y-113783390D02*
X94564286Y-113831009D01*
X94564286Y-113831009D02*
X94611905Y-113926247D01*
X94611905Y-113926247D02*
X94611905Y-114164342D01*
X94611905Y-114164342D02*
X94564286Y-114259580D01*
X94564286Y-114259580D02*
X94516667Y-114307200D01*
X94516667Y-114307200D02*
X94421429Y-114354819D01*
X94421429Y-114354819D02*
X94135715Y-114354819D01*
X94135715Y-114354819D02*
X94040477Y-114307200D01*
X94040477Y-114307200D02*
X93992858Y-114259580D01*
X87016666Y-88154819D02*
X87016666Y-88869104D01*
X87016666Y-88869104D02*
X86969047Y-89011961D01*
X86969047Y-89011961D02*
X86873809Y-89107200D01*
X86873809Y-89107200D02*
X86730952Y-89154819D01*
X86730952Y-89154819D02*
X86635714Y-89154819D01*
X87492857Y-89154819D02*
X87492857Y-88154819D01*
X87492857Y-88154819D02*
X87873809Y-88154819D01*
X87873809Y-88154819D02*
X87969047Y-88202438D01*
X87969047Y-88202438D02*
X88016666Y-88250057D01*
X88016666Y-88250057D02*
X88064285Y-88345295D01*
X88064285Y-88345295D02*
X88064285Y-88488152D01*
X88064285Y-88488152D02*
X88016666Y-88583390D01*
X88016666Y-88583390D02*
X87969047Y-88631009D01*
X87969047Y-88631009D02*
X87873809Y-88678628D01*
X87873809Y-88678628D02*
X87492857Y-88678628D01*
X88445238Y-88250057D02*
X88492857Y-88202438D01*
X88492857Y-88202438D02*
X88588095Y-88154819D01*
X88588095Y-88154819D02*
X88826190Y-88154819D01*
X88826190Y-88154819D02*
X88921428Y-88202438D01*
X88921428Y-88202438D02*
X88969047Y-88250057D01*
X88969047Y-88250057D02*
X89016666Y-88345295D01*
X89016666Y-88345295D02*
X89016666Y-88440533D01*
X89016666Y-88440533D02*
X88969047Y-88583390D01*
X88969047Y-88583390D02*
X88397619Y-89154819D01*
X88397619Y-89154819D02*
X89016666Y-89154819D01*
X81088094Y-92807200D02*
X81230951Y-92854819D01*
X81230951Y-92854819D02*
X81469046Y-92854819D01*
X81469046Y-92854819D02*
X81564284Y-92807200D01*
X81564284Y-92807200D02*
X81611903Y-92759580D01*
X81611903Y-92759580D02*
X81659522Y-92664342D01*
X81659522Y-92664342D02*
X81659522Y-92569104D01*
X81659522Y-92569104D02*
X81611903Y-92473866D01*
X81611903Y-92473866D02*
X81564284Y-92426247D01*
X81564284Y-92426247D02*
X81469046Y-92378628D01*
X81469046Y-92378628D02*
X81278570Y-92331009D01*
X81278570Y-92331009D02*
X81183332Y-92283390D01*
X81183332Y-92283390D02*
X81135713Y-92235771D01*
X81135713Y-92235771D02*
X81088094Y-92140533D01*
X81088094Y-92140533D02*
X81088094Y-92045295D01*
X81088094Y-92045295D02*
X81135713Y-91950057D01*
X81135713Y-91950057D02*
X81183332Y-91902438D01*
X81183332Y-91902438D02*
X81278570Y-91854819D01*
X81278570Y-91854819D02*
X81516665Y-91854819D01*
X81516665Y-91854819D02*
X81659522Y-91902438D01*
X82230951Y-92854819D02*
X82135713Y-92807200D01*
X82135713Y-92807200D02*
X82088094Y-92759580D01*
X82088094Y-92759580D02*
X82040475Y-92664342D01*
X82040475Y-92664342D02*
X82040475Y-92378628D01*
X82040475Y-92378628D02*
X82088094Y-92283390D01*
X82088094Y-92283390D02*
X82135713Y-92235771D01*
X82135713Y-92235771D02*
X82230951Y-92188152D01*
X82230951Y-92188152D02*
X82373808Y-92188152D01*
X82373808Y-92188152D02*
X82469046Y-92235771D01*
X82469046Y-92235771D02*
X82516665Y-92283390D01*
X82516665Y-92283390D02*
X82564284Y-92378628D01*
X82564284Y-92378628D02*
X82564284Y-92664342D01*
X82564284Y-92664342D02*
X82516665Y-92759580D01*
X82516665Y-92759580D02*
X82469046Y-92807200D01*
X82469046Y-92807200D02*
X82373808Y-92854819D01*
X82373808Y-92854819D02*
X82230951Y-92854819D01*
X83135713Y-92854819D02*
X83040475Y-92807200D01*
X83040475Y-92807200D02*
X82992856Y-92711961D01*
X82992856Y-92711961D02*
X82992856Y-91854819D01*
X83945237Y-92854819D02*
X83945237Y-91854819D01*
X83945237Y-92807200D02*
X83849999Y-92854819D01*
X83849999Y-92854819D02*
X83659523Y-92854819D01*
X83659523Y-92854819D02*
X83564285Y-92807200D01*
X83564285Y-92807200D02*
X83516666Y-92759580D01*
X83516666Y-92759580D02*
X83469047Y-92664342D01*
X83469047Y-92664342D02*
X83469047Y-92378628D01*
X83469047Y-92378628D02*
X83516666Y-92283390D01*
X83516666Y-92283390D02*
X83564285Y-92235771D01*
X83564285Y-92235771D02*
X83659523Y-92188152D01*
X83659523Y-92188152D02*
X83849999Y-92188152D01*
X83849999Y-92188152D02*
X83945237Y-92235771D01*
X84802380Y-92807200D02*
X84707142Y-92854819D01*
X84707142Y-92854819D02*
X84516666Y-92854819D01*
X84516666Y-92854819D02*
X84421428Y-92807200D01*
X84421428Y-92807200D02*
X84373809Y-92711961D01*
X84373809Y-92711961D02*
X84373809Y-92331009D01*
X84373809Y-92331009D02*
X84421428Y-92235771D01*
X84421428Y-92235771D02*
X84516666Y-92188152D01*
X84516666Y-92188152D02*
X84707142Y-92188152D01*
X84707142Y-92188152D02*
X84802380Y-92235771D01*
X84802380Y-92235771D02*
X84849999Y-92331009D01*
X84849999Y-92331009D02*
X84849999Y-92426247D01*
X84849999Y-92426247D02*
X84373809Y-92521485D01*
X85278571Y-92854819D02*
X85278571Y-92188152D01*
X85278571Y-92378628D02*
X85326190Y-92283390D01*
X85326190Y-92283390D02*
X85373809Y-92235771D01*
X85373809Y-92235771D02*
X85469047Y-92188152D01*
X85469047Y-92188152D02*
X85564285Y-92188152D01*
X86183333Y-91854819D02*
X86183333Y-92569104D01*
X86183333Y-92569104D02*
X86135714Y-92711961D01*
X86135714Y-92711961D02*
X86040476Y-92807200D01*
X86040476Y-92807200D02*
X85897619Y-92854819D01*
X85897619Y-92854819D02*
X85802381Y-92854819D01*
X87088095Y-92188152D02*
X87088095Y-92854819D01*
X86659524Y-92188152D02*
X86659524Y-92711961D01*
X86659524Y-92711961D02*
X86707143Y-92807200D01*
X86707143Y-92807200D02*
X86802381Y-92854819D01*
X86802381Y-92854819D02*
X86945238Y-92854819D01*
X86945238Y-92854819D02*
X87040476Y-92807200D01*
X87040476Y-92807200D02*
X87088095Y-92759580D01*
X87564286Y-92854819D02*
X87564286Y-92188152D01*
X87564286Y-92283390D02*
X87611905Y-92235771D01*
X87611905Y-92235771D02*
X87707143Y-92188152D01*
X87707143Y-92188152D02*
X87850000Y-92188152D01*
X87850000Y-92188152D02*
X87945238Y-92235771D01*
X87945238Y-92235771D02*
X87992857Y-92331009D01*
X87992857Y-92331009D02*
X87992857Y-92854819D01*
X87992857Y-92331009D02*
X88040476Y-92235771D01*
X88040476Y-92235771D02*
X88135714Y-92188152D01*
X88135714Y-92188152D02*
X88278571Y-92188152D01*
X88278571Y-92188152D02*
X88373810Y-92235771D01*
X88373810Y-92235771D02*
X88421429Y-92331009D01*
X88421429Y-92331009D02*
X88421429Y-92854819D01*
X88897619Y-92188152D02*
X88897619Y-93188152D01*
X88897619Y-92235771D02*
X88992857Y-92188152D01*
X88992857Y-92188152D02*
X89183333Y-92188152D01*
X89183333Y-92188152D02*
X89278571Y-92235771D01*
X89278571Y-92235771D02*
X89326190Y-92283390D01*
X89326190Y-92283390D02*
X89373809Y-92378628D01*
X89373809Y-92378628D02*
X89373809Y-92664342D01*
X89373809Y-92664342D02*
X89326190Y-92759580D01*
X89326190Y-92759580D02*
X89278571Y-92807200D01*
X89278571Y-92807200D02*
X89183333Y-92854819D01*
X89183333Y-92854819D02*
X88992857Y-92854819D01*
X88992857Y-92854819D02*
X88897619Y-92807200D01*
X90183333Y-92807200D02*
X90088095Y-92854819D01*
X90088095Y-92854819D02*
X89897619Y-92854819D01*
X89897619Y-92854819D02*
X89802381Y-92807200D01*
X89802381Y-92807200D02*
X89754762Y-92711961D01*
X89754762Y-92711961D02*
X89754762Y-92331009D01*
X89754762Y-92331009D02*
X89802381Y-92235771D01*
X89802381Y-92235771D02*
X89897619Y-92188152D01*
X89897619Y-92188152D02*
X90088095Y-92188152D01*
X90088095Y-92188152D02*
X90183333Y-92235771D01*
X90183333Y-92235771D02*
X90230952Y-92331009D01*
X90230952Y-92331009D02*
X90230952Y-92426247D01*
X90230952Y-92426247D02*
X89754762Y-92521485D01*
X90659524Y-92854819D02*
X90659524Y-92188152D01*
X90659524Y-92378628D02*
X90707143Y-92283390D01*
X90707143Y-92283390D02*
X90754762Y-92235771D01*
X90754762Y-92235771D02*
X90850000Y-92188152D01*
X90850000Y-92188152D02*
X90945238Y-92188152D01*
X92611905Y-92759580D02*
X92564286Y-92807200D01*
X92564286Y-92807200D02*
X92421429Y-92854819D01*
X92421429Y-92854819D02*
X92326191Y-92854819D01*
X92326191Y-92854819D02*
X92183334Y-92807200D01*
X92183334Y-92807200D02*
X92088096Y-92711961D01*
X92088096Y-92711961D02*
X92040477Y-92616723D01*
X92040477Y-92616723D02*
X91992858Y-92426247D01*
X91992858Y-92426247D02*
X91992858Y-92283390D01*
X91992858Y-92283390D02*
X92040477Y-92092914D01*
X92040477Y-92092914D02*
X92088096Y-91997676D01*
X92088096Y-91997676D02*
X92183334Y-91902438D01*
X92183334Y-91902438D02*
X92326191Y-91854819D01*
X92326191Y-91854819D02*
X92421429Y-91854819D01*
X92421429Y-91854819D02*
X92564286Y-91902438D01*
X92564286Y-91902438D02*
X92611905Y-91950057D01*
X93040477Y-92854819D02*
X93040477Y-91854819D01*
X93040477Y-92331009D02*
X93611905Y-92331009D01*
X93611905Y-92854819D02*
X93611905Y-91854819D01*
X94040477Y-91950057D02*
X94088096Y-91902438D01*
X94088096Y-91902438D02*
X94183334Y-91854819D01*
X94183334Y-91854819D02*
X94421429Y-91854819D01*
X94421429Y-91854819D02*
X94516667Y-91902438D01*
X94516667Y-91902438D02*
X94564286Y-91950057D01*
X94564286Y-91950057D02*
X94611905Y-92045295D01*
X94611905Y-92045295D02*
X94611905Y-92140533D01*
X94611905Y-92140533D02*
X94564286Y-92283390D01*
X94564286Y-92283390D02*
X93992858Y-92854819D01*
X93992858Y-92854819D02*
X94611905Y-92854819D01*
X86966666Y-65154819D02*
X86966666Y-65869104D01*
X86966666Y-65869104D02*
X86919047Y-66011961D01*
X86919047Y-66011961D02*
X86823809Y-66107200D01*
X86823809Y-66107200D02*
X86680952Y-66154819D01*
X86680952Y-66154819D02*
X86585714Y-66154819D01*
X87442857Y-66154819D02*
X87442857Y-65154819D01*
X87442857Y-65154819D02*
X87823809Y-65154819D01*
X87823809Y-65154819D02*
X87919047Y-65202438D01*
X87919047Y-65202438D02*
X87966666Y-65250057D01*
X87966666Y-65250057D02*
X88014285Y-65345295D01*
X88014285Y-65345295D02*
X88014285Y-65488152D01*
X88014285Y-65488152D02*
X87966666Y-65583390D01*
X87966666Y-65583390D02*
X87919047Y-65631009D01*
X87919047Y-65631009D02*
X87823809Y-65678628D01*
X87823809Y-65678628D02*
X87442857Y-65678628D01*
X88966666Y-66154819D02*
X88395238Y-66154819D01*
X88680952Y-66154819D02*
X88680952Y-65154819D01*
X88680952Y-65154819D02*
X88585714Y-65297676D01*
X88585714Y-65297676D02*
X88490476Y-65392914D01*
X88490476Y-65392914D02*
X88395238Y-65440533D01*
X81038094Y-69807200D02*
X81180951Y-69854819D01*
X81180951Y-69854819D02*
X81419046Y-69854819D01*
X81419046Y-69854819D02*
X81514284Y-69807200D01*
X81514284Y-69807200D02*
X81561903Y-69759580D01*
X81561903Y-69759580D02*
X81609522Y-69664342D01*
X81609522Y-69664342D02*
X81609522Y-69569104D01*
X81609522Y-69569104D02*
X81561903Y-69473866D01*
X81561903Y-69473866D02*
X81514284Y-69426247D01*
X81514284Y-69426247D02*
X81419046Y-69378628D01*
X81419046Y-69378628D02*
X81228570Y-69331009D01*
X81228570Y-69331009D02*
X81133332Y-69283390D01*
X81133332Y-69283390D02*
X81085713Y-69235771D01*
X81085713Y-69235771D02*
X81038094Y-69140533D01*
X81038094Y-69140533D02*
X81038094Y-69045295D01*
X81038094Y-69045295D02*
X81085713Y-68950057D01*
X81085713Y-68950057D02*
X81133332Y-68902438D01*
X81133332Y-68902438D02*
X81228570Y-68854819D01*
X81228570Y-68854819D02*
X81466665Y-68854819D01*
X81466665Y-68854819D02*
X81609522Y-68902438D01*
X82180951Y-69854819D02*
X82085713Y-69807200D01*
X82085713Y-69807200D02*
X82038094Y-69759580D01*
X82038094Y-69759580D02*
X81990475Y-69664342D01*
X81990475Y-69664342D02*
X81990475Y-69378628D01*
X81990475Y-69378628D02*
X82038094Y-69283390D01*
X82038094Y-69283390D02*
X82085713Y-69235771D01*
X82085713Y-69235771D02*
X82180951Y-69188152D01*
X82180951Y-69188152D02*
X82323808Y-69188152D01*
X82323808Y-69188152D02*
X82419046Y-69235771D01*
X82419046Y-69235771D02*
X82466665Y-69283390D01*
X82466665Y-69283390D02*
X82514284Y-69378628D01*
X82514284Y-69378628D02*
X82514284Y-69664342D01*
X82514284Y-69664342D02*
X82466665Y-69759580D01*
X82466665Y-69759580D02*
X82419046Y-69807200D01*
X82419046Y-69807200D02*
X82323808Y-69854819D01*
X82323808Y-69854819D02*
X82180951Y-69854819D01*
X83085713Y-69854819D02*
X82990475Y-69807200D01*
X82990475Y-69807200D02*
X82942856Y-69711961D01*
X82942856Y-69711961D02*
X82942856Y-68854819D01*
X83895237Y-69854819D02*
X83895237Y-68854819D01*
X83895237Y-69807200D02*
X83799999Y-69854819D01*
X83799999Y-69854819D02*
X83609523Y-69854819D01*
X83609523Y-69854819D02*
X83514285Y-69807200D01*
X83514285Y-69807200D02*
X83466666Y-69759580D01*
X83466666Y-69759580D02*
X83419047Y-69664342D01*
X83419047Y-69664342D02*
X83419047Y-69378628D01*
X83419047Y-69378628D02*
X83466666Y-69283390D01*
X83466666Y-69283390D02*
X83514285Y-69235771D01*
X83514285Y-69235771D02*
X83609523Y-69188152D01*
X83609523Y-69188152D02*
X83799999Y-69188152D01*
X83799999Y-69188152D02*
X83895237Y-69235771D01*
X84752380Y-69807200D02*
X84657142Y-69854819D01*
X84657142Y-69854819D02*
X84466666Y-69854819D01*
X84466666Y-69854819D02*
X84371428Y-69807200D01*
X84371428Y-69807200D02*
X84323809Y-69711961D01*
X84323809Y-69711961D02*
X84323809Y-69331009D01*
X84323809Y-69331009D02*
X84371428Y-69235771D01*
X84371428Y-69235771D02*
X84466666Y-69188152D01*
X84466666Y-69188152D02*
X84657142Y-69188152D01*
X84657142Y-69188152D02*
X84752380Y-69235771D01*
X84752380Y-69235771D02*
X84799999Y-69331009D01*
X84799999Y-69331009D02*
X84799999Y-69426247D01*
X84799999Y-69426247D02*
X84323809Y-69521485D01*
X85228571Y-69854819D02*
X85228571Y-69188152D01*
X85228571Y-69378628D02*
X85276190Y-69283390D01*
X85276190Y-69283390D02*
X85323809Y-69235771D01*
X85323809Y-69235771D02*
X85419047Y-69188152D01*
X85419047Y-69188152D02*
X85514285Y-69188152D01*
X86133333Y-68854819D02*
X86133333Y-69569104D01*
X86133333Y-69569104D02*
X86085714Y-69711961D01*
X86085714Y-69711961D02*
X85990476Y-69807200D01*
X85990476Y-69807200D02*
X85847619Y-69854819D01*
X85847619Y-69854819D02*
X85752381Y-69854819D01*
X87038095Y-69188152D02*
X87038095Y-69854819D01*
X86609524Y-69188152D02*
X86609524Y-69711961D01*
X86609524Y-69711961D02*
X86657143Y-69807200D01*
X86657143Y-69807200D02*
X86752381Y-69854819D01*
X86752381Y-69854819D02*
X86895238Y-69854819D01*
X86895238Y-69854819D02*
X86990476Y-69807200D01*
X86990476Y-69807200D02*
X87038095Y-69759580D01*
X87514286Y-69854819D02*
X87514286Y-69188152D01*
X87514286Y-69283390D02*
X87561905Y-69235771D01*
X87561905Y-69235771D02*
X87657143Y-69188152D01*
X87657143Y-69188152D02*
X87800000Y-69188152D01*
X87800000Y-69188152D02*
X87895238Y-69235771D01*
X87895238Y-69235771D02*
X87942857Y-69331009D01*
X87942857Y-69331009D02*
X87942857Y-69854819D01*
X87942857Y-69331009D02*
X87990476Y-69235771D01*
X87990476Y-69235771D02*
X88085714Y-69188152D01*
X88085714Y-69188152D02*
X88228571Y-69188152D01*
X88228571Y-69188152D02*
X88323810Y-69235771D01*
X88323810Y-69235771D02*
X88371429Y-69331009D01*
X88371429Y-69331009D02*
X88371429Y-69854819D01*
X88847619Y-69188152D02*
X88847619Y-70188152D01*
X88847619Y-69235771D02*
X88942857Y-69188152D01*
X88942857Y-69188152D02*
X89133333Y-69188152D01*
X89133333Y-69188152D02*
X89228571Y-69235771D01*
X89228571Y-69235771D02*
X89276190Y-69283390D01*
X89276190Y-69283390D02*
X89323809Y-69378628D01*
X89323809Y-69378628D02*
X89323809Y-69664342D01*
X89323809Y-69664342D02*
X89276190Y-69759580D01*
X89276190Y-69759580D02*
X89228571Y-69807200D01*
X89228571Y-69807200D02*
X89133333Y-69854819D01*
X89133333Y-69854819D02*
X88942857Y-69854819D01*
X88942857Y-69854819D02*
X88847619Y-69807200D01*
X90133333Y-69807200D02*
X90038095Y-69854819D01*
X90038095Y-69854819D02*
X89847619Y-69854819D01*
X89847619Y-69854819D02*
X89752381Y-69807200D01*
X89752381Y-69807200D02*
X89704762Y-69711961D01*
X89704762Y-69711961D02*
X89704762Y-69331009D01*
X89704762Y-69331009D02*
X89752381Y-69235771D01*
X89752381Y-69235771D02*
X89847619Y-69188152D01*
X89847619Y-69188152D02*
X90038095Y-69188152D01*
X90038095Y-69188152D02*
X90133333Y-69235771D01*
X90133333Y-69235771D02*
X90180952Y-69331009D01*
X90180952Y-69331009D02*
X90180952Y-69426247D01*
X90180952Y-69426247D02*
X89704762Y-69521485D01*
X90609524Y-69854819D02*
X90609524Y-69188152D01*
X90609524Y-69378628D02*
X90657143Y-69283390D01*
X90657143Y-69283390D02*
X90704762Y-69235771D01*
X90704762Y-69235771D02*
X90800000Y-69188152D01*
X90800000Y-69188152D02*
X90895238Y-69188152D01*
X92561905Y-69759580D02*
X92514286Y-69807200D01*
X92514286Y-69807200D02*
X92371429Y-69854819D01*
X92371429Y-69854819D02*
X92276191Y-69854819D01*
X92276191Y-69854819D02*
X92133334Y-69807200D01*
X92133334Y-69807200D02*
X92038096Y-69711961D01*
X92038096Y-69711961D02*
X91990477Y-69616723D01*
X91990477Y-69616723D02*
X91942858Y-69426247D01*
X91942858Y-69426247D02*
X91942858Y-69283390D01*
X91942858Y-69283390D02*
X91990477Y-69092914D01*
X91990477Y-69092914D02*
X92038096Y-68997676D01*
X92038096Y-68997676D02*
X92133334Y-68902438D01*
X92133334Y-68902438D02*
X92276191Y-68854819D01*
X92276191Y-68854819D02*
X92371429Y-68854819D01*
X92371429Y-68854819D02*
X92514286Y-68902438D01*
X92514286Y-68902438D02*
X92561905Y-68950057D01*
X92990477Y-69854819D02*
X92990477Y-68854819D01*
X92990477Y-69331009D02*
X93561905Y-69331009D01*
X93561905Y-69854819D02*
X93561905Y-68854819D01*
X94561905Y-69854819D02*
X93990477Y-69854819D01*
X94276191Y-69854819D02*
X94276191Y-68854819D01*
X94276191Y-68854819D02*
X94180953Y-68997676D01*
X94180953Y-68997676D02*
X94085715Y-69092914D01*
X94085715Y-69092914D02*
X93990477Y-69140533D01*
X109166666Y-90954819D02*
X109166666Y-91669104D01*
X109166666Y-91669104D02*
X109119047Y-91811961D01*
X109119047Y-91811961D02*
X109023809Y-91907200D01*
X109023809Y-91907200D02*
X108880952Y-91954819D01*
X108880952Y-91954819D02*
X108785714Y-91954819D01*
X110119047Y-90954819D02*
X109642857Y-90954819D01*
X109642857Y-90954819D02*
X109595238Y-91431009D01*
X109595238Y-91431009D02*
X109642857Y-91383390D01*
X109642857Y-91383390D02*
X109738095Y-91335771D01*
X109738095Y-91335771D02*
X109976190Y-91335771D01*
X109976190Y-91335771D02*
X110071428Y-91383390D01*
X110071428Y-91383390D02*
X110119047Y-91431009D01*
X110119047Y-91431009D02*
X110166666Y-91526247D01*
X110166666Y-91526247D02*
X110166666Y-91764342D01*
X110166666Y-91764342D02*
X110119047Y-91859580D01*
X110119047Y-91859580D02*
X110071428Y-91907200D01*
X110071428Y-91907200D02*
X109976190Y-91954819D01*
X109976190Y-91954819D02*
X109738095Y-91954819D01*
X109738095Y-91954819D02*
X109642857Y-91907200D01*
X109642857Y-91907200D02*
X109595238Y-91859580D01*
X104333333Y-103431009D02*
X104666666Y-103431009D01*
X104809523Y-103954819D02*
X104333333Y-103954819D01*
X104333333Y-103954819D02*
X104333333Y-102954819D01*
X104333333Y-102954819D02*
X104809523Y-102954819D01*
X105238095Y-103954819D02*
X105238095Y-102954819D01*
X105238095Y-102954819D02*
X105809523Y-103954819D01*
X105809523Y-103954819D02*
X105809523Y-102954819D01*
X106238095Y-103669104D02*
X106714285Y-103669104D01*
X106142857Y-103954819D02*
X106476190Y-102954819D01*
X106476190Y-102954819D02*
X106809523Y-103954819D01*
X107476190Y-103431009D02*
X107619047Y-103478628D01*
X107619047Y-103478628D02*
X107666666Y-103526247D01*
X107666666Y-103526247D02*
X107714285Y-103621485D01*
X107714285Y-103621485D02*
X107714285Y-103764342D01*
X107714285Y-103764342D02*
X107666666Y-103859580D01*
X107666666Y-103859580D02*
X107619047Y-103907200D01*
X107619047Y-103907200D02*
X107523809Y-103954819D01*
X107523809Y-103954819D02*
X107142857Y-103954819D01*
X107142857Y-103954819D02*
X107142857Y-102954819D01*
X107142857Y-102954819D02*
X107476190Y-102954819D01*
X107476190Y-102954819D02*
X107571428Y-103002438D01*
X107571428Y-103002438D02*
X107619047Y-103050057D01*
X107619047Y-103050057D02*
X107666666Y-103145295D01*
X107666666Y-103145295D02*
X107666666Y-103240533D01*
X107666666Y-103240533D02*
X107619047Y-103335771D01*
X107619047Y-103335771D02*
X107571428Y-103383390D01*
X107571428Y-103383390D02*
X107476190Y-103431009D01*
X107476190Y-103431009D02*
X107142857Y-103431009D01*
X108619047Y-103954819D02*
X108142857Y-103954819D01*
X108142857Y-103954819D02*
X108142857Y-102954819D01*
X108952381Y-103431009D02*
X109285714Y-103431009D01*
X109428571Y-103954819D02*
X108952381Y-103954819D01*
X108952381Y-103954819D02*
X108952381Y-102954819D01*
X108952381Y-102954819D02*
X109428571Y-102954819D01*
X110619048Y-103954819D02*
X110619048Y-102954819D01*
X110619048Y-102954819D02*
X111000000Y-102954819D01*
X111000000Y-102954819D02*
X111095238Y-103002438D01*
X111095238Y-103002438D02*
X111142857Y-103050057D01*
X111142857Y-103050057D02*
X111190476Y-103145295D01*
X111190476Y-103145295D02*
X111190476Y-103288152D01*
X111190476Y-103288152D02*
X111142857Y-103383390D01*
X111142857Y-103383390D02*
X111095238Y-103431009D01*
X111095238Y-103431009D02*
X111000000Y-103478628D01*
X111000000Y-103478628D02*
X110619048Y-103478628D01*
X111619048Y-103954819D02*
X111619048Y-102954819D01*
X112095238Y-103954819D02*
X112095238Y-102954819D01*
X112095238Y-102954819D02*
X112666666Y-103954819D01*
X112666666Y-103954819D02*
X112666666Y-102954819D01*
X176166666Y-88534819D02*
X176166666Y-89249104D01*
X176166666Y-89249104D02*
X176119047Y-89391961D01*
X176119047Y-89391961D02*
X176023809Y-89487200D01*
X176023809Y-89487200D02*
X175880952Y-89534819D01*
X175880952Y-89534819D02*
X175785714Y-89534819D01*
X176547619Y-88534819D02*
X177166666Y-88534819D01*
X177166666Y-88534819D02*
X176833333Y-88915771D01*
X176833333Y-88915771D02*
X176976190Y-88915771D01*
X176976190Y-88915771D02*
X177071428Y-88963390D01*
X177071428Y-88963390D02*
X177119047Y-89011009D01*
X177119047Y-89011009D02*
X177166666Y-89106247D01*
X177166666Y-89106247D02*
X177166666Y-89344342D01*
X177166666Y-89344342D02*
X177119047Y-89439580D01*
X177119047Y-89439580D02*
X177071428Y-89487200D01*
X177071428Y-89487200D02*
X176976190Y-89534819D01*
X176976190Y-89534819D02*
X176690476Y-89534819D01*
X176690476Y-89534819D02*
X176595238Y-89487200D01*
X176595238Y-89487200D02*
X176547619Y-89439580D01*
X176500000Y-104454819D02*
X176690476Y-104454819D01*
X176690476Y-104454819D02*
X176785714Y-104502438D01*
X176785714Y-104502438D02*
X176880952Y-104597676D01*
X176880952Y-104597676D02*
X176928571Y-104788152D01*
X176928571Y-104788152D02*
X176928571Y-105121485D01*
X176928571Y-105121485D02*
X176880952Y-105311961D01*
X176880952Y-105311961D02*
X176785714Y-105407200D01*
X176785714Y-105407200D02*
X176690476Y-105454819D01*
X176690476Y-105454819D02*
X176500000Y-105454819D01*
X176500000Y-105454819D02*
X176404762Y-105407200D01*
X176404762Y-105407200D02*
X176309524Y-105311961D01*
X176309524Y-105311961D02*
X176261905Y-105121485D01*
X176261905Y-105121485D02*
X176261905Y-104788152D01*
X176261905Y-104788152D02*
X176309524Y-104597676D01*
X176309524Y-104597676D02*
X176404762Y-104502438D01*
X176404762Y-104502438D02*
X176500000Y-104454819D01*
X177357143Y-104454819D02*
X177357143Y-105264342D01*
X177357143Y-105264342D02*
X177404762Y-105359580D01*
X177404762Y-105359580D02*
X177452381Y-105407200D01*
X177452381Y-105407200D02*
X177547619Y-105454819D01*
X177547619Y-105454819D02*
X177738095Y-105454819D01*
X177738095Y-105454819D02*
X177833333Y-105407200D01*
X177833333Y-105407200D02*
X177880952Y-105359580D01*
X177880952Y-105359580D02*
X177928571Y-105264342D01*
X177928571Y-105264342D02*
X177928571Y-104454819D01*
X178261905Y-104454819D02*
X178833333Y-104454819D01*
X178547619Y-105454819D02*
X178547619Y-104454819D01*
X104666666Y-68454819D02*
X104666666Y-69169104D01*
X104666666Y-69169104D02*
X104619047Y-69311961D01*
X104619047Y-69311961D02*
X104523809Y-69407200D01*
X104523809Y-69407200D02*
X104380952Y-69454819D01*
X104380952Y-69454819D02*
X104285714Y-69454819D01*
X105666666Y-69454819D02*
X105095238Y-69454819D01*
X105380952Y-69454819D02*
X105380952Y-68454819D01*
X105380952Y-68454819D02*
X105285714Y-68597676D01*
X105285714Y-68597676D02*
X105190476Y-68692914D01*
X105190476Y-68692914D02*
X105095238Y-68740533D01*
X99285714Y-85359580D02*
X99238095Y-85407200D01*
X99238095Y-85407200D02*
X99095238Y-85454819D01*
X99095238Y-85454819D02*
X99000000Y-85454819D01*
X99000000Y-85454819D02*
X98857143Y-85407200D01*
X98857143Y-85407200D02*
X98761905Y-85311961D01*
X98761905Y-85311961D02*
X98714286Y-85216723D01*
X98714286Y-85216723D02*
X98666667Y-85026247D01*
X98666667Y-85026247D02*
X98666667Y-84883390D01*
X98666667Y-84883390D02*
X98714286Y-84692914D01*
X98714286Y-84692914D02*
X98761905Y-84597676D01*
X98761905Y-84597676D02*
X98857143Y-84502438D01*
X98857143Y-84502438D02*
X99000000Y-84454819D01*
X99000000Y-84454819D02*
X99095238Y-84454819D01*
X99095238Y-84454819D02*
X99238095Y-84502438D01*
X99238095Y-84502438D02*
X99285714Y-84550057D01*
X99714286Y-85454819D02*
X99714286Y-84454819D01*
X99714286Y-84931009D02*
X100285714Y-84931009D01*
X100285714Y-85454819D02*
X100285714Y-84454819D01*
X101285714Y-85454819D02*
X100714286Y-85454819D01*
X101000000Y-85454819D02*
X101000000Y-84454819D01*
X101000000Y-84454819D02*
X100904762Y-84597676D01*
X100904762Y-84597676D02*
X100809524Y-84692914D01*
X100809524Y-84692914D02*
X100714286Y-84740533D01*
X103047619Y-85359580D02*
X103000000Y-85407200D01*
X103000000Y-85407200D02*
X102857143Y-85454819D01*
X102857143Y-85454819D02*
X102761905Y-85454819D01*
X102761905Y-85454819D02*
X102619048Y-85407200D01*
X102619048Y-85407200D02*
X102523810Y-85311961D01*
X102523810Y-85311961D02*
X102476191Y-85216723D01*
X102476191Y-85216723D02*
X102428572Y-85026247D01*
X102428572Y-85026247D02*
X102428572Y-84883390D01*
X102428572Y-84883390D02*
X102476191Y-84692914D01*
X102476191Y-84692914D02*
X102523810Y-84597676D01*
X102523810Y-84597676D02*
X102619048Y-84502438D01*
X102619048Y-84502438D02*
X102761905Y-84454819D01*
X102761905Y-84454819D02*
X102857143Y-84454819D01*
X102857143Y-84454819D02*
X103000000Y-84502438D01*
X103000000Y-84502438D02*
X103047619Y-84550057D01*
X103476191Y-85454819D02*
X103476191Y-84454819D01*
X103476191Y-84931009D02*
X104047619Y-84931009D01*
X104047619Y-85454819D02*
X104047619Y-84454819D01*
X104476191Y-84550057D02*
X104523810Y-84502438D01*
X104523810Y-84502438D02*
X104619048Y-84454819D01*
X104619048Y-84454819D02*
X104857143Y-84454819D01*
X104857143Y-84454819D02*
X104952381Y-84502438D01*
X104952381Y-84502438D02*
X105000000Y-84550057D01*
X105000000Y-84550057D02*
X105047619Y-84645295D01*
X105047619Y-84645295D02*
X105047619Y-84740533D01*
X105047619Y-84740533D02*
X105000000Y-84883390D01*
X105000000Y-84883390D02*
X104428572Y-85454819D01*
X104428572Y-85454819D02*
X105047619Y-85454819D01*
X106238096Y-85454819D02*
X106238096Y-84454819D01*
X106714286Y-85454819D02*
X106714286Y-84454819D01*
X106714286Y-84454819D02*
X107285714Y-85454819D01*
X107285714Y-85454819D02*
X107285714Y-84454819D01*
X137861905Y-65124819D02*
X137861905Y-64124819D01*
X137861905Y-64124819D02*
X138100000Y-64124819D01*
X138100000Y-64124819D02*
X138242857Y-64172438D01*
X138242857Y-64172438D02*
X138338095Y-64267676D01*
X138338095Y-64267676D02*
X138385714Y-64362914D01*
X138385714Y-64362914D02*
X138433333Y-64553390D01*
X138433333Y-64553390D02*
X138433333Y-64696247D01*
X138433333Y-64696247D02*
X138385714Y-64886723D01*
X138385714Y-64886723D02*
X138338095Y-64981961D01*
X138338095Y-64981961D02*
X138242857Y-65077200D01*
X138242857Y-65077200D02*
X138100000Y-65124819D01*
X138100000Y-65124819D02*
X137861905Y-65124819D01*
X139385714Y-65124819D02*
X138814286Y-65124819D01*
X139100000Y-65124819D02*
X139100000Y-64124819D01*
X139100000Y-64124819D02*
X139004762Y-64267676D01*
X139004762Y-64267676D02*
X138909524Y-64362914D01*
X138909524Y-64362914D02*
X138814286Y-64410533D01*
X137957142Y-68784819D02*
X137480952Y-68784819D01*
X137480952Y-68784819D02*
X137480952Y-67784819D01*
X138290476Y-68261009D02*
X138623809Y-68261009D01*
X138766666Y-68784819D02*
X138290476Y-68784819D01*
X138290476Y-68784819D02*
X138290476Y-67784819D01*
X138290476Y-67784819D02*
X138766666Y-67784819D01*
X139195238Y-68784819D02*
X139195238Y-67784819D01*
X139195238Y-67784819D02*
X139433333Y-67784819D01*
X139433333Y-67784819D02*
X139576190Y-67832438D01*
X139576190Y-67832438D02*
X139671428Y-67927676D01*
X139671428Y-67927676D02*
X139719047Y-68022914D01*
X139719047Y-68022914D02*
X139766666Y-68213390D01*
X139766666Y-68213390D02*
X139766666Y-68356247D01*
X139766666Y-68356247D02*
X139719047Y-68546723D01*
X139719047Y-68546723D02*
X139671428Y-68641961D01*
X139671428Y-68641961D02*
X139576190Y-68737200D01*
X139576190Y-68737200D02*
X139433333Y-68784819D01*
X139433333Y-68784819D02*
X139195238Y-68784819D01*
X90383333Y-124179580D02*
X90335714Y-124227200D01*
X90335714Y-124227200D02*
X90192857Y-124274819D01*
X90192857Y-124274819D02*
X90097619Y-124274819D01*
X90097619Y-124274819D02*
X89954762Y-124227200D01*
X89954762Y-124227200D02*
X89859524Y-124131961D01*
X89859524Y-124131961D02*
X89811905Y-124036723D01*
X89811905Y-124036723D02*
X89764286Y-123846247D01*
X89764286Y-123846247D02*
X89764286Y-123703390D01*
X89764286Y-123703390D02*
X89811905Y-123512914D01*
X89811905Y-123512914D02*
X89859524Y-123417676D01*
X89859524Y-123417676D02*
X89954762Y-123322438D01*
X89954762Y-123322438D02*
X90097619Y-123274819D01*
X90097619Y-123274819D02*
X90192857Y-123274819D01*
X90192857Y-123274819D02*
X90335714Y-123322438D01*
X90335714Y-123322438D02*
X90383333Y-123370057D01*
X91288095Y-123274819D02*
X90811905Y-123274819D01*
X90811905Y-123274819D02*
X90764286Y-123751009D01*
X90764286Y-123751009D02*
X90811905Y-123703390D01*
X90811905Y-123703390D02*
X90907143Y-123655771D01*
X90907143Y-123655771D02*
X91145238Y-123655771D01*
X91145238Y-123655771D02*
X91240476Y-123703390D01*
X91240476Y-123703390D02*
X91288095Y-123751009D01*
X91288095Y-123751009D02*
X91335714Y-123846247D01*
X91335714Y-123846247D02*
X91335714Y-124084342D01*
X91335714Y-124084342D02*
X91288095Y-124179580D01*
X91288095Y-124179580D02*
X91240476Y-124227200D01*
X91240476Y-124227200D02*
X91145238Y-124274819D01*
X91145238Y-124274819D02*
X90907143Y-124274819D01*
X90907143Y-124274819D02*
X90811905Y-124227200D01*
X90811905Y-124227200D02*
X90764286Y-124179580D01*
X87809524Y-126634819D02*
X88428571Y-126634819D01*
X88428571Y-126634819D02*
X88095238Y-127015771D01*
X88095238Y-127015771D02*
X88238095Y-127015771D01*
X88238095Y-127015771D02*
X88333333Y-127063390D01*
X88333333Y-127063390D02*
X88380952Y-127111009D01*
X88380952Y-127111009D02*
X88428571Y-127206247D01*
X88428571Y-127206247D02*
X88428571Y-127444342D01*
X88428571Y-127444342D02*
X88380952Y-127539580D01*
X88380952Y-127539580D02*
X88333333Y-127587200D01*
X88333333Y-127587200D02*
X88238095Y-127634819D01*
X88238095Y-127634819D02*
X87952381Y-127634819D01*
X87952381Y-127634819D02*
X87857143Y-127587200D01*
X87857143Y-127587200D02*
X87809524Y-127539580D01*
X88904762Y-127634819D02*
X89095238Y-127634819D01*
X89095238Y-127634819D02*
X89190476Y-127587200D01*
X89190476Y-127587200D02*
X89238095Y-127539580D01*
X89238095Y-127539580D02*
X89333333Y-127396723D01*
X89333333Y-127396723D02*
X89380952Y-127206247D01*
X89380952Y-127206247D02*
X89380952Y-126825295D01*
X89380952Y-126825295D02*
X89333333Y-126730057D01*
X89333333Y-126730057D02*
X89285714Y-126682438D01*
X89285714Y-126682438D02*
X89190476Y-126634819D01*
X89190476Y-126634819D02*
X89000000Y-126634819D01*
X89000000Y-126634819D02*
X88904762Y-126682438D01*
X88904762Y-126682438D02*
X88857143Y-126730057D01*
X88857143Y-126730057D02*
X88809524Y-126825295D01*
X88809524Y-126825295D02*
X88809524Y-127063390D01*
X88809524Y-127063390D02*
X88857143Y-127158628D01*
X88857143Y-127158628D02*
X88904762Y-127206247D01*
X88904762Y-127206247D02*
X89000000Y-127253866D01*
X89000000Y-127253866D02*
X89190476Y-127253866D01*
X89190476Y-127253866D02*
X89285714Y-127206247D01*
X89285714Y-127206247D02*
X89333333Y-127158628D01*
X89333333Y-127158628D02*
X89380952Y-127063390D01*
X89809524Y-126968152D02*
X89809524Y-127634819D01*
X89809524Y-127063390D02*
X89857143Y-127015771D01*
X89857143Y-127015771D02*
X89952381Y-126968152D01*
X89952381Y-126968152D02*
X90095238Y-126968152D01*
X90095238Y-126968152D02*
X90190476Y-127015771D01*
X90190476Y-127015771D02*
X90238095Y-127111009D01*
X90238095Y-127111009D02*
X90238095Y-127634819D01*
X91047619Y-127111009D02*
X90714286Y-127111009D01*
X90714286Y-127634819D02*
X90714286Y-126634819D01*
X90714286Y-126634819D02*
X91190476Y-126634819D01*
X91383333Y-103679580D02*
X91335714Y-103727200D01*
X91335714Y-103727200D02*
X91192857Y-103774819D01*
X91192857Y-103774819D02*
X91097619Y-103774819D01*
X91097619Y-103774819D02*
X90954762Y-103727200D01*
X90954762Y-103727200D02*
X90859524Y-103631961D01*
X90859524Y-103631961D02*
X90811905Y-103536723D01*
X90811905Y-103536723D02*
X90764286Y-103346247D01*
X90764286Y-103346247D02*
X90764286Y-103203390D01*
X90764286Y-103203390D02*
X90811905Y-103012914D01*
X90811905Y-103012914D02*
X90859524Y-102917676D01*
X90859524Y-102917676D02*
X90954762Y-102822438D01*
X90954762Y-102822438D02*
X91097619Y-102774819D01*
X91097619Y-102774819D02*
X91192857Y-102774819D01*
X91192857Y-102774819D02*
X91335714Y-102822438D01*
X91335714Y-102822438D02*
X91383333Y-102870057D01*
X92240476Y-103108152D02*
X92240476Y-103774819D01*
X92002381Y-102727200D02*
X91764286Y-103441485D01*
X91764286Y-103441485D02*
X92383333Y-103441485D01*
X88309524Y-106134819D02*
X88928571Y-106134819D01*
X88928571Y-106134819D02*
X88595238Y-106515771D01*
X88595238Y-106515771D02*
X88738095Y-106515771D01*
X88738095Y-106515771D02*
X88833333Y-106563390D01*
X88833333Y-106563390D02*
X88880952Y-106611009D01*
X88880952Y-106611009D02*
X88928571Y-106706247D01*
X88928571Y-106706247D02*
X88928571Y-106944342D01*
X88928571Y-106944342D02*
X88880952Y-107039580D01*
X88880952Y-107039580D02*
X88833333Y-107087200D01*
X88833333Y-107087200D02*
X88738095Y-107134819D01*
X88738095Y-107134819D02*
X88452381Y-107134819D01*
X88452381Y-107134819D02*
X88357143Y-107087200D01*
X88357143Y-107087200D02*
X88309524Y-107039580D01*
X89404762Y-107134819D02*
X89595238Y-107134819D01*
X89595238Y-107134819D02*
X89690476Y-107087200D01*
X89690476Y-107087200D02*
X89738095Y-107039580D01*
X89738095Y-107039580D02*
X89833333Y-106896723D01*
X89833333Y-106896723D02*
X89880952Y-106706247D01*
X89880952Y-106706247D02*
X89880952Y-106325295D01*
X89880952Y-106325295D02*
X89833333Y-106230057D01*
X89833333Y-106230057D02*
X89785714Y-106182438D01*
X89785714Y-106182438D02*
X89690476Y-106134819D01*
X89690476Y-106134819D02*
X89500000Y-106134819D01*
X89500000Y-106134819D02*
X89404762Y-106182438D01*
X89404762Y-106182438D02*
X89357143Y-106230057D01*
X89357143Y-106230057D02*
X89309524Y-106325295D01*
X89309524Y-106325295D02*
X89309524Y-106563390D01*
X89309524Y-106563390D02*
X89357143Y-106658628D01*
X89357143Y-106658628D02*
X89404762Y-106706247D01*
X89404762Y-106706247D02*
X89500000Y-106753866D01*
X89500000Y-106753866D02*
X89690476Y-106753866D01*
X89690476Y-106753866D02*
X89785714Y-106706247D01*
X89785714Y-106706247D02*
X89833333Y-106658628D01*
X89833333Y-106658628D02*
X89880952Y-106563390D01*
X90309524Y-106468152D02*
X90309524Y-107134819D01*
X90309524Y-106563390D02*
X90357143Y-106515771D01*
X90357143Y-106515771D02*
X90452381Y-106468152D01*
X90452381Y-106468152D02*
X90595238Y-106468152D01*
X90595238Y-106468152D02*
X90690476Y-106515771D01*
X90690476Y-106515771D02*
X90738095Y-106611009D01*
X90738095Y-106611009D02*
X90738095Y-107134819D01*
X91547619Y-106611009D02*
X91214286Y-106611009D01*
X91214286Y-107134819D02*
X91214286Y-106134819D01*
X91214286Y-106134819D02*
X91690476Y-106134819D01*
X91383333Y-81679580D02*
X91335714Y-81727200D01*
X91335714Y-81727200D02*
X91192857Y-81774819D01*
X91192857Y-81774819D02*
X91097619Y-81774819D01*
X91097619Y-81774819D02*
X90954762Y-81727200D01*
X90954762Y-81727200D02*
X90859524Y-81631961D01*
X90859524Y-81631961D02*
X90811905Y-81536723D01*
X90811905Y-81536723D02*
X90764286Y-81346247D01*
X90764286Y-81346247D02*
X90764286Y-81203390D01*
X90764286Y-81203390D02*
X90811905Y-81012914D01*
X90811905Y-81012914D02*
X90859524Y-80917676D01*
X90859524Y-80917676D02*
X90954762Y-80822438D01*
X90954762Y-80822438D02*
X91097619Y-80774819D01*
X91097619Y-80774819D02*
X91192857Y-80774819D01*
X91192857Y-80774819D02*
X91335714Y-80822438D01*
X91335714Y-80822438D02*
X91383333Y-80870057D01*
X91716667Y-80774819D02*
X92335714Y-80774819D01*
X92335714Y-80774819D02*
X92002381Y-81155771D01*
X92002381Y-81155771D02*
X92145238Y-81155771D01*
X92145238Y-81155771D02*
X92240476Y-81203390D01*
X92240476Y-81203390D02*
X92288095Y-81251009D01*
X92288095Y-81251009D02*
X92335714Y-81346247D01*
X92335714Y-81346247D02*
X92335714Y-81584342D01*
X92335714Y-81584342D02*
X92288095Y-81679580D01*
X92288095Y-81679580D02*
X92240476Y-81727200D01*
X92240476Y-81727200D02*
X92145238Y-81774819D01*
X92145238Y-81774819D02*
X91859524Y-81774819D01*
X91859524Y-81774819D02*
X91764286Y-81727200D01*
X91764286Y-81727200D02*
X91716667Y-81679580D01*
X88809524Y-84134819D02*
X89428571Y-84134819D01*
X89428571Y-84134819D02*
X89095238Y-84515771D01*
X89095238Y-84515771D02*
X89238095Y-84515771D01*
X89238095Y-84515771D02*
X89333333Y-84563390D01*
X89333333Y-84563390D02*
X89380952Y-84611009D01*
X89380952Y-84611009D02*
X89428571Y-84706247D01*
X89428571Y-84706247D02*
X89428571Y-84944342D01*
X89428571Y-84944342D02*
X89380952Y-85039580D01*
X89380952Y-85039580D02*
X89333333Y-85087200D01*
X89333333Y-85087200D02*
X89238095Y-85134819D01*
X89238095Y-85134819D02*
X88952381Y-85134819D01*
X88952381Y-85134819D02*
X88857143Y-85087200D01*
X88857143Y-85087200D02*
X88809524Y-85039580D01*
X89904762Y-85134819D02*
X90095238Y-85134819D01*
X90095238Y-85134819D02*
X90190476Y-85087200D01*
X90190476Y-85087200D02*
X90238095Y-85039580D01*
X90238095Y-85039580D02*
X90333333Y-84896723D01*
X90333333Y-84896723D02*
X90380952Y-84706247D01*
X90380952Y-84706247D02*
X90380952Y-84325295D01*
X90380952Y-84325295D02*
X90333333Y-84230057D01*
X90333333Y-84230057D02*
X90285714Y-84182438D01*
X90285714Y-84182438D02*
X90190476Y-84134819D01*
X90190476Y-84134819D02*
X90000000Y-84134819D01*
X90000000Y-84134819D02*
X89904762Y-84182438D01*
X89904762Y-84182438D02*
X89857143Y-84230057D01*
X89857143Y-84230057D02*
X89809524Y-84325295D01*
X89809524Y-84325295D02*
X89809524Y-84563390D01*
X89809524Y-84563390D02*
X89857143Y-84658628D01*
X89857143Y-84658628D02*
X89904762Y-84706247D01*
X89904762Y-84706247D02*
X90000000Y-84753866D01*
X90000000Y-84753866D02*
X90190476Y-84753866D01*
X90190476Y-84753866D02*
X90285714Y-84706247D01*
X90285714Y-84706247D02*
X90333333Y-84658628D01*
X90333333Y-84658628D02*
X90380952Y-84563390D01*
X90809524Y-84468152D02*
X90809524Y-85134819D01*
X90809524Y-84563390D02*
X90857143Y-84515771D01*
X90857143Y-84515771D02*
X90952381Y-84468152D01*
X90952381Y-84468152D02*
X91095238Y-84468152D01*
X91095238Y-84468152D02*
X91190476Y-84515771D01*
X91190476Y-84515771D02*
X91238095Y-84611009D01*
X91238095Y-84611009D02*
X91238095Y-85134819D01*
X92047619Y-84611009D02*
X91714286Y-84611009D01*
X91714286Y-85134819D02*
X91714286Y-84134819D01*
X91714286Y-84134819D02*
X92190476Y-84134819D01*
X90833333Y-59679580D02*
X90785714Y-59727200D01*
X90785714Y-59727200D02*
X90642857Y-59774819D01*
X90642857Y-59774819D02*
X90547619Y-59774819D01*
X90547619Y-59774819D02*
X90404762Y-59727200D01*
X90404762Y-59727200D02*
X90309524Y-59631961D01*
X90309524Y-59631961D02*
X90261905Y-59536723D01*
X90261905Y-59536723D02*
X90214286Y-59346247D01*
X90214286Y-59346247D02*
X90214286Y-59203390D01*
X90214286Y-59203390D02*
X90261905Y-59012914D01*
X90261905Y-59012914D02*
X90309524Y-58917676D01*
X90309524Y-58917676D02*
X90404762Y-58822438D01*
X90404762Y-58822438D02*
X90547619Y-58774819D01*
X90547619Y-58774819D02*
X90642857Y-58774819D01*
X90642857Y-58774819D02*
X90785714Y-58822438D01*
X90785714Y-58822438D02*
X90833333Y-58870057D01*
X91214286Y-58870057D02*
X91261905Y-58822438D01*
X91261905Y-58822438D02*
X91357143Y-58774819D01*
X91357143Y-58774819D02*
X91595238Y-58774819D01*
X91595238Y-58774819D02*
X91690476Y-58822438D01*
X91690476Y-58822438D02*
X91738095Y-58870057D01*
X91738095Y-58870057D02*
X91785714Y-58965295D01*
X91785714Y-58965295D02*
X91785714Y-59060533D01*
X91785714Y-59060533D02*
X91738095Y-59203390D01*
X91738095Y-59203390D02*
X91166667Y-59774819D01*
X91166667Y-59774819D02*
X91785714Y-59774819D01*
X88309524Y-62134819D02*
X88928571Y-62134819D01*
X88928571Y-62134819D02*
X88595238Y-62515771D01*
X88595238Y-62515771D02*
X88738095Y-62515771D01*
X88738095Y-62515771D02*
X88833333Y-62563390D01*
X88833333Y-62563390D02*
X88880952Y-62611009D01*
X88880952Y-62611009D02*
X88928571Y-62706247D01*
X88928571Y-62706247D02*
X88928571Y-62944342D01*
X88928571Y-62944342D02*
X88880952Y-63039580D01*
X88880952Y-63039580D02*
X88833333Y-63087200D01*
X88833333Y-63087200D02*
X88738095Y-63134819D01*
X88738095Y-63134819D02*
X88452381Y-63134819D01*
X88452381Y-63134819D02*
X88357143Y-63087200D01*
X88357143Y-63087200D02*
X88309524Y-63039580D01*
X89404762Y-63134819D02*
X89595238Y-63134819D01*
X89595238Y-63134819D02*
X89690476Y-63087200D01*
X89690476Y-63087200D02*
X89738095Y-63039580D01*
X89738095Y-63039580D02*
X89833333Y-62896723D01*
X89833333Y-62896723D02*
X89880952Y-62706247D01*
X89880952Y-62706247D02*
X89880952Y-62325295D01*
X89880952Y-62325295D02*
X89833333Y-62230057D01*
X89833333Y-62230057D02*
X89785714Y-62182438D01*
X89785714Y-62182438D02*
X89690476Y-62134819D01*
X89690476Y-62134819D02*
X89500000Y-62134819D01*
X89500000Y-62134819D02*
X89404762Y-62182438D01*
X89404762Y-62182438D02*
X89357143Y-62230057D01*
X89357143Y-62230057D02*
X89309524Y-62325295D01*
X89309524Y-62325295D02*
X89309524Y-62563390D01*
X89309524Y-62563390D02*
X89357143Y-62658628D01*
X89357143Y-62658628D02*
X89404762Y-62706247D01*
X89404762Y-62706247D02*
X89500000Y-62753866D01*
X89500000Y-62753866D02*
X89690476Y-62753866D01*
X89690476Y-62753866D02*
X89785714Y-62706247D01*
X89785714Y-62706247D02*
X89833333Y-62658628D01*
X89833333Y-62658628D02*
X89880952Y-62563390D01*
X90309524Y-62468152D02*
X90309524Y-63134819D01*
X90309524Y-62563390D02*
X90357143Y-62515771D01*
X90357143Y-62515771D02*
X90452381Y-62468152D01*
X90452381Y-62468152D02*
X90595238Y-62468152D01*
X90595238Y-62468152D02*
X90690476Y-62515771D01*
X90690476Y-62515771D02*
X90738095Y-62611009D01*
X90738095Y-62611009D02*
X90738095Y-63134819D01*
X91547619Y-62611009D02*
X91214286Y-62611009D01*
X91214286Y-63134819D02*
X91214286Y-62134819D01*
X91214286Y-62134819D02*
X91690476Y-62134819D01*
X143883333Y-84679580D02*
X143835714Y-84727200D01*
X143835714Y-84727200D02*
X143692857Y-84774819D01*
X143692857Y-84774819D02*
X143597619Y-84774819D01*
X143597619Y-84774819D02*
X143454762Y-84727200D01*
X143454762Y-84727200D02*
X143359524Y-84631961D01*
X143359524Y-84631961D02*
X143311905Y-84536723D01*
X143311905Y-84536723D02*
X143264286Y-84346247D01*
X143264286Y-84346247D02*
X143264286Y-84203390D01*
X143264286Y-84203390D02*
X143311905Y-84012914D01*
X143311905Y-84012914D02*
X143359524Y-83917676D01*
X143359524Y-83917676D02*
X143454762Y-83822438D01*
X143454762Y-83822438D02*
X143597619Y-83774819D01*
X143597619Y-83774819D02*
X143692857Y-83774819D01*
X143692857Y-83774819D02*
X143835714Y-83822438D01*
X143835714Y-83822438D02*
X143883333Y-83870057D01*
X144835714Y-84774819D02*
X144264286Y-84774819D01*
X144550000Y-84774819D02*
X144550000Y-83774819D01*
X144550000Y-83774819D02*
X144454762Y-83917676D01*
X144454762Y-83917676D02*
X144359524Y-84012914D01*
X144359524Y-84012914D02*
X144264286Y-84060533D01*
X138476190Y-87134819D02*
X138571428Y-87134819D01*
X138571428Y-87134819D02*
X138666666Y-87182438D01*
X138666666Y-87182438D02*
X138714285Y-87230057D01*
X138714285Y-87230057D02*
X138761904Y-87325295D01*
X138761904Y-87325295D02*
X138809523Y-87515771D01*
X138809523Y-87515771D02*
X138809523Y-87753866D01*
X138809523Y-87753866D02*
X138761904Y-87944342D01*
X138761904Y-87944342D02*
X138714285Y-88039580D01*
X138714285Y-88039580D02*
X138666666Y-88087200D01*
X138666666Y-88087200D02*
X138571428Y-88134819D01*
X138571428Y-88134819D02*
X138476190Y-88134819D01*
X138476190Y-88134819D02*
X138380952Y-88087200D01*
X138380952Y-88087200D02*
X138333333Y-88039580D01*
X138333333Y-88039580D02*
X138285714Y-87944342D01*
X138285714Y-87944342D02*
X138238095Y-87753866D01*
X138238095Y-87753866D02*
X138238095Y-87515771D01*
X138238095Y-87515771D02*
X138285714Y-87325295D01*
X138285714Y-87325295D02*
X138333333Y-87230057D01*
X138333333Y-87230057D02*
X138380952Y-87182438D01*
X138380952Y-87182438D02*
X138476190Y-87134819D01*
X139238095Y-88039580D02*
X139285714Y-88087200D01*
X139285714Y-88087200D02*
X139238095Y-88134819D01*
X139238095Y-88134819D02*
X139190476Y-88087200D01*
X139190476Y-88087200D02*
X139238095Y-88039580D01*
X139238095Y-88039580D02*
X139238095Y-88134819D01*
X140238094Y-88134819D02*
X139666666Y-88134819D01*
X139952380Y-88134819D02*
X139952380Y-87134819D01*
X139952380Y-87134819D02*
X139857142Y-87277676D01*
X139857142Y-87277676D02*
X139761904Y-87372914D01*
X139761904Y-87372914D02*
X139666666Y-87420533D01*
X141857142Y-87468152D02*
X141857142Y-88134819D01*
X141428571Y-87468152D02*
X141428571Y-87991961D01*
X141428571Y-87991961D02*
X141476190Y-88087200D01*
X141476190Y-88087200D02*
X141571428Y-88134819D01*
X141571428Y-88134819D02*
X141714285Y-88134819D01*
X141714285Y-88134819D02*
X141809523Y-88087200D01*
X141809523Y-88087200D02*
X141857142Y-88039580D01*
X142666666Y-87611009D02*
X142333333Y-87611009D01*
X142333333Y-88134819D02*
X142333333Y-87134819D01*
X142333333Y-87134819D02*
X142809523Y-87134819D01*
X105666666Y-110454819D02*
X105666666Y-111169104D01*
X105666666Y-111169104D02*
X105619047Y-111311961D01*
X105619047Y-111311961D02*
X105523809Y-111407200D01*
X105523809Y-111407200D02*
X105380952Y-111454819D01*
X105380952Y-111454819D02*
X105285714Y-111454819D01*
X106095238Y-110550057D02*
X106142857Y-110502438D01*
X106142857Y-110502438D02*
X106238095Y-110454819D01*
X106238095Y-110454819D02*
X106476190Y-110454819D01*
X106476190Y-110454819D02*
X106571428Y-110502438D01*
X106571428Y-110502438D02*
X106619047Y-110550057D01*
X106619047Y-110550057D02*
X106666666Y-110645295D01*
X106666666Y-110645295D02*
X106666666Y-110740533D01*
X106666666Y-110740533D02*
X106619047Y-110883390D01*
X106619047Y-110883390D02*
X106047619Y-111454819D01*
X106047619Y-111454819D02*
X106666666Y-111454819D01*
X100285714Y-127359580D02*
X100238095Y-127407200D01*
X100238095Y-127407200D02*
X100095238Y-127454819D01*
X100095238Y-127454819D02*
X100000000Y-127454819D01*
X100000000Y-127454819D02*
X99857143Y-127407200D01*
X99857143Y-127407200D02*
X99761905Y-127311961D01*
X99761905Y-127311961D02*
X99714286Y-127216723D01*
X99714286Y-127216723D02*
X99666667Y-127026247D01*
X99666667Y-127026247D02*
X99666667Y-126883390D01*
X99666667Y-126883390D02*
X99714286Y-126692914D01*
X99714286Y-126692914D02*
X99761905Y-126597676D01*
X99761905Y-126597676D02*
X99857143Y-126502438D01*
X99857143Y-126502438D02*
X100000000Y-126454819D01*
X100000000Y-126454819D02*
X100095238Y-126454819D01*
X100095238Y-126454819D02*
X100238095Y-126502438D01*
X100238095Y-126502438D02*
X100285714Y-126550057D01*
X100714286Y-127454819D02*
X100714286Y-126454819D01*
X100714286Y-126931009D02*
X101285714Y-126931009D01*
X101285714Y-127454819D02*
X101285714Y-126454819D01*
X101666667Y-126454819D02*
X102285714Y-126454819D01*
X102285714Y-126454819D02*
X101952381Y-126835771D01*
X101952381Y-126835771D02*
X102095238Y-126835771D01*
X102095238Y-126835771D02*
X102190476Y-126883390D01*
X102190476Y-126883390D02*
X102238095Y-126931009D01*
X102238095Y-126931009D02*
X102285714Y-127026247D01*
X102285714Y-127026247D02*
X102285714Y-127264342D01*
X102285714Y-127264342D02*
X102238095Y-127359580D01*
X102238095Y-127359580D02*
X102190476Y-127407200D01*
X102190476Y-127407200D02*
X102095238Y-127454819D01*
X102095238Y-127454819D02*
X101809524Y-127454819D01*
X101809524Y-127454819D02*
X101714286Y-127407200D01*
X101714286Y-127407200D02*
X101666667Y-127359580D01*
X104047619Y-127359580D02*
X104000000Y-127407200D01*
X104000000Y-127407200D02*
X103857143Y-127454819D01*
X103857143Y-127454819D02*
X103761905Y-127454819D01*
X103761905Y-127454819D02*
X103619048Y-127407200D01*
X103619048Y-127407200D02*
X103523810Y-127311961D01*
X103523810Y-127311961D02*
X103476191Y-127216723D01*
X103476191Y-127216723D02*
X103428572Y-127026247D01*
X103428572Y-127026247D02*
X103428572Y-126883390D01*
X103428572Y-126883390D02*
X103476191Y-126692914D01*
X103476191Y-126692914D02*
X103523810Y-126597676D01*
X103523810Y-126597676D02*
X103619048Y-126502438D01*
X103619048Y-126502438D02*
X103761905Y-126454819D01*
X103761905Y-126454819D02*
X103857143Y-126454819D01*
X103857143Y-126454819D02*
X104000000Y-126502438D01*
X104000000Y-126502438D02*
X104047619Y-126550057D01*
X104476191Y-127454819D02*
X104476191Y-126454819D01*
X104476191Y-126931009D02*
X105047619Y-126931009D01*
X105047619Y-127454819D02*
X105047619Y-126454819D01*
X105952381Y-126788152D02*
X105952381Y-127454819D01*
X105714286Y-126407200D02*
X105476191Y-127121485D01*
X105476191Y-127121485D02*
X106095238Y-127121485D01*
X107238096Y-127454819D02*
X107238096Y-126454819D01*
X107714286Y-127454819D02*
X107714286Y-126454819D01*
X107714286Y-126454819D02*
X108285714Y-127454819D01*
X108285714Y-127454819D02*
X108285714Y-126454819D01*
X120199405Y-77504819D02*
X120199405Y-76504819D01*
X120199405Y-76504819D02*
X120437500Y-76504819D01*
X120437500Y-76504819D02*
X120580357Y-76552438D01*
X120580357Y-76552438D02*
X120675595Y-76647676D01*
X120675595Y-76647676D02*
X120723214Y-76742914D01*
X120723214Y-76742914D02*
X120770833Y-76933390D01*
X120770833Y-76933390D02*
X120770833Y-77076247D01*
X120770833Y-77076247D02*
X120723214Y-77266723D01*
X120723214Y-77266723D02*
X120675595Y-77361961D01*
X120675595Y-77361961D02*
X120580357Y-77457200D01*
X120580357Y-77457200D02*
X120437500Y-77504819D01*
X120437500Y-77504819D02*
X120199405Y-77504819D01*
X121104167Y-76504819D02*
X121723214Y-76504819D01*
X121723214Y-76504819D02*
X121389881Y-76885771D01*
X121389881Y-76885771D02*
X121532738Y-76885771D01*
X121532738Y-76885771D02*
X121627976Y-76933390D01*
X121627976Y-76933390D02*
X121675595Y-76981009D01*
X121675595Y-76981009D02*
X121723214Y-77076247D01*
X121723214Y-77076247D02*
X121723214Y-77314342D01*
X121723214Y-77314342D02*
X121675595Y-77409580D01*
X121675595Y-77409580D02*
X121627976Y-77457200D01*
X121627976Y-77457200D02*
X121532738Y-77504819D01*
X121532738Y-77504819D02*
X121247024Y-77504819D01*
X121247024Y-77504819D02*
X121151786Y-77457200D01*
X121151786Y-77457200D02*
X121104167Y-77409580D01*
X118580356Y-82209580D02*
X118532737Y-82257200D01*
X118532737Y-82257200D02*
X118389880Y-82304819D01*
X118389880Y-82304819D02*
X118294642Y-82304819D01*
X118294642Y-82304819D02*
X118151785Y-82257200D01*
X118151785Y-82257200D02*
X118056547Y-82161961D01*
X118056547Y-82161961D02*
X118008928Y-82066723D01*
X118008928Y-82066723D02*
X117961309Y-81876247D01*
X117961309Y-81876247D02*
X117961309Y-81733390D01*
X117961309Y-81733390D02*
X118008928Y-81542914D01*
X118008928Y-81542914D02*
X118056547Y-81447676D01*
X118056547Y-81447676D02*
X118151785Y-81352438D01*
X118151785Y-81352438D02*
X118294642Y-81304819D01*
X118294642Y-81304819D02*
X118389880Y-81304819D01*
X118389880Y-81304819D02*
X118532737Y-81352438D01*
X118532737Y-81352438D02*
X118580356Y-81400057D01*
X119008928Y-82304819D02*
X119008928Y-81304819D01*
X119008928Y-81781009D02*
X119580356Y-81781009D01*
X119580356Y-82304819D02*
X119580356Y-81304819D01*
X120008928Y-81400057D02*
X120056547Y-81352438D01*
X120056547Y-81352438D02*
X120151785Y-81304819D01*
X120151785Y-81304819D02*
X120389880Y-81304819D01*
X120389880Y-81304819D02*
X120485118Y-81352438D01*
X120485118Y-81352438D02*
X120532737Y-81400057D01*
X120532737Y-81400057D02*
X120580356Y-81495295D01*
X120580356Y-81495295D02*
X120580356Y-81590533D01*
X120580356Y-81590533D02*
X120532737Y-81733390D01*
X120532737Y-81733390D02*
X119961309Y-82304819D01*
X119961309Y-82304819D02*
X120580356Y-82304819D01*
X121627976Y-81304819D02*
X122199404Y-81304819D01*
X121913690Y-82304819D02*
X121913690Y-81304819D01*
X122389881Y-81304819D02*
X122723214Y-82304819D01*
X122723214Y-82304819D02*
X123056547Y-81304819D01*
X123342262Y-82257200D02*
X123485119Y-82304819D01*
X123485119Y-82304819D02*
X123723214Y-82304819D01*
X123723214Y-82304819D02*
X123818452Y-82257200D01*
X123818452Y-82257200D02*
X123866071Y-82209580D01*
X123866071Y-82209580D02*
X123913690Y-82114342D01*
X123913690Y-82114342D02*
X123913690Y-82019104D01*
X123913690Y-82019104D02*
X123866071Y-81923866D01*
X123866071Y-81923866D02*
X123818452Y-81876247D01*
X123818452Y-81876247D02*
X123723214Y-81828628D01*
X123723214Y-81828628D02*
X123532738Y-81781009D01*
X123532738Y-81781009D02*
X123437500Y-81733390D01*
X123437500Y-81733390D02*
X123389881Y-81685771D01*
X123389881Y-81685771D02*
X123342262Y-81590533D01*
X123342262Y-81590533D02*
X123342262Y-81495295D01*
X123342262Y-81495295D02*
X123389881Y-81400057D01*
X123389881Y-81400057D02*
X123437500Y-81352438D01*
X123437500Y-81352438D02*
X123532738Y-81304819D01*
X123532738Y-81304819D02*
X123770833Y-81304819D01*
X123770833Y-81304819D02*
X123913690Y-81352438D01*
%TO.C,J4*%
D11*
X146250000Y-72550000D02*
X148050000Y-72550000D01*
X148050000Y-73300000D01*
X146250000Y-73300000D01*
X146250000Y-72550000D01*
X143750000Y-72550000D02*
X144750000Y-72550000D01*
X144750000Y-73300000D01*
X143750000Y-73300000D01*
X143750000Y-72550000D01*
X140450000Y-72550000D02*
X142250000Y-72550000D01*
X142250000Y-73300000D01*
X140450000Y-73300000D01*
X140450000Y-72550000D01*
X140440000Y-72540000D02*
X148060000Y-72540000D01*
X148060000Y-78510000D01*
X140440000Y-78510000D01*
X140440000Y-72540000D01*
X148050000Y-74800000D02*
X147300000Y-74800000D01*
X147300000Y-77750000D02*
X144250000Y-77750000D01*
X147300000Y-74800000D02*
X147300000Y-77750000D01*
X141400000Y-72250000D02*
X140150000Y-72250000D01*
X141200000Y-77750000D02*
X144250000Y-77750000D01*
X141200000Y-74800000D02*
X141200000Y-77750000D01*
X140450000Y-74800000D02*
X141200000Y-74800000D01*
X140150000Y-72250000D02*
X140150000Y-73500000D01*
%TO.C,TP1*%
X153200000Y-87500000D02*
G75*
G02*
X150800000Y-87500000I-1200000J0D01*
G01*
X150800000Y-87500000D02*
G75*
G02*
X153200000Y-87500000I1200000J0D01*
G01*
%TO.C,U1*%
X142465000Y-91115000D02*
X146585000Y-91115000D01*
X142465000Y-91170000D02*
X142465000Y-91115000D01*
X142465000Y-101235000D02*
X142465000Y-101180000D01*
X146585000Y-91115000D02*
X146585000Y-91170000D01*
X146585000Y-101180000D02*
X146585000Y-101235000D01*
X146585000Y-101235000D02*
X142465000Y-101235000D01*
X141925000Y-91165000D02*
X141685000Y-90835000D01*
X142165000Y-90835000D01*
X141925000Y-91165000D01*
G36*
X141925000Y-91165000D02*
G01*
X141685000Y-90835000D01*
X142165000Y-90835000D01*
X141925000Y-91165000D01*
G37*
%TO.C,D4*%
X114200000Y-108620000D02*
X114440000Y-108950000D01*
X113960000Y-108950000D01*
X114200000Y-108620000D01*
G36*
X114440000Y-108950000D02*
G01*
X113960000Y-108950000D01*
X114200000Y-108620000D01*
X114440000Y-108950000D01*
G37*
X116260000Y-110560000D02*
X114740000Y-110560000D01*
X116260000Y-109560000D02*
X116260000Y-110560000D01*
X116260000Y-107440000D02*
X116260000Y-108440000D01*
X114740000Y-110560000D02*
X114740000Y-110510000D01*
X114740000Y-109390000D02*
X114740000Y-108610000D01*
X114740000Y-107490000D02*
X114740000Y-107440000D01*
X114740000Y-107440000D02*
X116260000Y-107440000D01*
%TO.C,D5*%
X114137500Y-130570000D02*
X114377500Y-130900000D01*
X113897500Y-130900000D01*
X114137500Y-130570000D01*
G36*
X114377500Y-130900000D02*
G01*
X113897500Y-130900000D01*
X114137500Y-130570000D01*
X114377500Y-130900000D01*
G37*
X116197500Y-132510000D02*
X114677500Y-132510000D01*
X116197500Y-131510000D02*
X116197500Y-132510000D01*
X116197500Y-129390000D02*
X116197500Y-130390000D01*
X114677500Y-132510000D02*
X114677500Y-132460000D01*
X114677500Y-131340000D02*
X114677500Y-130560000D01*
X114677500Y-129440000D02*
X114677500Y-129390000D01*
X114677500Y-129390000D02*
X116197500Y-129390000D01*
%TO.C,D2*%
X119762500Y-62620000D02*
X120002500Y-62950000D01*
X119522500Y-62950000D01*
X119762500Y-62620000D01*
G36*
X120002500Y-62950000D02*
G01*
X119522500Y-62950000D01*
X119762500Y-62620000D01*
X120002500Y-62950000D01*
G37*
X121822500Y-64560000D02*
X120302500Y-64560000D01*
X121822500Y-63560000D02*
X121822500Y-64560000D01*
X121822500Y-61440000D02*
X121822500Y-62440000D01*
X120302500Y-64560000D02*
X120302500Y-64510000D01*
X120302500Y-63390000D02*
X120302500Y-62610000D01*
X120302500Y-61490000D02*
X120302500Y-61440000D01*
X120302500Y-61440000D02*
X121822500Y-61440000D01*
%TO.C,TP2*%
X186200000Y-80000000D02*
G75*
G02*
X183800000Y-80000000I-1200000J0D01*
G01*
X183800000Y-80000000D02*
G75*
G02*
X186200000Y-80000000I1200000J0D01*
G01*
%TO.C,TP3*%
X186200000Y-107000000D02*
G75*
G02*
X183800000Y-107000000I-1200000J0D01*
G01*
X183800000Y-107000000D02*
G75*
G02*
X186200000Y-107000000I1200000J0D01*
G01*
%TO.C,TP6*%
X186200000Y-87000000D02*
G75*
G02*
X183800000Y-87000000I-1200000J0D01*
G01*
X183800000Y-87000000D02*
G75*
G02*
X186200000Y-87000000I1200000J0D01*
G01*
%TO.C,TP4*%
X186200000Y-100750000D02*
G75*
G02*
X183800000Y-100750000I-1200000J0D01*
G01*
X183800000Y-100750000D02*
G75*
G02*
X186200000Y-100750000I1200000J0D01*
G01*
%TO.C,TP5*%
X186200000Y-94000000D02*
G75*
G02*
X183800000Y-94000000I-1200000J0D01*
G01*
X183800000Y-94000000D02*
G75*
G02*
X186200000Y-94000000I1200000J0D01*
G01*
%TO.C,R7*%
X100735000Y-100772936D02*
X100735000Y-101227064D01*
X99265000Y-100772936D02*
X99265000Y-101227064D01*
%TO.C,R6*%
X100735000Y-93272936D02*
X100735000Y-93727064D01*
X99265000Y-93272936D02*
X99265000Y-93727064D01*
%TO.C,R5*%
X149360436Y-65765000D02*
X149814564Y-65765000D01*
X149360436Y-67235000D02*
X149814564Y-67235000D01*
%TO.C,R4*%
X83360436Y-124765000D02*
X83814564Y-124765000D01*
X83360436Y-126235000D02*
X83814564Y-126235000D01*
%TO.C,R3*%
X82860436Y-104265000D02*
X83314564Y-104265000D01*
X82860436Y-105735000D02*
X83314564Y-105735000D01*
%TO.C,R2*%
X83860436Y-82265000D02*
X84314564Y-82265000D01*
X83860436Y-83735000D02*
X84314564Y-83735000D01*
%TO.C,R1*%
X83310436Y-60265000D02*
X83764564Y-60265000D01*
X83310436Y-61735000D02*
X83764564Y-61735000D01*
%TO.C,JP4*%
X85750000Y-132000000D02*
X88550000Y-132000000D01*
X85750000Y-134000000D02*
X85750000Y-132000000D01*
X88550000Y-132000000D02*
X88550000Y-134000000D01*
X88550000Y-134000000D02*
X85750000Y-134000000D01*
%TO.C,JP3*%
X86450000Y-111000000D02*
X89250000Y-111000000D01*
X86450000Y-113000000D02*
X86450000Y-111000000D01*
X89250000Y-111000000D02*
X89250000Y-113000000D01*
X89250000Y-113000000D02*
X86450000Y-113000000D01*
%TO.C,JP2*%
X86450000Y-89500000D02*
X89250000Y-89500000D01*
X86450000Y-91500000D02*
X86450000Y-89500000D01*
X89250000Y-89500000D02*
X89250000Y-91500000D01*
X89250000Y-91500000D02*
X86450000Y-91500000D01*
%TO.C,JP1*%
X86400000Y-66500000D02*
X89200000Y-66500000D01*
X86400000Y-68500000D02*
X86400000Y-66500000D01*
X89200000Y-66500000D02*
X89200000Y-68500000D01*
X89200000Y-68500000D02*
X86400000Y-68500000D01*
%TO.C,J5*%
X108120000Y-93080000D02*
X109500000Y-93080000D01*
X108120000Y-94460000D02*
X108120000Y-93080000D01*
X108120000Y-95730000D02*
X108120000Y-100920000D01*
X108120000Y-95730000D02*
X110880000Y-95730000D01*
X108120000Y-100920000D02*
X110880000Y-100920000D01*
X110880000Y-95730000D02*
X110880000Y-100920000D01*
%TO.C,J3*%
X176120000Y-90080000D02*
X177500000Y-90080000D01*
X176120000Y-91460000D02*
X176120000Y-90080000D01*
X176120000Y-92730000D02*
X176120000Y-103000000D01*
X176120000Y-92730000D02*
X178880000Y-92730000D01*
X176120000Y-103000000D02*
X178880000Y-103000000D01*
X178880000Y-92730000D02*
X178880000Y-103000000D01*
%TO.C,J1*%
X101750000Y-83350000D02*
X103000000Y-83350000D01*
X104300000Y-83050000D02*
X104300000Y-82300000D01*
X104300000Y-82300000D02*
X107250000Y-82300000D01*
X107250000Y-82300000D02*
X107250000Y-76750000D01*
X101750000Y-82100000D02*
X101750000Y-83350000D01*
X104300000Y-71200000D02*
X107250000Y-71200000D01*
X107250000Y-71200000D02*
X107250000Y-76750000D01*
X104300000Y-70450000D02*
X104300000Y-71200000D01*
X102040000Y-70440000D02*
X108010000Y-70440000D01*
X108010000Y-83060000D01*
X102040000Y-83060000D01*
X102040000Y-70440000D01*
X102050000Y-81250000D02*
X102800000Y-81250000D01*
X102800000Y-83050000D01*
X102050000Y-83050000D01*
X102050000Y-81250000D01*
X102050000Y-73750000D02*
X102800000Y-73750000D01*
X102800000Y-79750000D01*
X102050000Y-79750000D01*
X102050000Y-73750000D01*
X102050000Y-70450000D02*
X102800000Y-70450000D01*
X102800000Y-72250000D01*
X102050000Y-72250000D01*
X102050000Y-70450000D01*
%TO.C,D1*%
X136315000Y-65365000D02*
X136315000Y-67635000D01*
X136315000Y-67635000D02*
X140200000Y-67635000D01*
X140200000Y-65365000D02*
X136315000Y-65365000D01*
%TO.C,C5*%
X90288748Y-124765000D02*
X90811252Y-124765000D01*
X90288748Y-126235000D02*
X90811252Y-126235000D01*
%TO.C,C4*%
X91288748Y-104265000D02*
X91811252Y-104265000D01*
X91288748Y-105735000D02*
X91811252Y-105735000D01*
%TO.C,C3*%
X91288748Y-82265000D02*
X91811252Y-82265000D01*
X91288748Y-83735000D02*
X91811252Y-83735000D01*
%TO.C,C2*%
X90738748Y-60265000D02*
X91261252Y-60265000D01*
X90738748Y-61735000D02*
X91261252Y-61735000D01*
%TO.C,C1*%
X143788748Y-85265000D02*
X144311252Y-85265000D01*
X143788748Y-86735000D02*
X144311252Y-86735000D01*
%TO.C,J2*%
X102750000Y-125350000D02*
X104000000Y-125350000D01*
X105300000Y-125050000D02*
X105300000Y-124300000D01*
X105300000Y-124300000D02*
X108250000Y-124300000D01*
X108250000Y-124300000D02*
X108250000Y-118750000D01*
X102750000Y-124100000D02*
X102750000Y-125350000D01*
X105300000Y-113200000D02*
X108250000Y-113200000D01*
X108250000Y-113200000D02*
X108250000Y-118750000D01*
X105300000Y-112450000D02*
X105300000Y-113200000D01*
X103040000Y-112440000D02*
X109010000Y-112440000D01*
X109010000Y-125060000D01*
X103040000Y-125060000D01*
X103040000Y-112440000D01*
X103050000Y-123250000D02*
X103800000Y-123250000D01*
X103800000Y-125050000D01*
X103050000Y-125050000D01*
X103050000Y-123250000D01*
X103050000Y-115750000D02*
X103800000Y-115750000D01*
X103800000Y-121750000D01*
X103050000Y-121750000D01*
X103050000Y-115750000D01*
X103050000Y-112450000D02*
X103800000Y-112450000D01*
X103800000Y-114250000D01*
X103050000Y-114250000D01*
X103050000Y-112450000D01*
%TO.C,D3*%
X119637500Y-79070000D02*
X119877500Y-79400000D01*
X119397500Y-79400000D01*
X119637500Y-79070000D01*
G36*
X119877500Y-79400000D02*
G01*
X119397500Y-79400000D01*
X119637500Y-79070000D01*
X119877500Y-79400000D01*
G37*
X121697500Y-81010000D02*
X120177500Y-81010000D01*
X121697500Y-80010000D02*
X121697500Y-81010000D01*
X121697500Y-77890000D02*
X121697500Y-78890000D01*
X120177500Y-81010000D02*
X120177500Y-80960000D01*
X120177500Y-79840000D02*
X120177500Y-79060000D01*
X120177500Y-77940000D02*
X120177500Y-77890000D01*
X120177500Y-77890000D02*
X121697500Y-77890000D01*
%TD*%
M02*
